<?xml version="1.0" encoding="utf-8"?>
<!-- Generator: Adobe Illustrator 26.0.2, SVG Export Plug-In . SVG Version: 6.00 Build 0)  -->
<svg version="1.1" id="Layer_1" xmlns="http://www.w3.org/2000/svg" xmlns:xlink="http://www.w3.org/1999/xlink" x="0px" y="0px"
	 viewBox="0 0 260 260" style="enable-background:new 0 0 260 260;" xml:space="preserve">
<style type="text/css">
	.st0{fill:#6B7FAB;}
	.st1{fill:#B4B8DF;}
	.st2{fill:#7988B8;}
	.st3{fill:#A1A7D0;}
	.st4{fill:none;stroke:#7988B8;stroke-width:1.6;stroke-linecap:round;stroke-linejoin:round;stroke-miterlimit:10;}
	.st5{fill:none;stroke:#7988B8;stroke-width:2;stroke-linecap:round;stroke-linejoin:round;stroke-miterlimit:10;}
	.st6{fill:#7988B8;stroke:#1D1D1B;stroke-width:1.6;stroke-linecap:round;stroke-linejoin:round;stroke-miterlimit:10;}
	.st7{fill:#7988B8;stroke:#1D1D1B;stroke-width:1.6;stroke-linecap:round;stroke-linejoin:round;stroke-miterlimit:10.0008;}
	.st8{fill:#548DE6;}
	.st9{fill:#5F63AD;}
	.st10{fill:none;stroke:#1D1D1B;stroke-width:1.6;stroke-linecap:round;stroke-linejoin:round;stroke-miterlimit:10;}
	.st11{fill:#1D1D1B;}
	.st12{fill:#FFFFFF;}
	.st13{fill:#C2BDC9;}
	.st14{fill:#FFD21D;}
	.st15{fill:#BC7A23;}
	.st16{fill:#5D5852;}
	.st17{fill:#443F38;stroke:#1D1D1B;stroke-width:1.6;stroke-linecap:round;stroke-linejoin:round;stroke-miterlimit:10;}
	.st18{fill:#443F38;}
	.st19{fill:#C6332C;}
	.st20{fill:#892121;}
	.st21{fill:#892121;stroke:#1D1D1B;stroke-width:1.6;stroke-linecap:round;stroke-linejoin:round;stroke-miterlimit:10;}
	.st22{fill:#C6332C;stroke:#1D1D1B;stroke-width:1.6;stroke-linecap:round;stroke-linejoin:round;stroke-miterlimit:10;}
	.st23{fill:none;stroke:#F68A8A;stroke-width:1.6;stroke-linecap:round;stroke-linejoin:round;stroke-miterlimit:10;}
	.st24{fill:#F68A8A;}
	.st25{fill:#E0183B;}
	.st26{fill:#129ECC;}
	.st27{fill:#23B366;}
	.st28{fill:#C6B9B9;}
	.st29{fill:#B896D6;}
	.st30{fill:#85679B;}
	
		.st31{fill:none;stroke:#7988B8;stroke-width:1.6;stroke-linecap:round;stroke-linejoin:round;stroke-miterlimit:10;enable-background:new    ;}
</style>
<g>
	<circle class="st0" cx="130" cy="139.9" r="113.3"/>
	<circle class="st1" cx="130" cy="128.6" r="113.3"/>
	<circle class="st2" cx="130" cy="128.6" r="97.1"/>
	<circle class="st3" cx="130" cy="128.6" r="88"/>
</g>
<g>
	<path class="st2" d="M62.3,109c-0.7,4-2.8,8-5.9,12l-3.9-0.7l-6.1-17.7l-6.9,2.8c0.8-1.5,1.6-3.1,2.5-4.5l3.5-1.4l10.4-4.2l4,0.8
		l1.6,4C62.6,103.2,62.8,106,62.3,109z"/>
	<line class="st4" x1="55.7" y1="115.6" x2="55.7" y2="142.1"/>
</g>
<g>
	<g>
		<g>
			<line class="st5" x1="165.8" y1="82.8" x2="175.9" y2="82.8"/>
			<polygon class="st5" points="197.8,194.5 187.9,199.8 163.4,71.5 173.3,68 			"/>
			<polygon class="st5" points="139.7,196.2 149.6,199.8 174.5,69.1 164.2,68 			"/>
		</g>
		<line class="st5" x1="169.7" y1="102.6" x2="179.7" y2="102.6"/>
		<line class="st5" x1="171.8" y1="112.5" x2="180.9" y2="112.5"/>
		<line class="st5" x1="173.6" y1="122.4" x2="182.9" y2="122.4"/>
		<line class="st5" x1="175.4" y1="132.3" x2="184.8" y2="132.3"/>
		<line class="st5" x1="177.2" y1="142.3" x2="186.1" y2="142.3"/>
		<line class="st5" x1="179.1" y1="152.2" x2="189.1" y2="152.2"/>
		<line class="st5" x1="181.3" y1="162.1" x2="190.5" y2="162.1"/>
		<line class="st5" x1="182.9" y1="172" x2="193" y2="172"/>
		<line class="st5" x1="184.5" y1="181.9" x2="194.6" y2="181.9"/>
		<line class="st5" x1="167.7" y1="92.7" x2="177.7" y2="92.7"/>
	</g>
	<line class="st4" x1="208.4" y1="94.2" x2="208.4" y2="181.7"/>
	<path class="st6" d="M213.4,93.5c7.8-15,11.1-28.6,2.6-42.6l-4.4-7.3l-8-0.3l0.4,4.9l-11.3,6.9l14.1,23.3l-1.4,14.8L213.4,93.5
		L213.4,93.5L213.4,93.5z"/>
	
		<rect x="100.6" y="78.4" transform="matrix(0.855 -0.5187 0.5187 0.855 -21.0749 87.9823)" class="st7" width="92.4" height="6.5"/>
	<path class="st6" d="M205.4,93.3L205.4,93.3l-20.7-38.4l18.9-11.5l4.4,7.3C216.5,64.6,213.6,78.2,205.4,93.3z"/>
</g>
<g>
	<path class="st8" d="M172.1,184.4c-1.4-0.9-31.6-32.4-31.6-32.4s-19.7-17.7-39.4-20.5l-13.2,30.7c9.1,7.6,28.7,22.3,46.3,27.1
		C153.4,194.7,173.5,185.3,172.1,184.4z"/>
	<path class="st9" d="M149.4,160.1c-4.1-3.4-10-11.6-11.6-8c-1.6,3.7,1.8,14.6,3.6,18.2c1.8,3.6-3,2.3-8,2.3s-5.5,3-11.8-0.2
		c-4.4-2.2-17.9-10.3-22.6-13.9l-5,7.9c10.5,8.4,32.6,21.4,33.7,22c1.4,0.7,36-10.9,38.1-11.2C167.9,176.9,153.5,163.5,149.4,160.1z
		"/>
	<path class="st10" d="M117.4,159.3c0,0,8.1,7.4,11.4,11.1"/>
	<path class="st11" d="M110.1,165.1c-0.5,1.3,1.2,3.9,2.9,4.9s0.2,3.2,3.8,5.2s5.5,0.8,5.8,0.3s1.5-0.3,3,0.2s2.4,0.2,2-1.5
		c-0.5-1.7-5-4.7-7.6-5.8s-3-1.2-5.2-2.6C112.7,164.3,110.6,163.9,110.1,165.1z"/>
	<path class="st10" d="M142,154c0,0,15.2,14.9,19.7,21"/>
	<path class="st10" d="M93.4,166.6c0,0,18.5,15.1,30.7,19.3"/>
</g>
<g>
	<path class="st12" d="M163.9,104.4c0,0,10.7,16.8,9.7,26.8c-1,10-14.9-0.1-18.4-3.9c-3.5-3.8-8-9.5-8.6-12.5
		C145.9,112,163.9,104.4,163.9,104.4z"/>
	<path class="st13" d="M155,114.8c0,0,5.7,11.3,7.5,13.1c-3.2,1.7-2.6,6.9-5.3,3.1c-2.7-3.8-10.9-12.3-8.4-13.5
		C151.3,116.2,155,114.8,155,114.8z"/>
	<path class="st10" d="M147.2,120c0,0,9.1,9,12.4,12.3"/>
	<path class="st10" d="M166.5,108.6c0,0,4.2,8.2,5.9,13.7"/>
</g>
<g>
	<path class="st14" d="M180.1,147.8c0,0,1.8,0.1,3.2,0s2.5-1.9,3-5c0.5-3.2-0.6-7-1.8-7.7c-1.2-0.7-7.2-5.9-7.2-5.9
		s-1.2-4.2-1.7-6.8c-9-0.6-16,11.3-16.2,8.3c0.5,2.7,3.9,6.4,3.9,6.4s-3.5,7.4,4,7.8c1.8,3.3,5.4,3,7.2,2.7
		C176.1,149,180.1,147.8,180.1,147.8z"/>
	<path class="st15" d="M164.4,126.6c0,0,2.3,8.5,5.4,9.5c3.2,1,5.2,1.2,7.1,1.6c2,0.6,3.5,3.3,4,4c0.5,0.8,2.5,4.7,5.5,4
		c-0.6,3.2-5.1,4.5-5.3,3.4s-1.1-6.7-2.6-6.6c-1.5,0.2-2.4,0.4-2.4,0.4s-2.8-2.8-3.8-2.5c-1.1,0.3-1.4-0.8-2.9-1.6
		c-1.5-0.8-4.3-0.1-4.3-0.1s-5.9-5.2-5.9-6.6C159.3,130.8,164.4,126.6,164.4,126.6z"/>
	<path class="st10" d="M172.4,137.7c-0.8,0-2.1,4.9-0.7,6.7c1.4,1.8,5,1.4,5,1.4s0-3.5,1.2-4.7C179,139.8,176.6,137.6,172.4,137.7z"
		/>
	<path class="st10" d="M187.4,141.7c-2.4-0.9-4.7,0.6-5.2,2.6c-0.5,2,0.8,4.9,3.6,4.9s3-1.1,3-1.1s-0.9-6.7-0.9-7.9"/>
	<path class="st10" d="M178.5,140.5c1.2-0.8,4.6-0.2,5,1.4"/>
	<path class="st10" d="M176.6,145.6c0.2,1.7,2.6,3.9,6.2,2.6"/>
	<path class="st10" d="M164.1,137.9c0,0-4.7-4.6-4.8-5.1c-0.2-0.5,7.7-10.5,16.7-10.1c0.5,2.6,1.9,6.8,1.9,6.8s6.1,5.1,7.3,5.7
		c1.2,0.6,2.3,4.5,2,7.7c-0.4,3.2-1.5,5-2.8,5.1c-1.3,0.2-3.2,0.1-3.2,0.1"/>
	<path class="st11" d="M166.4,134.9c1.7-1.6,2.2-2.8,4.4-0.4s3.7,5.4,3.7,5.4s-3-0.2-4.4-1.1C168.8,137.9,166.4,134.9,166.4,134.9z"
		/>
	<path class="st11" d="M166,125.3c-0.2,1.5-1.3,2.1,2.3,1.5c3.5-0.7,5.7-1.9,5.8,0.7c0.1,2.6,1.1,2.3,1.7-0.2c0.6-2.4,1.9-4.6-2-4.5
		C169.6,123.1,166,125.3,166,125.3z"/>
</g>
<g>
	<path class="st12" d="M167.7,108c0,0,1.7-2.5-1.2-5c-3-2.5-2-3.5-3.6-4.8s-3.1-0.9-3.1-0.9s-3-8.9-6.6-13.4s-11-11.2-11-11.2
		l-9.3-2.6l1.1,37.4c1.5,1.5,3.5,2.8,5.9,3.5c0.6,3.1,4,9.4,6.7,10.2c2.8,0.8,12.3-4.9,12.3-4.9L167.7,108z"/>
	<path class="st13" d="M141.5,87.8c0,0-3.2,10.7-2,14.3s6.7,5.1,6.7,5.1s4.1-4.1,6.4-3.1c2.2,0.9,1.5,4.7,2.9,5.5
		c1.4,0.9,8-1,9.3,1.7c-5.6,4.7-16,12.6-18.4,10s-6.9-7.5-6.1-9.8c-3.4-2.2-9.4-5.8-9.8-8.2c0.8-5.3,1.8-11.4,2.5-11.9
		C133.7,91.1,141.5,87.8,141.5,87.8z"/>
	<path class="st10" d="M146.5,76.1c0,0,8.7,8.4,13.2,21.8"/>
	<path class="st10" d="M161.8,103.6c0,0,1.6-2.6,1.9-3.4S161,97,161,97s-7.7,6-11.9,8.7c-4.3,2.8-9.3,5.3-9.4,6
		c0,0.8,4.2,8.4,6.5,9.7c2.3,1.3,14.4-5.7,16.9-7.8c2.5-2.2,5.3-6.5,5.4-7.4s-4.6-5.2-4.6-5.2"/>
	<path class="st11" d="M160.4,110.9c-1.6-0.4-3.7,1.5-6.6,2c-2.9,0.6-6.3,1.7-5.2,4.7c1.2,3,5.2,1.8,8.2-0.1
		C159.8,115.7,162,111.4,160.4,110.9z"/>
	<path class="st10" d="M129.5,104.1c2,2.9,6.7,6.4,9.6,7"/>
</g>
<g>
	<path class="st8" d="M94.3,168.2c0.7-7,22.5-23.1,6.1-36.6s-35.9-5.1-35.9-5.1s-14.1,15.8-16.6,19.4c-2.4,3.6-0.6,17.3-0.9,18.2
		c0,0-1.5,2.3-3.4,5.1c5,11.2,12,21.3,20.7,29.8C72.8,191.5,88.7,176.9,94.3,168.2C94.2,168.1,94.2,168.2,94.3,168.2z"/>
	<path class="st9" d="M101.2,158.9c-1.4,0.4-7.2,2.3-13.6,7.6c-7.3,6.2-17.8,15.3-26,13.4c-8.2-1.8-10.3-11.4-10-13
		c0.2-1.6-0.5-13.9,0-18.2s14.8-20.6,14.8-20.6l-1.8-2.3c0,0-12.1,14.9-15.7,18.8c-3.7,3.9-2.3,14.4-1.8,18.2
		c0.2,1.6-1.4,4.2-3.3,6.7c5,11.1,12,21.1,20.6,29.5c0.8,0.8,1.6,1.6,2.5,2.3l7.2-10.7c0,0,15.5-16.9,20.3-23.7
		C94.5,167.4,99.1,162.1,101.2,158.9z"/>
	<path class="st10" d="M102.3,157.6c0,0-20.2,25.8-24.5,28.7"/>
	<path class="st10" d="M64.4,126.5c0,0-14.1,15.8-16.6,19.4c-2.4,3.6-0.5,20.2-0.8,21.1"/>
	<path class="st10" d="M46.7,164c0,0-0.5,2.4-2.6,4.5"/>
	<path class="st10" d="M78,143.1c0,0-18,29.7-26,39.3"/>
	<path class="st10" d="M84.3,152.3c0,0-5.3,4.9-14.3,4.4"/>
	<path class="st11" d="M88.9,168.9c-2.4-0.3-6.8,8.4-12.8,11.4c-5.9,3-10.2,4.4-10,5.5s11.1,1.5,12.9-0.2s9.6-11.7,10.3-13.4
		C90.1,170.5,90.3,169,88.9,168.9z"/>
</g>
<g>
	<path class="st12" d="M138.1,70.1l-43.1-6.1c0,0-14.1,8.4-14.5,10.7c-0.5,2.3-7,18.7-7,18.7s-5.9,12.2-7.5,16
		c-1.7,3.8-4.4,14.5,0.3,18.4c4.7,3.9,17.5,14,33.7,13.4c6.4,2.3,14.1-1.9,14.1-1.9l8.1-10.5c0,0,12-15.4,13-17.7
		c0.2-0.5,0.4-1,0.6-1.6c0.1-0.5,0.3-1,0.4-1.5L136,91.9l9.9-6.1L138.1,70.1z"/>
	<path class="st13" d="M113.5,98.5c0.2-8.4,12-2.8,12-2.8l-4.1-10.3l-11.9-10.7c0,0-29.4,12.8-35.9,19.3c0-0.4-0.1-0.7-0.1-1.1
		c-1.5,5-10.2,16-8.7,32.5c4.6,8.5,16.3,12.4,24.6,14.2c0.6,0.4,1.2,0.7,1.8,0.9c3.6,1.3,12.7,0.8,16.9,0.5c0,0.1,0,0.1,0,0.1
		s0.2-0.1,0.5-0.2c0.9-0.1,1.5-0.1,1.5-0.1s0.1-0.2,0.2-0.4c3.1-1.2,8.2-3.8,9.1-7.9c1.2-6.1-5.2-8.6-6.5-12.3
		C111.4,116.6,113.4,106.9,113.5,98.5z"/>
	<path class="st10" d="M121.5,87.8l4.3,9c0,0,17.2-8.1,19.2-9.6c2.1-1.5,1.5-10.1,1.5-10.1"/>
	<path class="st10" d="M120.7,64.4c0,0-8.7-2.9-19.1-1.5c-10.4,1.5-20,8.7-21.4,13.7c-1.5,4.9-7.2,16.6-7.2,16.6s-5.8,15.2-7.3,17.5
		c-1.7,3.6-2,11.9-1.2,15.1c1.2,2.6,13.6,15.8,35.1,15.4c7.6-0.1,14.9,2.5,23-13c0,0,12.5-17.2,12.7-18.9c0.2-1.8,1-16.3,1-16.3"/>
</g>
<g>
	<path class="st16" d="M207.7,185.3c-6,8.4-13.9,15.8-22.3,21.8l-1-21.8H207.7z"/>
	<polyline class="st10" points="184.3,204.5 184.3,185.3 207,185.3 	"/>
	<path class="st16" d="M200.4,192.6c-4.8,5.4-11.9,9.6-17.8,13.8c-4.6,3.3-11.3,6.9-16.4,9.3h-36.3c2.3,0,4.2-8.2,4.2-18.2
		c0-5-0.5-9.6-1.2-12.9c-0.8-3.3-1.8-5.3-3-5.3h66.4C198.3,179.2,199.9,184.9,200.4,192.6z"/>
	<path class="st16" d="M130.7,197.1c0,1,0,1.9-0.1,2.8c-0.4,5.9-1.8,9.6-1.8,9.6H80.4c-4.2-2.7-9.8-5.8-13.6-9.2
		c-0.8-0.7-2.8-1.5-3.6-2.3c-4-3.9-7.7-8.1-11-12.7h76.5C128.7,185.3,130.7,189.6,130.7,197.1z"/>
	<ellipse class="st17" cx="129.9" cy="197.4" rx="4.2" ry="18.2"/>
	<path class="st18" d="M130.6,199.9c-0.4,5.9-1.8,9.6-1.8,9.6H79.4c-4.2-2.7-9.8-5.5-13.5-8.9c-0.1-0.1-0.6-0.6-0.7-0.7L130.6,199.9
		L130.6,199.9z"/>
	<path class="st18" d="M123.9,186c0,0-0.6,13.8-17.5,13.8s8.4,6.2,8.4,6.2s18,3.9,18-5.5s-1.4-15-1.4-15L123.9,186z"/>
	<path class="st10" d="M53.1,185.3h76c0,0,1.6,4.2,1.6,11.7c0,1,0,1.9-0.1,2.8c-0.4,5.9-1.8,9.6-1.8,9.6H81.1"/>
	<path class="st18" d="M197.4,197c-3.7,3.7-9.1,7.7-13.4,10.7c-4.6,3.3-8.2,5.5-13.3,8h-40.8c2.3,0,4.2-8.2,4.2-18.2V197H197.4z"/>
	<path class="st10" d="M200.6,193.1c-0.4-8.2-2.4-13.9-4.3-13.9h-66.4l0,0c2.3,0,4.2,8.2,4.2,18.2s-1.9,18.2-4.2,18.2h39"/>
</g>
<g>
	<path class="st19" d="M144.8,176.5v5.2c0,2.9,8.9,5.2,19.9,5.2s19.9-2.3,19.9-5.2v-5.2H144.8z"/>
	<path class="st20" d="M161.6,181.9v5.2c0,0-15.2-0.9-16.6-4.6c-0.2-3.8,0.2-4.8,0.2-4.8S152.9,182,161.6,181.9z"/>
	<path class="st10" d="M144.8,176.5v5.2c0,2.9,8.9,5.2,19.9,5.2s19.9-2.3,19.9-5.2v-5.2H144.8z"/>
	<ellipse class="st19" cx="164.7" cy="176.4" rx="19.9" ry="5.2"/>
	<path class="st20" d="M155.9,181.1c0,0,2.5-6.4,17.1-9.3c-9.2-1.3-28-0.1-28.2,4.6C148,180.1,155.9,181.1,155.9,181.1z"/>
	<ellipse class="st10" cx="164.7" cy="176.4" rx="19.9" ry="5.2"/>
	<path class="st21" d="M152.4,176.8c-1.4,0-2.5,0-2.5-1.4v-14.2c0-0.9,0.5-1.7,1.2-2.1l11.6-6.7c1.2-0.7,2.7-0.3,3.4,0.9
		s0.3,2.7-0.9,3.4l-10.4,6v12.8C154.8,176.8,153.7,176.8,152.4,176.8z"/>
	<path class="st22" d="M177.4,176.8c1.4,0,2.5,0,2.5-1.4v-14.2c0-0.9-0.5-1.7-1.2-2.1l-11.6-6.7c-1.2-0.7-2.7-0.3-3.4,0.9
		s-0.3,2.7,0.9,3.4l10.4,6v12.8C175,176.8,176.1,176.8,177.4,176.8z"/>
	<path class="st19" d="M167.9,176c0,0-1,1-3.3,1s-3.4-1-3.4-1v-38.2h6.7V176z"/>
	<rect x="161.2" y="140.6" class="st20" width="3.5" height="36.3"/>
	<path class="st10" d="M167.9,176c0,0-1,1-3.3,1s-3.4-1-3.4-1v-38.2h6.7V176z"/>
	<line class="st10" x1="161.4" y1="172.9" x2="167.9" y2="170"/>
	<line class="st10" x1="161.4" y1="164.6" x2="167.9" y2="161.7"/>
	<line class="st10" x1="161.4" y1="155.3" x2="167.9" y2="152.3"/>
	<line class="st10" x1="161.4" y1="149.1" x2="167.9" y2="146.2"/>
	<polyline class="st23" points="174.7,159 177.7,160.7 177.7,173.6 	"/>
	<path class="st19" d="M164.6,135.1c-17.9,0-32.4,5-32.4,11.2s14.5,11.2,32.4,11.2s32.4-5,32.4-11.2S182.5,135.1,164.6,135.1z
		 M164.6,153.3c-14.8,0-26.8-3.2-26.8-7c0-3.9,12-7,26.8-7s26.8,3.2,26.8,7C191.4,150.2,179.4,153.3,164.6,153.3z"/>
	<path class="st10" d="M164.7,135.1c-17.9,0-32.4,5-32.4,11.2s14.5,11.2,32.4,11.2s32.4-5,32.4-11.2
		C197,140.1,182.5,135.1,164.7,135.1z M164.7,153.3c-14.8,0-26.8-3.2-26.8-7c0-3.9,12-7,26.8-7s26.8,3.2,26.8,7
		C191.4,150.2,179.4,153.3,164.7,153.3z"/>
	<path class="st23" d="M163.4,155.5c11.3,0.2,30.2-2.9,30.4-10"/>
	<path class="st22" d="M172,136.7c0,0,17,9.8,18.4,10.8c-0.8,1.5-2.7,1.9-2.7,1.9l-16.7-10C170.9,139.4,172.2,138.1,172,136.7z"/>
	<path class="st22" d="M169.6,139.9l7.7,12.5c0,0-1.3,0.5-3.6,0.6c-1.9-3.9-6.7-12.3-6.7-12.3S167.6,140.9,169.6,139.9z"/>
	<path class="st21" d="M159.8,139.9l-8.1,12.5c0,0,1.7,0.5,4,0.6c1.9-3.9,6.7-12.3,6.7-12.3S161.7,140.9,159.8,139.9z"/>
	<path class="st21" d="M157.1,136.7c0,0-17.3,9.8-18.8,10.8c0.8,1.5,2.7,1.9,2.7,1.9l17.1-10.4C158.2,139.1,156.9,137.7,157.1,136.7
		z"/>
	<ellipse class="st22" cx="164.6" cy="137.2" rx="7.3" ry="3.5"/>
	<ellipse class="st24" cx="165.5" cy="136.7" rx="2.3" ry="1"/>
</g>
<g>
	<path class="st12" d="M91.8,125.1c3.1-2.7,15.7-2.8,25.7,0.7c10,3.6,16.9,5.1,16.9,9.8c0,4.7-14.1,11.2-17.6,10.3
		s-25.7-9.9-30-16.2C82.5,123.4,91.8,125.1,91.8,125.1z"/>
	<path class="st13" d="M117.7,140.1c0,0-20.3-10.8-22.5-18c-3.9,0.9-10.3,6-10.3,6s9.3,9.1,17.5,12.2c8.2,2.9,13.2,4.7,13.2,4.7
		L117.7,140.1z"/>
	<path class="st14" d="M143.1,149c1.9-1.7,2-5.8,0.8-8.7c-1.2-2.7-4.9-4.6-8.5-6.3c-3.5-1.7-7.2-4-7.2-4s-11.2,6-14.3,18
		c6.2,0.7,8.4,0.8,8.4,0.8s-1.6,11.6,9.9,9.8c3.4,1.9,6.4,1.3,7.9,0.2c3.2,1,4.9-1.1,4.9-1.1L143.1,149z"/>
	<path class="st15" d="M118.7,139.5c0,0,1.9,3.4,4.7,3.8c2.7,0.5,2.5,7,3.1,8.9c0.5,1.8,2.8,2.2,3.9,1.3c1-0.9,3.2,2,4.5,2.3
		c1.3,0.2,1.8-0.8,1.8-0.8s1.8,0.7,4.1,0.3c2.3-0.4,3.4-1.3,3.4-1.3s2.7,4.1-0.5,5c-3.2,0.9-4.3-0.6-4.3-0.6s-3.7,2.8-7.1-0.7
		c-3.4,1.6-8.4,0.9-8.8-2.9c-0.4-3.8-0.5-5.9-0.5-5.9l-9.6-1.2C113.8,147.6,116.8,141.1,118.7,139.5z"/>
	<path class="st10" d="M122.4,148.9c0,0-2.1-0.2-8.4-0.8c3.1-12,14.3-18,14.3-18s3.6,2.2,7.2,4c3.5,1.7,7.2,3.5,8.5,6.3
		c1.2,2.7,1,6.8-0.8,8.7"/>
	<path class="st10" d="M123.2,145.5c0,0-0.5,5.9,0.6,9.7c1.2,3.8,7.2,3.4,8.5,2.9"/>
	<path class="st10" d="M129.9,152.3c0,0,0.9,5.8,4.4,7c3.6,1.1,5.3-0.3,5.3-0.3"/>
	<path class="st10" d="M135.4,153.3c0,0,3.6,5.8,6.2,6.2c2.6,0.4,4.2-1.5,4.2-1.5s-2.3-5.2-3-7.6S141,146,141,146"/>
	<path class="st10" d="M109.2,122.5c0,0,16.6,6.2,18.3,7.9"/>
	<path class="st10" d="M88.7,131.2c0,0,12.3,9.9,25.9,14"/>
	<path class="st11" d="M129.4,144.1c-0.3-2.1-1.6-2.4-4.8-1.7c-3,0.7-7.4-0.7-8.1,0.7c-0.7,1.4-0.5,2,2.2,2.5
		c2.7,0.5,2.8,1.6,5.9,2.4C127.9,148.8,129.7,145.4,129.4,144.1z"/>
</g>
<g>
	<path class="st12" d="M113.3,122.9l-4.2-6.9l-2.2-3.6c0,0,2.5-10.5-1.6-22.4s-7.6-26-15.1-24.6c-7.5,1.3-19,11-19.3,12.8
		c-0.3,1.7,1,17.8,3.9,27.2s7.1,15.7,7.1,15.7s0.9,8.3,3.4,10.9c2.5,2.7,2.6,3.8,7.3,1c4.7-2.8,10-5.4,14.3-6.5
		C111.3,125.4,113.3,122.9,113.3,122.9z"/>
	<path class="st13" d="M109.1,87.2c0,0-16.2-9.7-19.1-10.6c-2.8-0.9-9.2,5.3-9.9,6.9c-0.7,1.6-1.1,16.2,4.7,24.2
		c5.8,8.1,11.9,8.1,11.9,8.1s2.9-0.1,3.3,0.8c0.4,1.1-12.4,8.1-11.7,9c0.7,1,2.2,1.2,6.9,0.6c4.7-0.5,10.6-2.6,12.8-1.4
		c-3.3,1.6-9.7,4.9-14.2,7.2s-5.8,4.2-8.3-0.3c-2.5-4.4-4.1-10.4-4.1-12.7c-1.7-1.9-13.6-27-10.7-40.6c5.2-5.9,16.7-16,20.7-16.4
		C95.6,61.8,109.1,87.2,109.1,87.2z"/>
	<path class="st10" d="M89.5,62.2c0,0-16.9,14.6-18.8,16.3c-0.2,6.3,1.9,30.1,11.3,42.1"/>
	<path class="st10" d="M105.9,91.9c0,0,4.1,12.4,1.5,19.4"/>
	<path class="st10" d="M82.1,121.1c-0.3-2.8,7.6-1.7,13.3-4.4c5.6-2.6,9.3-6.1,11.3-5.2s2.6,5.3,2.6,5.3s3.6,2.8,3.9,5.1
		c0.3,2.3-3.6,3-9.2,5.1c-5.6,2.1-11.6,6.2-13.7,7.4C88.2,135.6,83.4,132.1,82.1,121.1z"/>
	<path class="st10" d="M105.2,118.8c0,0,2.8-0.8,4.1-2"/>
	<path class="st11" d="M93.7,98.8c-1,0.2,0.9,5.5-1,7c-2,1.4-7.1,5.2-5.7,7.4c1.3,2.2,5.6-0.3,5.6-0.3s-5,5-7,6.1
		c3.6-0.4,7.8-1.4,9.4-2.8s2.6-5.3,2.4-7.1C98.1,106.4,98,97.6,93.7,98.8z"/>
	<path class="st11" d="M107.8,119.7c-0.2-1.7-5.7-0.8-7.7,0.3s-2.7,5.3-0.9,4.7C101.1,124,108.1,121.6,107.8,119.7z"/>
</g>
<g>
	<path class="st25" d="M75.6,96.5c0,0,9.1,3.4,18.6,0.3C94.1,93,94,84.6,94,84.6s-9.9,2.2-19.1-0.2C74.4,90,75.6,96.5,75.6,96.5z"/>
	<path class="st26" d="M74.9,84.6c-0.1,1.4-0.2,2.8-0.1,4.2h0.1c0,0,6,2.7,19.1,0.1c0-2.3,0-4.2,0-4.2S84,86.9,74.9,84.6z"/>
	<path class="st27" d="M75.1,93.3c0.2,2.6,0.5,3.4,0.5,3.4s9.1,3.4,18.6,0.3c-0.1-1.2,0-1.8-0.1-3.5C84.2,95.1,78,94,75.1,93.3z"/>
	<path class="st10" d="M75.6,96.5c0,0,9.1,3.4,18.6,0.3C94.1,93,94,84.6,94,84.6s-9.9,2.2-19.1-0.2C74.4,90,75.6,96.5,75.6,96.5z"/>
	<path class="st28" d="M84,93.5c-0.7,0-1.3-0.6-1.3-1.2c0-0.7,0.6-1.3,1.2-1.3c0.3,0,0.5,0.1,0.7,0.2c-0.3-0.3-0.7-0.5-1.1-0.5
		c-0.9,0-1.5,0.7-1.6,1.5c0,0.8,0.7,1.5,1.5,1.6c0.5,0,0.9-0.2,1.2-0.5C84.5,93.4,84.4,93.5,84,93.5z"/>
	<polygon class="st28" points="85,91.4 85.1,91.9 85.6,91.6 85.3,92 85.9,92.2 85.4,92.4 85.6,92.8 85.2,92.7 85,93.1 84.8,92.6 
		84.4,92.8 84.6,92.4 84.2,92.2 84.5,92.1 84.4,91.6 84.8,91.8 	"/>
</g>
<g>
	<path class="st29" d="M157,61.4c5.1-29.5-10.8-46.6-10.8-46.6s-4.7-2.1-10.6-1.8l0,0.1c-4.1-2.9-8.7-5-8.7-5s-31,10.1-42,45.8
		c4,0.6,3.8-2.1,4.7-1.9l-1.1,9.6c-0.1,3.5,0.4,4.9,3.4,9c6.9,9.8,17.2,17.7,18.1,18.3c1.1,1.7,2.3,3.4,3.6,4.9
		c6.3-2.4,20.9-6.7,28.2-15.6l0,0.3C147.7,75.1,154.1,69.6,157,61.4z"/>
	<path class="st30" d="M108.1,85.5c0,0-8.3-5.2-15.6-14c-7.1-7.9-2.6-14.6-2.8-17.9c-1.6,0.7-3.1,0.7-4.5-0.3
		c1.5-7,3.6-14.5,6.7-19.9c7.4-13,18.5-20.1,24.9-22.9c-5.2,4.2-19.3,19-24.2,28.8C90.8,45,91.7,47,91.7,47s-2.9,11.3,2.7,20
		c5.1,7.6,11.5,13.2,11.5,13.2S108.7,86.4,108.1,85.5z"/>
	<path class="st10" d="M92.8,48.3c-2.9,5.3-7.4,12.1-0.3,22.3C99.6,80.9,110,89,110,89"/>
	<path class="st10" d="M105.9,80c0,0,2.6,8.1,7.7,13.9c7.3-2.8,25.6-7.9,31.1-20"/>
	<path class="st10" d="M135.7,13.1c5.8-0.3,10.6,1.8,10.6,1.8s15.8,17,10.8,46.6c-2.8,8.2-9.2,13.7-15.2,17.2"/>
	<path class="st30" d="M92.1,32.3c-1.8,0.1-4,1-5.4,0.2c5.7-6.8,10.4-10.5,13.4-10.1C103.2,22.9,95,33,95,33S93.7,32.9,92.1,32.3"/>
	<path class="st10" d="M100.7,20.7c0,0-10.4,7-14.2,12.1c2.1,0.7,5.7-0.2,5.7-0.2S86,43,85.1,53.8c4.3,0.1,4.2-0.2,4.2-0.2"/>
	<path class="st11" d="M103.2,71.5c-1.5,0.4,1.7,5.2,0,5.6c-1.7,0.5-5.4-0.6-5.2,0.8c0.3,1.4,7.2,7.4,9.3,9c2.2,1.8,4.4,5,4.6,3.4
		c0.2-1.5-2.8-6.2-3.5-10.5C107.8,75.2,104.8,71,103.2,71.5z"/>
	<path class="st12" d="M116.8,24.9c0,0,9.5-2.3,20.3,2.4C151,33.4,151.8,43,148,62.8c-7.3,10.2-15.6,10.8-15.6,10.8s-4,5-11,2.8
		c-8.1-2.5-8.4-10.5-8.4-10.5s-10.2-5.7-13.1-15.7C104.3,36.9,116.8,24.9,116.8,24.9z"/>
	<path class="st13" d="M117.2,25.3c0,0,4.5-0.9,2.1,4.8c-3.4,4.1-10.3,13-11.8,19.1c1.1,4.4,4.4,11.1,8.5,14.5
		c-0.1,3.1,0.4,9.1,3.7,11.9c-7.5-3.2-7.2-9.8-7.2-9.8s-12.2-7.1-13-15.7C104.8,36.2,117.2,25.3,117.2,25.3z"/>
	<path class="st10" d="M101.2,35.4c-1.7-1.5-1.8-4.3-0.3-6c1.5-1.9,4-2.1,5.7-0.7"/>
	<path class="st10" d="M116.8,24.9c0,0,9.5-2.3,20.3,2.4C151,33.4,151.8,43,148,62.8c-7.3,10.2-15.6,10.8-15.6,10.8s-4,5-11,2.8
		c-8.1-2.5-8.4-10.5-8.4-10.5s-10.4-4.6-13.2-14.6C104.1,38.1,116.8,24.9,116.8,24.9z"/>
	<path class="st11" d="M109.7,52.8c-1.1-0.7-4.6,0.3-5,2.9c-0.4,2.4,0.9,5.8,3.6,7.3c2.8,1.6,4.9,1.5,4.1,0c-0.8-1.6-3.2-3.4-3-5.5
		C109.9,55.5,111,53.6,109.7,52.8z"/>
	<path class="st10" d="M115.2,39.1l11.5,4.6c0,0,2.3-8.5-6.1-11.5"/>
	<path class="st10" d="M126.7,43.8c-0.9,2.8-3.8,4.5-6.4,3.5c-2.6-0.9-4-3.8-3-6.7"/>
	
		<ellipse transform="matrix(0.3118 -0.9501 0.9501 0.3118 41.1772 147.5596)" class="st11" cx="122.5" cy="45.4" rx="1.5" ry="1.4"/>
	<line class="st10" x1="141.8" y1="40" x2="146" y2="39.6"/>
	<line class="st10" x1="147.8" y1="49.7" x2="140.2" y2="49"/>
	<path class="st10" d="M147.8,50c-0.3,2.7-2.7,4.6-5.1,4.2c-1.2-0.2-2.3-0.9-2.9-1.8"/>
	
		<ellipse transform="matrix(0.3118 -0.9501 0.9501 0.3118 48.9333 172.5807)" class="st11" cx="143.6" cy="52.5" rx="1.5" ry="1.4"/>
	<path class="st10" d="M117.6,60.9l3.1,2.5c0,0,8.8-4.6,10.8-6c1,2.9,1.5,5.2,1.5,5.2"/>
	<path class="st10" d="M131.8,67.4c0,0-2.8,1.6-5.5,1.5"/>
	<path class="st10" d="M140.2,40c0,0,1.1,7.8-1.4,16.3"/>
	<path class="st11" d="M125.8,52.3c-0.3-0.2-0.7,0.3-0.5,0.7c1.1,2.3,3.2,4.1,5.8,5c2.6,0.8,5.3,0.6,7.7-0.6c0.4-0.1,0.3-0.7,0-0.8
		L125.8,52.3z"/>
	<path class="st14" d="M155.4,31.3c5.6,7.4-0.3,11-19.4,7.3c-23.4-4.6-36-18.9-36-18.9s6.5-21.3,32-16.4
		C157.1,8,155.4,31.3,155.4,31.3z"/>
	<path class="st15" d="M127.5,2.5c0,0-12.6,6.2-16,20c-3.1,0.9-3.6,4.6-3.6,4.6s-8.5-6.7-7.8-8.3C100.7,17.3,106.2,1.7,127.5,2.5z"
		/>
	<path class="st10" d="M155.4,31.3c5.6,7.4-0.3,11-19.4,7.3c-23.4-4.6-36-18.9-36-18.9s6.5-21.3,32-16.4
		C157.1,8,155.4,31.3,155.4,31.3z"/>
	<path class="st10" d="M105.2,18.5c0,0,14.4,12.4,29.9,14.1c15.6,1.7,17.1,0.3,17.1,0.3"/>
	<path class="st10" d="M110.7,10.5c0,0,11.2,5,10.3,7.3s-10.1-3.2-12.2-3.8"/>
	<path class="st10" d="M134.4,6.5c0,0,8,4.3,8.9,15.7c0.7-6.9-0.9-12-0.9-12"/>
</g>
<path class="st31" d="M225.9,128.6c0,52.7-40.7,95.4-96.7,95.4c-54.1,0-95.4-42.7-95.4-95.4"/>
</svg>
