<svg width="189" height="188" viewBox="0 0 189 188" fill="none" xmlns="http://www.w3.org/2000/svg">
<g opacity="0.5">
<path d="M94.4998 180.41C139.746 180.41 176.424 143.731 176.424 98.4852C176.424 53.2394 139.746 16.5605 94.4998 16.5605C49.2541 16.5605 12.5752 53.2394 12.5752 98.4852C12.5752 143.731 49.2541 180.41 94.4998 180.41Z" fill="#9B9B9B"/>
<path d="M94.4998 171.443C139.746 171.443 176.424 134.764 176.424 89.5184C176.424 44.2727 139.746 7.59375 94.4998 7.59375C49.2541 7.59375 12.5752 44.2727 12.5752 89.5184C12.5752 134.764 49.2541 171.443 94.4998 171.443Z" fill="#DBDBDB"/>
<path d="M94.4999 157.27C131.918 157.27 162.252 126.936 162.252 89.5179C162.252 52.0994 131.918 21.7656 94.4999 21.7656C57.0813 21.7656 26.7476 52.0994 26.7476 89.5179C26.7476 126.936 57.0813 157.27 94.4999 157.27Z" fill="#B7B7B7"/>
<path d="M94.4999 152.282C129.163 152.282 157.263 124.182 157.263 89.5189C157.263 54.8558 129.163 26.7559 94.4999 26.7559C59.8368 26.7559 31.7368 54.8558 31.7368 89.5189C31.7368 124.182 59.8368 152.282 94.4999 152.282Z" fill="#CCCCCC"/>
<path d="M94.4998 109.185C85.8229 109.185 78.8091 102.172 78.8091 93.4947V85.8301C78.8091 83.9501 80.3275 82.5039 82.1352 82.5039H106.792C108.672 82.5039 110.118 84.0224 110.118 85.8301V93.4947C110.191 102.172 103.177 109.185 94.4998 109.185Z" stroke="#9B9B9B" stroke-width="3.61538" stroke-miterlimit="10"/>
<path d="M85.8953 82.2871V77.4425C85.8953 72.6702 89.7276 68.8379 94.4999 68.8379C99.2722 68.8379 103.104 72.6702 103.104 77.4425V82.2871" stroke="#9B9B9B" stroke-width="3.61538" stroke-miterlimit="10"/>
<path d="M94.4998 95.8809C96.3767 95.8809 97.8982 94.3594 97.8982 92.4824C97.8982 90.6055 96.3767 89.084 94.4998 89.084C92.6229 89.084 91.1013 90.6055 91.1013 92.4824C91.1013 94.3594 92.6229 95.8809 94.4998 95.8809Z" fill="#9B9B9B"/>
<path d="M94.4999 100.508C93.6323 100.508 92.9092 99.7847 92.9092 98.917V93.8555H96.0907V98.917C96.0907 99.7847 95.3676 100.508 94.4999 100.508Z" fill="#9B9B9B"/>
</g>
</svg>
