<?xml version="1.0" encoding="utf-8"?>
<!-- Generator: Adobe Illustrator 27.0.0, SVG Export Plug-In . SVG Version: 6.00 Build 0)  -->
<svg version="1.1" id="Layer_1" xmlns="http://www.w3.org/2000/svg" xmlns:xlink="http://www.w3.org/1999/xlink" x="0px" y="0px"
	 viewBox="0 0 260 260" style="enable-background:new 0 0 260 260;" xml:space="preserve">
<style type="text/css">
	.st0{fill:#6DA671;}
	.st1{fill:#B7E2B5;}
	.st2{fill:#83B281;}
	.st3{fill:#A4D3A2;}
	.st4{clip-path:url(#SVGID_00000160165113193998300680000006363899978487568824_);}
	.st5{opacity:0.42;fill:#83B281;enable-background:new    ;}
	.st6{fill:#A8875E;}
	.st7{fill:#96734D;}
	.st8{fill:#CEAB86;}
	.st9{fill:#1D1D1B;}
	.st10{fill:#C19C7A;}
	.st11{fill:#7C5835;}
	.st12{fill:#CE8D6A;}
	.st13{fill:#FFFFFF;}
	.st14{fill:#E2DDE8;}
	.st15{fill:#DBAE82;}
	.st16{fill:#A8875E;stroke:#1D1D1B;stroke-width:1.8;stroke-linecap:round;stroke-linejoin:round;stroke-miterlimit:10;}
	.st17{fill:#FECE00;}
	.st18{fill:none;stroke:#DD983C;stroke-width:1.8;stroke-linecap:round;stroke-linejoin:round;stroke-miterlimit:10;}
	.st19{fill:#86684A;}
	.st20{fill:none;stroke:#6B5037;stroke-width:1.8;stroke-linecap:round;stroke-linejoin:round;stroke-miterlimit:10;}
	.st21{fill:#FCB400;}
	.st22{fill:#C1C4B5;}
	.st23{fill:none;stroke:#FFE67B;stroke-width:1.8;stroke-linecap:round;stroke-linejoin:round;stroke-miterlimit:10;}
	.st24{fill:none;stroke:#5E4D37;stroke-width:1.8;stroke-linecap:round;stroke-linejoin:round;stroke-miterlimit:10;}
	.st25{fill:none;stroke:#1D1D1B;stroke-width:1.8;stroke-linecap:round;stroke-linejoin:round;stroke-miterlimit:10;}
	.st26{fill:#FECE00;stroke:#DD983C;stroke-width:1.8;stroke-linecap:round;stroke-linejoin:round;stroke-miterlimit:10;}
	.st27{fill:#DD983C;}
	.st28{fill:#D65F0D;stroke:#9B4329;stroke-width:1.8;stroke-linecap:round;stroke-linejoin:round;stroke-miterlimit:10;}
	.st29{display:none;fill:#FFFFFF;}
	.st30{opacity:0.41;enable-background:new    ;}
	.st31{fill:#CE9C76;}
	.st32{fill:#B896D6;}
	.st33{fill:#A67EC9;}
</style>
<g>
	<circle class="st0" cx="130" cy="137.9" r="113.3"/>
	<circle class="st1" cx="130" cy="126.6" r="113.3"/>
	<circle class="st2" cx="130" cy="126.6" r="97.1"/>
	<circle class="st3" cx="130" cy="126.6" r="88"/>
</g>
<g>
	<g>
		<g>
			<defs>
				<path id="SVGID_1_" d="M265.4,130.9c0,83.5-48.1,99.8-128.5,99.8c-55.2,0-99.8-44.7-99.8-99.8C-6,85.2,63,13.9,136.9,13.9
					C192,13.9,265.4,75.8,265.4,130.9z"/>
			</defs>
			<clipPath id="SVGID_00000030479589285892159910000000839062058009959858_">
				<use xlink:href="#SVGID_1_"  style="overflow:visible;"/>
			</clipPath>
			<g style="clip-path:url(#SVGID_00000030479589285892159910000000839062058009959858_);">
				<ellipse class="st5" cx="130.2" cy="204.7" rx="77.2" ry="6.5"/>
				<g>
					<g>
						<ellipse class="st6" cx="68.9" cy="189" rx="16.5" ry="17"/>
					</g>
					<g>
						<path class="st7" d="M73.2,200.8c-9.2,0-16.5-7.7-16.5-17c0-2.9,0.7-5.5,1.9-7.9c-3.7,3.1-6.2,7.9-6.2,13.2
							c0,9.4,7.3,17,16.5,17c6.4,0,11.8-3.7,14.6-9.1C80.8,199.3,77.1,200.8,73.2,200.8z"/>
					</g>
					<g>
						<ellipse class="st8" cx="68.9" cy="189" rx="8.9" ry="9.2"/>
						<path class="st9" d="M68.9,199.1c-5.4,0-9.8-4.5-9.8-10.1s4.4-10.1,9.8-10.1s9.8,4.5,9.8,10.1S74.3,199.1,68.9,199.1z
							 M68.9,180.7c-4.4,0-8,3.7-8,8.3s3.6,8.3,8,8.3s8-3.7,8-8.3S73.3,180.7,68.9,180.7z"/>
					</g>
					<g>
						<ellipse class="st10" cx="68.9" cy="189" rx="4.5" ry="4.7"/>
					</g>
					<g>
						<path class="st9" d="M69,183c-0.1,0-0.2,0-0.3,0c-1.2-0.2-2.3-1.4-2.4-2.7c0-0.5,0.3-0.9,0.8-1c0.5,0,0.9,0.3,1,0.8
							c0,0.5,0.5,1,0.8,1c0.2,0,0.5-0.3,0.7-1c0.2-0.5,0.7-0.7,1.1-0.6c0.5,0.2,0.7,0.7,0.6,1.1C70.8,182.7,69.7,183,69,183z"/>
					</g>
					<g>
						<path class="st9" d="M70.6,198.8c-0.5,0-0.9-0.4-0.9-0.8c0-0.5-0.5-1-0.8-1c-0.2,0-0.5,0.3-0.7,1c-0.2,0.5-0.7,0.7-1.1,0.6
							c-0.5-0.2-0.7-0.7-0.6-1.1c0.8-2.2,2.1-2.2,2.7-2.2c1.2,0.2,2.3,1.4,2.4,2.7C71.5,198.3,71.2,198.8,70.6,198.8
							C70.6,198.8,70.6,198.8,70.6,198.8z"/>
					</g>
					<g>
						<path class="st9" d="M77.5,191.6c-0.1,0-0.2,0-0.3,0c-2.2-0.8-2.2-2.1-2.2-2.7c0.2-1.2,1.4-2.3,2.7-2.4c0.5,0,0.9,0.3,1,0.8
							s-0.3,0.9-0.8,1c-0.5,0-1,0.5-1,0.8c0,0.2,0.3,0.5,1,0.7c0.5,0.2,0.7,0.7,0.6,1.1C78.2,191.4,77.9,191.6,77.5,191.6z"/>
					</g>
					<g>
						<path class="st11" d="M68.9,172c-9.2,0-16.5,7.7-16.5,17s7.3,17,16.5,17s16.5-7.7,16.5-17S78.1,172,68.9,172z M69.2,204.6
							c-8.5,0-15.5-7.1-15.5-16s6.9-16,15.5-16c8.5,0,15.5,7.1,15.5,16C84.6,197.3,77.7,204.6,69.2,204.6z"/>
					</g>
					<g>
						<path class="st9" d="M60.2,191.5c-0.5,0-0.9-0.4-0.9-0.8c0-0.5,0.3-0.9,0.8-1c0.5,0,1-0.5,1-0.8c0-0.2-0.3-0.5-1-0.7
							c-0.5-0.2-0.7-0.7-0.6-1.1c0.2-0.5,0.7-0.7,1.1-0.6c2.2,0.8,2.2,2.1,2.2,2.7C62.8,190.3,61.6,191.4,60.2,191.5
							C60.2,191.5,60.2,191.5,60.2,191.5z"/>
					</g>
					<g>
						<path class="st9" d="M74.9,185.5c-0.9,0-1.5-0.5-1.7-0.8c-0.8-1-0.7-2.6,0.2-3.6c0.3-0.4,0.9-0.4,1.3-0.1
							c0.4,0.3,0.4,0.9,0.1,1.3c-0.3,0.4-0.4,1.1-0.2,1.4c0.1,0.2,0.6,0.1,1.2-0.1c0.4-0.2,1,0,1.2,0.4c0.2,0.4,0,1-0.4,1.2
							C75.9,185.4,75.4,185.5,74.9,185.5z"/>
					</g>
					<g>
						<path class="st9" d="M63.9,197.3c-0.2,0-0.4-0.1-0.6-0.2c-0.4-0.3-0.4-0.9-0.1-1.3c0.3-0.4,0.4-1.1,0.2-1.4
							c-0.1-0.2-0.6-0.1-1.2,0.1c-0.4,0.2-1,0-1.2-0.4c-0.2-0.4,0-1,0.4-1.2c2-1,3-0.1,3.4,0.4c0.8,1,0.7,2.6-0.2,3.6
							C64.4,197.2,64.2,197.3,63.9,197.3z"/>
					</g>
					<g>
						<path class="st9" d="M73.8,197.2c-0.3,0-0.7-0.2-0.8-0.5c-1-2-0.1-3,0.4-3.4c1-0.7,2.6-0.7,3.6,0.2c0.4,0.3,0.4,0.9,0.1,1.3
							c-0.3,0.4-0.9,0.4-1.3,0.1c-0.4-0.3-1.1-0.4-1.4-0.2c-0.2,0.1-0.1,0.6,0.1,1.2c0.2,0.4,0,1-0.4,1.2
							C74.1,197.2,73.9,197.2,73.8,197.2z"/>
					</g>
					<g>
						<path class="st9" d="M63,185.3c-0.7,0-1.5-0.2-2-0.7c-0.4-0.3-0.4-0.9-0.1-1.3c0.3-0.4,0.9-0.4,1.3-0.1
							c0.4,0.3,1.1,0.4,1.4,0.2c0.2-0.1,0.1-0.6-0.1-1.2c-0.2-0.4,0-1,0.4-1.2c0.4-0.2,1,0,1.2,0.4c1,2,0.1,3-0.4,3.4
							S63.6,185.3,63,185.3z"/>
					</g>
					<g>
						<ellipse class="st8" cx="68.9" cy="189" rx="2.2" ry="2.2"/>
					</g>
					<g>
						<path class="st9" d="M68.9,206.9c-9.6,0-17.4-8-17.4-17.9s7.8-17.9,17.4-17.9s17.4,8,17.4,17.9S78.5,206.9,68.9,206.9z
							 M68.9,172.9c-8.6,0-15.6,7.2-15.6,16.1s7,16.1,15.6,16.1s15.6-7.2,15.6-16.1S77.5,172.9,68.9,172.9z"/>
					</g>
				</g>
				<g>
					<g>
						<path class="st12" d="M134.6,107.3c0,0-0.6-6.1,4.2-14.1c1.8-3.1,8.3-8.7,8.3-8.7s-1.9-0.6-3.6-2.1c1.3-1.1,5.6-3,5.6-3
							s2.1-1.2,7.1-1.4c5-0.2,5.4,0.2,5.4,0.2l1-4c0,0,5,0.7,9.3,1.4c4.3,0.7,7.1,5.4,7.1,5.4c3.5,5.3,4.9,17.1,5.3,24.1"/>
						<path class="st9" d="M134.6,108.2c-0.5,0-0.8-0.3-0.9-0.8c0-0.3-0.6-6.5,4.3-14.7c1.4-2.4,5.5-6.2,7.4-8
							c-0.7-0.4-1.7-0.9-2.5-1.7c-0.2-0.2-0.3-0.4-0.3-0.7c0-0.3,0.1-0.5,0.3-0.7c1.4-1.2,5.4-2.9,5.8-3.1c0,0,2.3-1.3,7.4-1.5
							c2.5-0.1,3.9-0.1,4.8,0l0.8-3.2c0.1-0.4,0.5-0.7,1-0.7c0,0,5.1,0.7,9.3,1.4c4.7,0.8,7.6,5.6,7.7,5.8
							c4.1,6.2,5.2,20.3,5.4,24.5c0,0.5-0.4,0.9-0.8,0.9c-0.5,0-0.9-0.4-0.9-0.8c-0.5-8.4-2.1-19-5.2-23.7c0-0.1-2.7-4.4-6.5-5
							c-3.2-0.5-6.9-1.1-8.5-1.3l-0.8,3.2c-0.1,0.3-0.3,0.6-0.6,0.6c-0.2,0.1-0.5,0-0.7-0.1c-0.2,0-1.2-0.2-4.9-0.1
							c-4.7,0.2-6.7,1.3-6.7,1.3c-1,0.4-3.1,1.4-4.5,2.3c1.2,0.8,2.3,1.2,2.3,1.2c0.3,0.1,0.5,0.4,0.6,0.7c0.1,0.3,0,0.6-0.3,0.9
							c-0.1,0.1-6.4,5.5-8.1,8.5c-4.6,7.6-4.1,13.5-4.1,13.6C135.5,107.7,135.2,108.1,134.6,108.2
							C134.7,108.2,134.6,108.2,134.6,108.2z M161.2,79L161.2,79L161.2,79z M161,78.8C161,78.8,161,78.8,161,78.8
							C161,78.8,161,78.8,161,78.8z M161,78.8C161,78.8,161,78.8,161,78.8C161,78.8,161,78.8,161,78.8z M161,78.8
							C161,78.8,161,78.8,161,78.8C161,78.8,161,78.8,161,78.8z M161,78.8C161,78.8,161,78.8,161,78.8C161,78.8,161,78.8,161,78.8z"
							/>
					</g>
				</g>
				<g>
					<g>
						<path class="st13" d="M120.9,94.9c0,0-8.1,1.6-9.4,1.6s-28.4,0.3-28.4,0.3s-4.8,2.1-7.3,0.3c-0.7-0.5-1.4-1.4-1.5-2.9
							c-0.4-3-0.1-6.6,0.2-9.5c0.3-2.9,0.7-5.1,0.7-5.1C76.6,71.4,83.4,65.9,86,64c0.1-0.1,0.1-0.1,0.2-0.1s0.1-0.1,0.2-0.1
							c0.3-0.2,0.5-0.3,0.5-0.3l0,0l0,0l0,0l7.8,1.3l6.1,1.7l0.9-0.6l1.2,1.8l3.4,4.2L107,73l0,0l3.4,5.4L120.9,94.9z"/>
					</g>
					<g>
						<path class="st14" d="M107.8,75.2c0,0-4.8,1.1-7.2,0.7c-2.4-0.3-6.2-3-11.7,0.3c-3.5,2.1-10.2,15-13.1,20.9
							c-0.7-0.5-1.4-1.4-1.5-2.9c-0.4-3-0.1-6.6,0.2-9.5c0.3-2.9,0.7-5.1,0.7-5.1C76.6,71.4,83.4,65.9,86,64
							c0.1-0.1,0.1-0.1,0.2-0.1s0.1-0.1,0.2-0.1c0.2-0.2,0.4-0.3,0.5-0.3l0,0l0,0l0,0l0,0l0,0l1.8-0.9c0,0,1.6-1.3,6,0.1
							s6.6,3.4,6.6,3.4s0.3-0.4,0.3-0.3c1.6,2.2,3.6,5.4,5,7.5l0,0C107.3,74.5,107.8,75.2,107.8,75.2z"/>
					</g>
					<g>
						<path class="st14" d="M101,83c0,0,1.3,11.4,1.8,11.4s4.8-0.3,4.8-0.3L101,83z"/>
					</g>
					<g>
						<path class="st9" d="M119.5,94.4c-0.3,0-0.6-0.2-0.8-0.4l-12.6-20.4c-5.2-7.7-10.7-9.6-13.6-10c-2.6-0.4-4.4,0.1-5.2,0.7
							c-0.1,0.1-0.2,0.1-0.3,0.2c0,0,0,0-0.1,0.1c-0.1,0.1-0.2,0.1-0.2,0.2c-0.1,0.1-0.3,0.2-0.4,0.2c-6,5-9.7,11.8-11.1,20.2
							c-0.4,2.3-0.6,4.7-0.6,7.5c0,0.5-0.4,0.9-0.9,0.9s-0.9-0.4-0.9-0.9c0-2.8,0.2-5.4,0.6-7.8c1.5-8.8,5.4-16,11.8-21.3
							c0.1,0,0.1-0.1,0.2-0.1c0.1-0.1,0.3-0.1,0.4-0.2c0,0,0,0,0,0c0.2-0.1,0.4-0.3,0.6-0.4c1.4-1,3.8-1.4,6.4-1
							c3.1,0.5,9.2,2.5,14.8,10.8L120.3,93c0.3,0.4,0.1,1-0.3,1.2C119.8,94.4,119.7,94.4,119.5,94.4z M86.8,64.5
							C86.8,64.5,86.8,64.5,86.8,64.5C86.8,64.5,86.8,64.5,86.8,64.5z"/>
					</g>
					<g>
						<path class="st9" d="M106.5,93.3c-0.3,0-0.6-0.2-0.8-0.5l-5.4-9.9c-0.2-0.4-0.1-1,0.4-1.2c0.4-0.2,1-0.1,1.2,0.4l5.4,9.9
							c0.2,0.4,0.1,1-0.4,1.2C106.8,93.3,106.6,93.3,106.5,93.3z"/>
					</g>
				</g>
				<g>
					<g>
						<path class="st14" d="M47.1,67.8c0,0-9.1,3-10.6,10.1c-1.6,7.1,0.4,15.7,9.8,18.5c13.2,4,27.8,1.1,27.8,1.1L73.7,93
							c-8.1,3.3-27.8,2.8-32.6-5.1c-4.8-7.8,1.7-17.2,8.5-16.8C51.8,70.2,50.4,66.5,47.1,67.8z"/>
					</g>
					<g>
						<g>
							<path class="st9" d="M60.7,99.6c-0.5,0-1,0-1.5,0c-11.1-0.3-18.9-3.8-22.7-10.2c-2.6-4.2-2.8-8.8-0.6-13.1
								c2.7-5.3,8.4-9.1,11.1-9.3c0.5,0,0.9,0.3,1,0.8c0,0.5-0.3,0.9-0.8,1c-1.6,0.1-7,3.2-9.6,8.4c-1.9,3.8-1.8,7.6,0.5,11.4
								c7.5,12.7,30.5,9,35.4,8.1l-0.5-2.1c-7.8,1.5-27.4,2.5-32.5-6c-2.4-3.9-2.4-8.6,0-12.6c2.1-3.6,5.8-5.8,9.3-5.6
								c0.5,0,0.9,0.5,0.8,1c0,0.5-0.5,0.9-1,0.8c-2.9-0.2-5.9,1.7-7.7,4.7c-2,3.4-2.1,7.4,0,10.7c4.2,7,22.4,6.9,31.4,5
								c0.5-0.1,0.9,0.2,1.1,0.7l1,3.8c0.1,0.2,0,0.5-0.1,0.7c-0.1,0.2-0.3,0.4-0.6,0.4C74.5,98.1,68.3,99.6,60.7,99.6z"/>
						</g>
					</g>
				</g>
				<g>
					<g>
						<path class="st14" d="M49.7,71.2c4.5,2.6,9.3-1.9,11.8-5.4c-3.5-1.4-3.9-0.9-3.9-0.9s-2.1-2.7-5.3-1.6
							c-3.2,1.1-5.1,4.6-5.1,4.6C48.4,67.3,50.5,68.5,49.7,71.2z"/>
					</g>
					<g>
						<g>
							<path class="st9" d="M54.1,65.9c-0.4,0-0.8-0.3-0.9-0.8c-0.1-0.5,0.3-0.9,0.8-1c0.1,0,2.3-0.3,4.5-0.1c0.5,0,0.9,0.5,0.8,1
								c0,0.5-0.5,0.9-1,0.8c-2-0.2-4.1,0.1-4.1,0.1C54.2,65.9,54.1,65.9,54.1,65.9z"/>
						</g>
						<g>
							<path class="st9" d="M52.5,72.9c-1.1,0-2.2-0.3-3.3-0.9c-0.4-0.2-0.6-0.8-0.3-1.2c0.2-0.4,0.8-0.6,1.2-0.3
								c3.9,2.3,8-1.9,9.8-4.1c-0.6-0.1-1.1-0.2-1.7-0.3c-0.4,0-0.7-0.3-0.8-0.7c-0.3-0.2-1.7-1.4-3.6-1.4c-2.1,0-5.3,2.8-6.1,4.5
								c-0.2,0.4-0.8,0.6-1.2,0.4c-0.4-0.2-0.6-0.7-0.4-1.2c1.1-2.2,4.8-5.5,7.7-5.5c2.6,0,4.5,1.5,4.9,1.9c0.1,0.1,0.2,0.2,0.3,0.3
								c0.9,0.1,1.7,0.3,2.7,0.7c0.3,0.1,0.5,0.3,0.6,0.6s0,0.6-0.1,0.8C59.8,69.8,56.2,72.9,52.5,72.9z M57.8,65.5
								C57.8,65.5,57.8,65.5,57.8,65.5C57.8,65.5,57.8,65.5,57.8,65.5z"/>
						</g>
					</g>
				</g>
				<g>
					<g>
						<path class="st15" d="M123.7,46.1L123.7,46.1c-0.2-1.7-0.5-4-1.3-5.7c-0.5-1.4-2-2.4-4.5-3.4l2.2-2.2l0,0c0,0-2.6-1.7-8.2-2.1
							c-5.3-0.4-10.3,2.6-10.9,3l0,0c0,0-2-0.4-5.1-0.1c-1,0.1-2,0.2-3.1,0.5c-4,1.2-8.4,9.2-10.3,12.9H86l0,0
							c-2.9,4.8-0.1,13.6,2.3,18.8l2-1.7c1.7,3.1,8.6,7.8,12.1,9.1c1-0.1,10.4-5.1,10.9-5.5c-0.2,0.1,3.5,0.1,4.8-1.9
							C122.1,61.7,119.4,60.2,123.7,46.1z"/>
					</g>
					<g>
						<path class="st12" d="M102,74.6c-2-1.1-7.1-3.7-9.1-6c-1.2-1.5-1.9-2.8-2.3-3.6l0.1,1l-2,1.7c0,0-3.8-8.2-3.7-13.4
							c0.1-2.6,0.6-4.3,1.3-5.4h-3.5c0,0,5.7-11.8,10.3-12.9c1.1-0.2,2.1-0.4,3.1-0.5c-1.7,2-6.7,8.3-6.2,15.5
							c1.6-0.3,3.5-0.5,3.5-0.5s-3.3,6.1,1.4,14.4C97.6,69.8,100.2,72.9,102,74.6z"/>
					</g>
					<g>
						<path class="st9" d="M86.3,49.4h-3.6c-0.3,0-0.6-0.2-0.8-0.4s-0.2-0.6,0-0.9c0.6-1.3,6.1-12.3,11-13.3
							c3.9-0.8,7.2-0.5,8.2-0.4c1.2-0.7,6-3.3,11.2-2.9c5.8,0.5,8.5,2.3,8.6,2.3c0.2,0.1,0.4,0.4,0.4,0.7c0,0.3-0.1,0.5-0.3,0.7
							l-2.6,2.6c-0.4,0.4-0.9,0.4-1.3,0c-0.4-0.4-0.4-0.9,0-1.3l1.7-1.7c-1.2-0.5-3.4-1.3-6.8-1.5c-5.2-0.5-10.3,2.7-10.3,2.8
							c-0.2,0.1-0.4,0.2-0.6,0.1c0,0-3.5-0.6-7.9,0.3c-3,0.6-7.1,7.3-9.1,11h2.1c0.5,0,0.9,0.4,0.9,0.9S86.8,49.4,86.3,49.4z"/>
					</g>
					<g>
						<path class="st9" d="M88.4,68.3c-0.1,0-0.1,0-0.2,0c-0.3-0.1-0.5-0.2-0.6-0.5c-0.2-0.3-3.9-8.4-3.7-13.8c0.2-5.7,3-7.9,3.2-8
							c0.4-0.3,1-0.2,1.3,0.2c0.3,0.4,0.2,1-0.2,1.3c-0.1,0.1-2.3,1.9-2.5,6.6c-0.1,3.9,2,9.6,3,11.9l1.1-0.9
							c0.4-0.3,0.9-0.3,1.3,0.1c0.3,0.4,0.3,0.9-0.1,1.3l-2,1.7C88.8,68.2,88.6,68.3,88.4,68.3z"/>
					</g>
					<g>
						<path class="st9" d="M102.6,75.9c-0.1,0-0.3,0-0.4-0.1c-0.3-0.2-7.8-3.7-10.2-6.8c-2.5-3-3.1-5.4-3.1-5.5
							c-0.1-0.5,0.2-1,0.7-1.1c0.5-0.1,1,0.2,1.1,0.7c0,0,0.5,2.1,2.7,4.7c1.9,2.4,7.7,5.4,9.2,6.1c1.9-0.8,10.8-4.5,13-8.2
							c0.3-0.4,0.8-0.6,1.2-0.3c0.4,0.3,0.6,0.8,0.3,1.2c-2.8,4.6-13.8,8.9-14.2,9.1C102.8,75.9,102.7,75.9,102.6,75.9z"/>
					</g>
					<g>
						<path class="st9" d="M113.6,70.5c-0.5,0-0.9-0.4-0.9-0.9c0-0.5,0.4-0.9,0.9-0.9c0,0,2.1,0,4-1.3c1.4-1,2.1-4.4,2.2-5.7
							c0.1-4.1,1.1-7.4,1.9-10.2c0.6-2.1,1.1-3.9,1.3-5.6c0,0,0.2-2.8-1.1-4.8c-1.2-1.9-4.3-3.2-6.2-3c-0.5,0-0.9-0.3-1-0.8
							c0-0.5,0.3-0.9,0.8-1c2.5-0.2,6.2,1.3,7.8,3.8c1.5,2.4,1.3,5.7,1.3,5.8c-0.1,2-0.7,3.9-1.3,6c-0.8,2.8-1.8,5.9-1.9,9.9
							c-0.1,0.6-0.6,5.3-3,7C116.2,70.5,113.7,70.5,113.6,70.5z"/>
					</g>
				</g>
				<g>
					<g>
						<path class="st13" d="M126.1,56.8c-0.3,0.2-1.6,0.5-3.1,0.7h0.2c0,0,0.2,3.6-2.2,4c-0.7,0.1-2,0.4-3.7,0.7
							c-3.8,0.7-9.4,1.7-11.6,1.7c-1.9-1.4-6.5-3.6-9.1-9.6c0.2-5.1,4.5-11.9,5.3-11.9c0,0,0.6-0.2,1.8-0.3c2.8-0.5,8.3-1.2,13,0.2
							c6.6,1.9,10.8,7.9,11.3,8.8C128.5,52.1,126.8,56.3,126.1,56.8z"/>
					</g>
					<g>
						<path class="st14" d="M117.3,62.2c-3.8,0.7-9.4,1.7-11.6,1.7c-1.9-1.4-6.5-3.6-9.1-9.6c0.2-5.1,4.5-11.9,5.3-11.9
							c0,0,0.6-0.2,1.8-0.3l0.1,0.3c0,0-1.1,7.8-1.1,11.9C105.8,59.4,112.4,61.5,117.3,62.2z"/>
					</g>
					<g>
						<path class="st9" d="M105.7,64.6c-0.2,0-0.4-0.1-0.5-0.2c-0.3-0.2-0.7-0.4-1.1-0.7c-2.3-1.5-6-4-8.3-9.3
							c-0.1-0.1-0.1-0.3-0.1-0.4c0.2-3.9,3.8-12.2,6-12.7l0,0c0.3-0.1,8.5-2,15.3-0.2c6.9,2.1,11.2,8.1,11.9,9.5
							c0.7,1.5-1.2,6.1-2.2,6.7c-0.3,0.3-1.3,0.5-2.5,0.7c-0.1,1.7-0.8,3.9-3,4.2C119,62.8,109,64.6,105.7,64.6z M97.5,53.9
							c2.1,4.7,5.4,6.8,7.6,8.3c0.3,0.2,0.6,0.4,0.9,0.6c3.3-0.1,12.3-1.7,14.8-2.3c1-0.2,1.3-1.4,1.5-2.2c-1.9,0.2-3.7,0.4-3.9,0.4
							c-0.2,0-0.4-0.1-0.5-0.2l-1.8-1.2c-0.4-0.3-0.5-0.8-0.2-1.2c0.3-0.4,0.8-0.5,1.2-0.2l1.6,1c1.5-0.1,6.3-0.7,6.9-1
							c0.5-0.5,1.8-3.8,1.6-4.5c-0.5-1-4.4-6.6-10.7-8.5c-6-1.6-13.6,0-14.3,0.2C101.2,43.8,97.8,49.6,97.5,53.9z M101.9,43.1
							C101.9,43.1,101.9,43.1,101.9,43.1C101.9,43.1,101.9,43.1,101.9,43.1z M102.2,43L102.2,43z"/>
					</g>
					<g>
						<path class="st9" d="M127.3,50h-4.5c0,0,0.9,2.2,4.9,2.3C128.4,51.5,127.3,50,127.3,50z"/>
					</g>
					<g>
						<path class="st9" d="M95.9,46c-0.2,0-0.4-0.1-0.6-0.2c-1.3-1.1-1.7-2.6-1-4c0.6-1.3,2-1.9,3.3-1.6c0.5,0.1,0.8,0.6,0.7,1.1
							s-0.6,0.8-1.1,0.7c-0.6-0.1-1.1,0.2-1.3,0.6c-0.3,0.6-0.1,1.3,0.6,1.8c0.4,0.3,0.4,0.9,0.1,1.3C96.4,45.9,96.2,46,95.9,46z"/>
					</g>
					<g>
						<path class="st9" d="M111,48.3c-0.5,0-0.9-0.4-0.9-0.8c0-0.5,0.3-0.9,0.8-1l6.2-0.5c0.5,0,0.9,0.3,1,0.8c0,0.5-0.3,0.9-0.8,1
							L111,48.3C111,48.3,111,48.3,111,48.3z"/>
					</g>
					<g>
						<path class="st9" d="M116.6,51c-0.2,0-0.5-0.1-0.6-0.3c-0.2-0.2-0.3-0.4-0.3-0.6c0-0.2,0.1-0.5,0.3-0.6c0.3-0.3,0.9-0.3,1.3,0
							c0.2,0.2,0.3,0.4,0.3,0.6c0,0.2-0.1,0.5-0.3,0.6S116.8,51,116.6,51z"/>
					</g>
				</g>
				<rect x="152.7" y="159.8" class="st11" width="70.1" height="29.2"/>
				<path class="st16" d="M159.9,184.4c-4.8,6.2-3.8,9.9,0.4,9.9c4.3,0,6.8-8.9,6.5-12.4C166.5,178.6,159.9,184.4,159.9,184.4z"/>
				<path class="st17" d="M44.8,189.4h110.3c4.9,0,9.4-2.7,11.7-7l4-7.6c1.5-2.9,4.5-4.6,7.8-4.6h17.1c3.8,0,7.2,2.4,8.4,6.2
					l2.4,7.8c1,3.2,3.9,5.3,7.2,5.3h10.2c4.3,0,7.7-3.4,7.7-7.7v-36.5c0-7.5-2.8-14.7-7.9-20.2l-24.8-26.9c-2.8-3-6.7-4.7-10.8-4.7
					H58.7c-3.4,0-6.4,2.3-7.1,5.7L47,120.7c-0.9,4-3.1,7.6-6.3,10.1l-1.1,0.9c-2.4,1.9-3.9,4.9-3.9,8.1v40.8
					C35.8,185.3,39.9,189.4,44.8,189.4z"/>
				<line class="st18" x1="36.3" y1="175.1" x2="96.6" y2="176.5"/>
				<g>
					<polygon class="st19" points="156.7,182.7 98.8,181.8 98.8,135 103,100.8 156.7,101.5 					"/>
					<path class="st20" d="M105.4,113.8c2.9,7.1,2.3,19.4,0.4,23.7"/>
					<path class="st20" d="M118.1,148.3c-9.7,7.1-14.9,8.5-18.2,15.4"/>
					<path class="st20" d="M107.7,126.3c0,0,0.7,8.1,10.6,12s31.5-2.3,37.2-8.3"/>
					<path class="st20" d="M155.4,142.4c0,0-3.1,9.9-7.3,17.8c-4.3,7.8-4.5,20.3-4.5,20.3"/>
				</g>
				<path class="st21" d="M224.5,183.7h-10.2c-3.3,0-6.3-2.1-7.2-5.3l-2.4-7.8c-1.2-3.6-4.6-6.2-8.4-6.2H179c-3.2,0-6.2,1.8-7.8,4.6
					l-4,7.6c-2.3,4.3-6.8,7-11.7,7H45.3c-4.9,0-8.9-4-8.9-8.9v-38.5c-0.3,1-0.4,2-0.4,3.1V180c0,4.9,4,8.9,8.9,8.9h110.3
					c4.9,0,9.4-2.7,11.7-7l4-7.6c1.5-2.9,4.5-4.6,7.8-4.6h17.1c3.8,0,7.2,2.4,8.4,6.2l2.4,7.8c1,3.2,3.9,5.3,7.2,5.3H224
					c4.3,0,7.7-3.4,7.7-7.7v-2.6C230.6,181.7,227.8,183.7,224.5,183.7z"/>
				<path class="st22" d="M171.1,130.7h40.5c1.5,0,2.2-1.7,1.3-2.9L193.3,105h-22.1c-2.1,0-3.7,1.7-3.7,3.7v18.1
					C167.3,129,169,130.7,171.1,130.7z"/>
				<line class="st18" x1="38.7" y1="144.9" x2="97.7" y2="146.3"/>
				<line class="st23" x1="36" y1="176.7" x2="96.8" y2="178.1"/>
				<line class="st18" x1="204.5" y1="177.2" x2="225.2" y2="177.5"/>
				<line class="st18" x1="157" y1="176.2" x2="169.6" y2="176.4"/>
				<line class="st23" x1="205" y1="178.7" x2="226.2" y2="179.1"/>
				<line class="st23" x1="156.9" y1="177.8" x2="168.6" y2="178"/>
				<path class="st23" d="M39.3,151.7l44.9,0.2c0,0-0.7,5,2.3,4.8c3.1-0.2,4-4.4,4-4.4h5.4"/>
				<line class="st18" x1="84.5" y1="151.2" x2="86.3" y2="146.3"/>
				<g>
					<path class="st9" d="M217,139.7C217,139.7,217,139.7,217,139.7l-60-1.3c-0.5,0-0.9-0.4-0.9-0.9c0-0.5,0.4-0.9,0.9-0.9
						c0,0,0,0,0,0l60,1.3c0.5,0,0.9,0.4,0.9,0.9C217.9,139.3,217.5,139.7,217,139.7z"/>
				</g>
				<g>
					<path class="st9" d="M98.3,137C98.3,137,98.3,137,98.3,137l-47.9-1.6c-0.5,0-0.9-0.4-0.9-0.9s0.4-0.9,0.9-0.9l47.9,1.6
						c0.5,0,0.9,0.4,0.9,0.9C99.2,136.6,98.8,137,98.3,137z"/>
				</g>
				<g>
					<path class="st9" d="M47.2,136C47.2,136,47.2,136,47.2,136l-8.5-0.1c-0.5,0-0.9-0.4-0.9-0.9c0-0.5,0.4-0.9,0.9-0.9c0,0,0,0,0,0
						l8.5,0.1c0.5,0,0.9,0.4,0.9,0.9C48.1,135.6,47.7,136,47.2,136z"/>
				</g>
				<g>
					<path class="st9" d="M217,143.9C217,143.9,217,143.9,217,143.9l-44.7-0.9c-0.5,0-0.9-0.4-0.9-0.9c0-0.5,0.4-0.9,0.9-0.9
						c0,0,0,0,0,0l44.7,0.9c0.5,0,0.9,0.4,0.9,0.9C217.9,143.5,217.5,143.9,217,143.9z"/>
				</g>
				<g>
					<path class="st9" d="M169.5,142.9C169.5,142.9,169.5,142.9,169.5,142.9l-12.8-0.3c-0.5,0-0.9-0.4-0.9-0.9
						c0-0.5,0.4-0.9,0.9-0.9c0,0,0,0,0,0l12.8,0.3c0.5,0,0.9,0.4,0.9,0.9C170.4,142.5,170,142.9,169.5,142.9z"/>
				</g>
				<g>
					<path class="st9" d="M98,141.3C98,141.3,98,141.3,98,141.3l-37.3-0.9c-0.5,0-0.9-0.4-0.9-0.9c0-0.5,0.4-0.9,0.9-0.9l37.3,0.9
						c0.5,0,0.9,0.4,0.9,0.9C98.9,140.9,98.5,141.3,98,141.3z"/>
				</g>
				<g>
					<path class="st9" d="M57.6,140.4C57.6,140.4,57.6,140.4,57.6,140.4L39,140.1c-0.5,0-0.9-0.4-0.9-0.9c0-0.5,0.4-0.9,0.9-0.9
						c0,0,0,0,0,0l18.6,0.3c0.5,0,0.9,0.4,0.9,0.9C58.5,140,58.1,140.4,57.6,140.4z"/>
				</g>
				<path class="st24" d="M171.1,130.7h40.5c1.5,0,2.2-1.7,1.3-2.9L193.3,105h-22.1c-2.1,0-3.7,1.7-3.7,3.7v18.1
					C167.3,129,169,130.7,171.1,130.7z"/>
				<path class="st22" d="M91.9,128.1H58.2c-1.8,0-3.2-1.6-2.9-3.3l2.6-20.2c0.2-1.5,1.5-2.6,2.9-2.6h33.8c1.8,0,3.2,1.6,2.9,3.3
					l-2.6,20.2C94.7,127.1,93.4,128.1,91.9,128.1z"/>
				<path class="st14" d="M96.9,109.3L95,124.9c0,0,1.1,3.2-5.3,3c-6.4-0.2-13.8-0.2-13.8-0.2l-6.9-3l-1.1-9.6
					c0,0,15.1-1.3,15.9-1.4C84.4,113.6,96.9,109.3,96.9,109.3z"/>
				<path class="st18" d="M44.8,188.9h110.3c4.9,0,9.4-2.7,11.7-7l4-7.6c1.5-2.9,4.5-4.6,7.8-4.6h17.1c3.8,0,7.2,2.4,8.4,6.2
					l2.4,7.8c1,3.2,3.9,5.3,7.2,5.3h10.2c4.3,0,7.7-3.4,7.7-7.7v-36.5c0-7.5-2.8-14.7-7.9-20.2L199,97.8c-2.8-3-6.7-4.7-10.8-4.7
					H58.7c-3.4,0-6.4,2.3-7.1,5.7L47,120.4c-0.9,4-3.1,7.6-6.3,10.1l-1.1,0.9c-2.4,1.9-3.9,4.9-3.9,8.1v40.8
					C35.8,184.9,39.9,188.9,44.8,188.9z"/>
				<path class="st24" d="M91.9,128.1H58.2c-1.8,0-3.2-1.6-2.9-3.3l2.6-20.2c0.2-1.5,1.5-2.6,2.9-2.6h33.8c1.8,0,3.2,1.6,2.9,3.3
					l-2.6,20.2C94.7,127.1,93.4,128.1,91.9,128.1z"/>
				<polygon class="st18" points="156.7,101.5 156.7,182.9 99.1,182.9 99.1,131.8 102.6,102.1 				"/>
				<path class="st18" d="M99.1,182.9c0,2.3-1.4,6.1-5.9,6.1"/>
				<path class="st25" d="M102.6,102.1c0.2-3-2.2-4.7-4.7-4.7H57.6"/>
				<path class="st18" d="M165,157.6l6.7,4.6c1,0.6,2.1,1.1,3.3,1.1h20c6.2,0,11.6,4,13.4,9.9l2.6,8.4c0.2,0.9,1.1,1.4,1.9,1.4h5.9
					c1.5,0,2.7-1.2,2.7-2.7v-44.4c0-3.8-1.4-7.7-4-10.5l-20.7-23c-1.1-1.2-2.7-1.9-4.3-1.9l-24.3,0.1c-3.2,0-5.7,2.6-5.7,5.7V153
					C162.5,154.8,163.5,156.6,165,157.6z"/>
				<path class="st26" d="M235.3,183.2h-3.4c-3.1,0-5.6-2.6-5.6-5.6v-0.3c0-3.1,2.6-5.6,5.6-5.6h3.4c3.1,0,5.6,2.6,5.6,5.6v0.3
					C240.9,180.6,238.3,183.2,235.3,183.2z"/>
				<line class="st18" x1="156.7" y1="182.9" x2="156.7" y2="188.6"/>
				<rect x="87.6" y="148.3" class="st27" width="8.3" height="1.9"/>
				<circle class="st18" cx="165.9" cy="166.6" r="4.3"/>
				<rect x="228.1" y="159.6" class="st28" width="5.2" height="9.5"/>
				<g>
					<g>
						<g>
							<g>
								<path class="st29" d="M231.5,159.3c0,0,3.7,6.3,1.8,8.5c-1.8,2.2-4.5,2-4.5,2s-0.4-0.7-1-1.7c-1-1.6-2.5-4.1-3.3-5.3
									c-1.3-2-5-5.8,2.1-13.5c-5.5-2.5-7.5-6.7-7.5-6.7s0-0.1,0.1-0.1c0.2-0.3,0.6-1,1-1.8c-0.5,0.8-1.1,1.3-1.8,1.7
									c-1,0.6-2,0.6-2,0.6l0,0c-0.1,0-0.2-0.1-0.5-0.3l0,0c-0.3-0.3-0.6-0.7-1-1.5l0,0c-0.5-0.9-1-2.1-1.6-3.9
									c0-0.1-0.1-0.3-0.1-0.4c-0.4-1-0.8-2.1-1.2-3c0,0,0-0.1-0.1-0.1c-1.3-2.9-2.9-5.4-3.7-7.1c0,0,0-0.1-0.1-0.1
									c-0.3-0.7-0.5-1.3-0.5-1.7c0,0,0-0.1,0-0.2v-0.1v-0.1c0-0.2,0.1-0.5,0.2-0.8c0-0.1,0.1-0.2,0.1-0.4c0-0.1,0-0.1,0.1-0.2
									c0,0,0,0,0-0.1c1.1-3.2,3.5-9,3.5-9s0.3-4.2,3.8-5.9c0.1-0.1,0.2-0.1,0.4-0.2l0.5-0.2h0.1c1.7-0.6,3.3-0.4,4.3-0.2
									c0.8,0.2,1.3,0.4,1.3,0.4s3.8,1.7,7.5,11s4.8,16.4,4.8,16.4l-0.8-0.9c2.6,4.8,4.8,9.2,5.5,11.4c0.2,0.6,0.3,1.3,0.3,1.9
									C239.3,152.4,234.4,157.4,231.5,159.3z"/>
							</g>
						</g>
					</g>
					<g id="Body_Fill">
						<g>
							<g>
								<path class="st13" d="M247.3,142.4c0,0-0.5-6.9-4.5-16.9c-2-5.1-4-8.1-5.6-9.7c-1.4-1.5-3.1-2.4-5.1-2.7
									c-2.1-0.2-4.3,0.3-6.2,2.9c-0.7,1.1-3.2,3.1-0.6,19.3C231.8,153.6,245.9,157.1,247.3,142.4z"/>
							</g>
						</g>
					</g>
					<g id="Body_2_">
						<g>
							<g>
								<path class="st9" d="M244.5,151.7c-0.2,0-0.4-0.1-0.5-0.2c-0.4-0.3-0.5-0.9-0.2-1.3c0,0,3.1-4.3,2.5-7.7
									c0-0.1-0.6-7.1-4.4-16.7c-1.5-3.9-3.4-7.1-5.4-9.4c-1.3-1.4-2.8-2.2-4.5-2.4c-1.6-0.1-3.6,0-5.4,2.5c0,0-0.1,0.1-0.2,0.2
									c-0.7,1-2.6,3.7-0.3,18.4c0.1,0.5-0.3,1-0.7,1c-0.5,0.1-1-0.3-1-0.7c-2.5-15.4-0.4-18.3,0.6-19.7c0.1-0.1,0.1-0.1,0.1-0.2
									c1.9-2.5,4.1-3.6,7-3.3c2.1,0.2,4,1.2,5.7,3c2.2,2.5,4.2,5.9,5.8,10c3.9,9.9,4.5,16.9,4.6,17.2c0.6,4.2-2.7,8.8-2.9,9
									C245,151.6,244.8,151.7,244.5,151.7z"/>
							</g>
						</g>
					</g>
				</g>
				<g id="Leg_Fill">
					<g>
						<g>
							<path class="st13" d="M252.9,154.1c-1.9-6.6-8-15.4-8-15.4c-4.6-5.6-15.1-3.2-15.4,4.4c0,0-0.5,3.1,2.3,7.9
								c0,0,2.1,4.6,8,7.1c-7.5,7.8-3.8,12.4-2.2,14.4c1.4,2.1,4.6,7.5,4.6,7.5s2.9,0.2,4.8-2.1c1.9-2.3-1.9-9.1-1.9-9.1
								C248.3,166.5,254.5,159.9,252.9,154.1z"/>
						</g>
					</g>
				</g>
				<g id="Leg_Shadow">
					<g>
						<g>
							<path class="st14" d="M244.6,158.4c-0.3,1.1-3.4,3.5-5.5,5.6s-0.3,4.8,0.7,8c0.6,1.9,1.1,4.4,1.3,6.1
								c-1.1-1.7-2.7-4.4-3.5-5.6c-1.4-2.1-5.3-6.2,2.2-14.4c-5.9-2.7-8-7.1-8-7.1s0-0.1,0.1-0.1c0.6-0.2,1.5-1.1,1.8-3.4
								c0.5-3.7-0.2-5.9-1.9-9.4c-1.8-3.5-2.3-5-2.3-5l1.9-5.3c0,0,0.3,4.6,0.9,6.1c0.5,1.4,2.3,4.5,3.4,10.3c1.1,5.9,3,6.7,5.9,9.4
								C244.4,156,244.9,157.3,244.6,158.4z"/>
						</g>
					</g>
				</g>
				<g id="Leg">
					<g>
						<g>
							<g>
								<path class="st9" d="M243.6,170.3c-0.4,0-0.7-0.2-0.8-0.6c-0.2-0.5,0-1,0.5-1.2c2.5-1,10.5-8.2,8.8-14.2
									c-1.8-6.4-7.8-15-7.9-15.1c-0.3-0.4-0.2-1,0.2-1.3s1-0.2,1.3,0.2c0.3,0.4,6.2,9,8.1,15.7c2,7.1-6.6,15-9.8,16.4
									C243.8,170.3,243.7,170.3,243.6,170.3z"/>
							</g>
						</g>
					</g>
					<g>
						<g>
							<g>
								<path class="st9" d="M242,159.8c-0.1,0-0.2,0-0.3,0c-7.8-2.4-10.5-8.2-10.7-8.5c-2.9-4.8-2.4-8.3-2.4-8.4
									c0.1-0.5,0.5-0.8,1-0.8c0.5,0.1,0.8,0.5,0.8,1c0,0-0.4,3,2.2,7.3c0.1,0.1,2.6,5.5,9.6,7.6c0.5,0.1,0.7,0.6,0.6,1.1
									C242.7,159.6,242.4,159.8,242,159.8z"/>
							</g>
						</g>
					</g>
					<g>
						<g>
							<g>
								<path class="st9" d="M242.2,180.8c-0.1,0-0.2,0-0.2,0c-0.3,0-0.6-0.2-0.7-0.4c0-0.1-3.2-5.3-4.6-7.5
									c-0.1-0.1-0.2-0.3-0.3-0.5c-1.6-2.2-4.9-6.8,2.6-14.9c0.3-0.4,0.9-0.4,1.3,0c0.4,0.3,0.4,0.9,0,1.3c-6.5,7-4,10.5-2.5,12.6
									c0.1,0.2,0.3,0.4,0.4,0.6c1.2,1.8,3.6,5.8,4.4,7.1c0.8-0.1,2.4-0.3,3.6-1.8c1.1-1.3-0.5-5.5-2-8.1c-0.2-0.4-0.1-1,0.3-1.2
									c0.4-0.2,1-0.1,1.2,0.3c0.4,0.7,4.1,7.3,1.8,10.1C245.6,180.6,243,180.8,242.2,180.8z"/>
							</g>
						</g>
					</g>
					<g>
						<g>
							<g>
								<path class="st9" d="M244.4,180.2c-0.1,0-0.2,0-0.3-0.1c-0.5-0.2-0.7-0.7-0.5-1.2c0.4-1.2-0.4-2.6-0.4-2.6
									c-0.3-0.4-0.1-1,0.3-1.2c0.4-0.3,1-0.1,1.2,0.3c0.1,0.1,1.3,2.2,0.6,4.2C245.1,180,244.8,180.2,244.4,180.2z"/>
							</g>
						</g>
					</g>
				</g>
				<g>
					<g id="Arm_1_">
						<g>
							<g>
								<path class="st9" d="M229,152.1C229,152.1,229,152.1,229,152.1c-0.9-0.1-2.4-1-4.3-6.8c-1-3-2.6-5.9-3.9-8.2
									c-1.6-2.8-2.4-4.4-2.2-5.5c0.2-1.9,5.2-14.3,5.8-15.7c0.2-0.5,0.7-0.7,1.2-0.5c0.5,0.2,0.7,0.7,0.5,1.2
									c-2.1,5.3-5.5,14-5.6,15.3c-0.1,0.6,1,2.6,2,4.4c1.3,2.4,2.9,5.3,4,8.5c1.3,4.3,2.4,5.3,2.7,5.6c0.8-0.1,3.5-0.8,3.8-3.9
									c0.3-4.2-4.2-12.9-4.2-13c-0.1-0.2-0.1-0.4-0.1-0.7l1.8-6.4c0.1-0.5,0.6-0.8,1.1-0.6c0.5,0.1,0.8,0.6,0.6,1.1l-1.7,6.1
									c0.8,1.7,4.5,9.4,4.2,13.7C234.4,150.6,230.9,152,229,152.1C229,152.1,229,152.1,229,152.1z M229.2,150.3L229.2,150.3
									L229.2,150.3z"/>
							</g>
						</g>
					</g>
					<g id="Arm_Fill">
						<g>
							<g>
								<path class="st13" d="M225.2,116.2c0,0-5.5,13.7-5.7,15.5s4,7.2,6.1,13.3c1.9,6.1,3.4,6.2,3.4,6.2s4.5-0.3,4.8-4.8
									s-4.3-13.5-4.3-13.5l1.8-6.4C234.3,115.4,228.5,110.1,225.2,116.2z"/>
							</g>
						</g>
					</g>
					<g id="Arm_Shadow">
						<g>
							<g>
								<path class="st14" d="M232,149.3c0,0-0.3,0.6-0.9,1.3c-0.5,0.6-1.4,1.2-2.1,0.6l0,0l0,0c-0.2-0.1-0.3-0.2-0.5-0.3l0,0
									c-0.4-0.3-0.7-0.9-1.1-1.6l0,0c-0.4-1-1-2.4-1.8-4.6c-0.2-0.5-0.4-1.2-0.7-1.9c-0.2-0.4-0.3-1-0.5-1.4c0,0,0-0.1-0.1-0.1
									c-1.5-3.5-3.1-6-3.9-7.6c0,0,0-0.1-0.1-0.1c-0.4-0.7-0.5-1.4-0.5-1.8c0,0,0-0.1,0-0.2v-0.1v-0.1c0.1-0.2,0.1-0.5,0.2-0.9
									c0-0.1,0.1-0.2,0.1-0.4c0-0.1,0-0.1,0.1-0.2c0,0,0,0,0-0.1c1.2-3.4,3.7-9.6,3.7-9.6s0.3-4.5,4-6.3c0.1-0.1,0.2-0.1,0.4-0.2
									l0.5-0.2h0.1c1.8-0.6,3.5-0.4,4.6-0.2c-3,3.6-6.9,8.3-8.1,11c-1.4,3.2-1.9,7.7-1.9,7.7s3.9,7.8,5,12.5
									C229.5,149,232,149.3,232,149.3z"/>
							</g>
						</g>
					</g>
					<g id="Arm">
						<g>
							<g>
								<path class="st9" d="M229,152.1C229,152.1,229,152.1,229,152.1c-0.9-0.1-2.4-1-4.3-6.8c-1-3-2.6-5.9-3.9-8.2
									c-1.6-2.8-2.4-4.4-2.2-5.5c0.2-1.9,5.2-14.3,5.8-15.7c0.2-0.5,0.7-0.7,1.2-0.5c0.5,0.2,0.7,0.7,0.5,1.2
									c-2.1,5.3-5.5,14-5.6,15.3c-0.1,0.6,1,2.6,2,4.4c1.3,2.4,2.9,5.3,4,8.5c1.3,4.3,2.4,5.3,2.7,5.6c0.8-0.1,3.5-0.8,3.8-3.9
									c0.3-4.2-4.2-12.9-4.2-13c-0.1-0.2-0.1-0.4-0.1-0.7l1.8-6.4c0.1-0.5,0.6-0.8,1.1-0.6c0.5,0.1,0.8,0.6,0.6,1.1l-1.7,6.1
									c0.8,1.7,4.5,9.4,4.2,13.7C234.4,150.6,230.9,152,229,152.1C229,152.1,229,152.1,229,152.1z M229.2,150.3L229.2,150.3
									L229.2,150.3z"/>
							</g>
						</g>
					</g>
				</g>
				<g>
					<g>
						<g>
							<path class="st15" d="M238,94.9c0,0,2.4-2.9,1.4-6.9c-1.1-4-6.2-8-16-8.3c0.9,1.8,2.9,5.7,2.9,5.7"/>
						</g>
					</g>
					<g>
						<g>
							<path class="st9" d="M238,95.8c-0.2,0-0.4-0.1-0.6-0.2c-0.4-0.3-0.4-0.9-0.1-1.3c0.1-0.1,2.1-2.6,1.2-6.1
								c-0.9-3.1-5-6.9-13.6-7.5c1,1.9,2.2,4.3,2.2,4.3l-1.6,0.8c0,0-2-3.9-2.9-5.7c-0.1-0.3-0.1-0.6,0-0.9c0.2-0.3,0.5-0.4,0.8-0.4
								c10.7,0.3,15.7,4.8,16.8,9c1.1,4.4-1.5,7.6-1.6,7.7C238.5,95.7,238.3,95.8,238,95.8z"/>
						</g>
					</g>
				</g>
				<g>
					<g>
						<g>
							<path class="st15" d="M238,94.9c0,0,2.1,15-6.2,21.7c-1.9,1.6-4.5,2.8-7.7,3.1c-2.1,4-5,5.9-8.7,3.5
								C206.6,117.8,201,99,201,99c1.4-6.7,10.4-14.3,10.4-14.3s3.3-1,7.3-1.2c0.3,0,0.7-0.1,1.1-0.1c2.3-0.1,4.5,0.1,5.9,0.3
								l-0.2-0.2C233.2,85,236.8,89.1,238,94.9z"/>
						</g>
					</g>
				</g>
				<g>
					<g>
						<g>
							<path class="st13" d="M242,106.1c0,0-2.3,0.9-4.3,1.1l2.2-0.1c0,0,0.9,3.7-1.8,4.6c-0.7,0.2-1.7,0.3-2.8,0.2
								c-2.7-0.2-5.7-1.3-7.1-2.8c-3.4-0.3-11.2-2.1-13.1-6.6c1.3-6.2,5.3-10.6,5.3-10.6s1-0.1,2.3-0.1c3.3-0.2,9.1-0.5,10.6-0.2
								c2.3,0.3,8.5,7.7,9.3,9.4C242.3,103.3,242,106.1,242,106.1z"/>
						</g>
					</g>
				</g>
				<g>
					<g>
						<g>
							<path class="st12" d="M231.8,116.6c-1.9,1.6-4.5,2.8-7.7,3.1c-2.1,4-5,5.9-8.7,3.5C206.6,117.8,201,99,201,99
								c1.4-6.7,10.4-14.3,10.4-14.3s3.3-1,7.3-1.2l-0.2,0.3c0,0-3.9,5.1-5.6,11.7c-1.8,6.6-1.3,9.8-1.3,9.8s4,7.7,10.3,9.8
								C225.8,116.6,229.4,116.8,231.8,116.6z"/>
						</g>
					</g>
				</g>
				<g>
					<g>
						<g>
							<path class="st14" d="M235.5,111.9c-2.7-0.2-5.7-1.3-7.1-2.8c-3.4-0.3-11.2-2.1-13.1-6.6c1.3-6.2,5.3-10.6,5.3-10.6
								s1-0.1,2.3-0.1c0.6,0.3,1.1,0.5,1.1,0.5s-2.1,4.6-2.7,9.3c2.7,3,8.7,4.6,8.7,4.6S231.8,109.7,235.5,111.9z"/>
						</g>
					</g>
				</g>
				<g>
					<g>
						<g>
							<path class="st9" d="M236.2,112.9c-2.9,0-6.4-1.1-8.3-2.7c-4-0.4-11.5-2.4-13.6-7.1c-0.1-0.2-0.1-0.4-0.1-0.6
								c1.3-6.4,5.3-10.8,5.5-11c0.2-0.2,0.4-0.3,0.6-0.3c0.4,0,10.7-0.7,13.2-0.3c2.8,0.4,9.2,8.3,10,9.9c0.1,0.2,0.1,0.3,0.1,0.5
								c-0.3,2.3-0.7,5.1-0.7,5.1c0,0.3-0.3,0.6-0.6,0.7c-0.1,0-0.6,0.2-1.3,0.4c0.2,1.7-0.1,4.2-2.5,5
								C237.8,112.8,237,112.9,236.2,112.9z M216,102.6c1.9,3.6,8.5,5.5,12.3,5.8c0.2,0,0.4,0.1,0.6,0.3c1.7,1.7,6.7,2.9,9,2.2
								c1.3-0.4,1.4-1.9,1.3-2.8c-0.8,0.2-1.5,0.3-2.2,0.3c-0.2,0-0.5-0.1-0.6-0.3l-1.4-1.4c-0.4-0.4-0.4-0.9,0-1.3s0.9-0.4,1.3,0
								l1.1,1.1c1.3-0.1,3-0.6,3.8-0.9c0.1-0.9,0.4-2.7,0.6-4.3c-1.2-2.1-6.8-8.4-8.5-8.7c-1.8-0.3-9.3,0.1-12.4,0.3
								C220,94,217.2,97.7,216,102.6z"/>
						</g>
					</g>
				</g>
				<g>
					<g>
						<g>
							<path class="st9" d="M242.3,100.2h-4.6c0,0,1.1,2.1,4.8,2.3C242.8,101.8,242.3,100.2,242.3,100.2z"/>
						</g>
					</g>
				</g>
				<g>
					<g>
						<g>
							<path class="st9" d="M201.2,100.3c-0.1,0-0.1,0-0.2,0c-0.5-0.1-0.8-0.6-0.7-1.1c1.3-7,10.3-14.5,10.7-14.8
								c0.1-0.1,0.2-0.1,0.3-0.2c0.2,0,4-1.1,8.5-1.3c4.5-0.2,7.9,0.7,8.1,0.7c0.5,0.1,0.8,0.6,0.6,1.1c-0.1,0.5-0.6,0.8-1.1,0.6
								c0,0-3.3-0.9-7.5-0.7c-3.8,0.2-7.1,1-7.9,1.2c-1.1,1-8.8,7.7-9.9,13.7C202,100,201.6,100.3,201.2,100.3z"/>
						</g>
					</g>
				</g>
				<g>
					<g>
						<g>
							<path class="st9" d="M223.9,120.7c-0.3,0-0.5,0-0.8,0c-0.5,0-0.9-0.5-0.8-1s0.5-0.9,1-0.8c7.3,0.5,11.6-7.1,11.7-7.1
								c0.2-0.4,0.8-0.6,1.2-0.3c0.4,0.2,0.6,0.8,0.3,1.2C236.3,113,231.9,120.7,223.9,120.7z"/>
						</g>
					</g>
				</g>
				<g>
					<g>
						<g>
							<path class="st9" d="M235.9,97.4C235.9,97.4,235.9,97.4,235.9,97.4l-3.3-0.1c-0.5,0-0.9-0.4-0.9-0.9c0-0.5,0.4-0.9,0.9-0.9
								l3.3,0.1c0.5,0,0.9,0.4,0.9,0.9C236.8,97,236.4,97.4,235.9,97.4z"/>
						</g>
					</g>
				</g>
				<g id="Eye_1_">
					<g>
						<g>
							<path class="st9" d="M234.8,100.1c-0.5,0-1-0.4-1-0.9s0.4-0.9,0.9-0.9h0.1c0.5,0,0.9,0.4,0.9,0.9S235.3,100.1,234.8,100.1z"
								/>
						</g>
					</g>
				</g>
				<g>
					<g>
						<g>
							<g>
								<path class="st13" d="M200.8,103.1c-3.7-3.6-21-4.7-25.4,2.3c0,0-3.3,3.4-4.2,12.6c-0.9,9.3,1.1,15.9,4.5,18.8
									s8.2,3.9,9.4,4.3c2.1,0.5,3.3,0.2,4.6-0.2c1.1-0.3,2.4-1.3,5.5-2.7c3-1.4,6.6-5.1,6.6-5.1c2.8-4.3,2.9-14.2,2.2-19
									c-0.5-4.8-2.4-9.7-2.4-9.7L200.8,103.1z"/>
							</g>
						</g>
					</g>
					<g>
						<g>
							<g>
								<polygon class="st14" points="197.3,118.6 197.9,136.1 201.8,132.8 198.6,122.2 								"/>
							</g>
						</g>
					</g>
					<g>
						<g>
							<g>
								<path class="st14" d="M203.3,106.3c0,0-6.7,8.9-10.4,10.5s-11,2.7-11,2.7s-3.2,6.7-1.3,13c1.9,6.2,4,8.2,4,8.2
									s-0.2,0-0.4,0.1c-1.7-0.7-6-1.3-8.7-3.8c-3.4-3-5.3-9.6-4.5-18.8c0.9-9.3,4.5-13.1,4.5-13.1s6-4.9,18.6-4.7
									C198.7,101.5,203.3,106.3,203.3,106.3z"/>
							</g>
						</g>
					</g>
					<g>
						<g>
							<g>
								<path class="st9" d="M187.1,142.3c-0.7,0-1.4-0.1-2.2-0.3c-0.2-0.1-0.5-0.1-0.8-0.2c-1.9-0.5-5.9-1.7-9-4.3
									c-3.9-3.4-5.7-10.5-4.8-19.6c0.9-8.8,3.9-12.5,4.4-13.1c1.8-2.8,5.6-4.6,10.8-5.3c6.4-0.8,13.5,0.5,15.9,2.9
									c0.1,0.1,0.1,0.1,0.1,0.2l0.8,1.3c0,0,0.1,0.1,0.1,0.1c0.1,0.2,2,5.1,2.5,9.9c0.6,4.1,0.8,14.7-2.3,19.6
									c0,0-0.1,0.1-0.1,0.1c-0.2,0.2-3.8,3.8-6.9,5.3c-1.5,0.7-2.6,1.3-3.4,1.7c-0.9,0.5-1.6,0.8-2.2,1
									C189.1,142,188.2,142.3,187.1,142.3z M189.3,101.2c-1.2,0-2.4,0.1-3.6,0.2c-4.7,0.6-8.1,2.2-9.5,4.5c0,0.1-0.1,0.1-0.1,0.1
									c0,0-3.1,3.4-4,12.1c-0.8,8.4,0.8,15.1,4.2,18c2.7,2.3,6.5,3.4,8.3,3.9c0.3,0.1,0.6,0.2,0.8,0.2c1.8,0.4,2.8,0.2,4.1-0.2
									c0.5-0.1,1.1-0.4,1.9-0.9c0.8-0.5,2-1.1,3.5-1.8c2.6-1.2,5.8-4.4,6.3-4.8c2.5-3.9,2.8-13.1,2-18.3c-0.5-4.3-2.1-8.8-2.3-9.4
									l-0.7-1.1C198.6,102.3,194.2,101.2,189.3,101.2z"/>
							</g>
						</g>
					</g>
				</g>
				<g id="Arm_3_">
					<g>
						<g>
							<path class="st13" d="M197.7,118c0,0,1.8,9.8,3.2,13s2.3,4,6.4,4.3c4,0.2,6.4-1.3,6.4-1.3s-5.1-14.6-7.2-21s-5.6-9.9-5.6-9.9
								"/>
						</g>
					</g>
				</g>
				<g>
					<g>
						<g>
							<path class="st14" d="M198.2,118.2c0,0,2.9,10.6,6.4,13.7c3.5,3,5.6,3,5.6,3s-5.6,1.3-7.8-1.1
								C200.3,131.6,198.2,118.2,198.2,118.2z"/>
						</g>
					</g>
				</g>
				<g id="Arm_2_">
					<g>
						<g>
							<path class="st9" d="M208,136.2c-0.3,0-0.5,0-0.8,0c-4.5-0.3-5.7-1.4-7.2-4.8c-1.4-3.3-3.2-12.8-3.3-13.2
								c-0.1-0.5,0.2-1,0.7-1c0.5-0.1,1,0.2,1,0.7c0,0.1,1.8,9.7,3.1,12.8c1.3,2.9,1.8,3.5,5.6,3.8c2.5,0.1,4.3-0.5,5.2-0.9
								c-1.1-3.1-5.1-14.8-6.9-20.3c-2-6.1-5.3-9.5-5.4-9.5c-0.3-0.4-0.3-0.9,0-1.3c0.4-0.3,0.9-0.4,1.3,0c0.1,0.1,3.7,3.7,5.8,10.3
								c2.1,6.3,7.1,20.8,7.2,21c0.1,0.4,0,0.8-0.4,1.1C214.1,134.8,211.8,136.2,208,136.2z"/>
						</g>
					</g>
				</g>
				<g>
					<g>
						<g>
							<g>
								<g>
									<path class="st15" d="M202.1,77.4l-0.3-2.2c0,0-3.1,1.9-6.3,1.8c-0.4,0-1,0-1.6,0c-4.2,0-12,0.5-16.1,5.5
										c-4.7,5.7-7.2,15.5-3.1,22.5c4.2,6.9,13,10.4,13,10.4l5.4-4l0.5,2.9c0,0,3.3-1.3,6.3-3.8c1.6-1.5,3.2-3.3,4-5.6v0.7
										c0,0,3.7-1.9,4.7-6.1C209.7,95.2,209.1,82.7,202.1,77.4z"/>
								</g>
							</g>
						</g>
						<g>
							<g>
								<g>
									<path class="st15" d="M203.8,103.3l0.1-0.1L203.8,103.3L203.8,103.3z"/>
								</g>
							</g>
						</g>
					</g>
					<g>
						<g>
							<g>
								<path class="st12" d="M200.1,110.4c-3,2.7-6.3,3.8-6.3,3.8l-0.5-2.9l-5.4,4c0,0-8.8-3.5-13-10.4s-1.6-16.7,3.1-22.5
									c4-5,11.9-5.5,16.1-5.5c-7,0.9-12.1,6.2-12.6,16c-0.4,10.1,6.2,17.1,6.2,17.1s7.9-1.9,11.2-4
									C199.4,107.3,199.8,109.2,200.1,110.4z"/>
							</g>
						</g>
					</g>
					<g>
						<g>
							<g>
								<path class="st9" d="M187.9,116.2c-0.1,0-0.2,0-0.3-0.1c-0.4-0.1-9.1-3.7-13.4-10.8c-4.4-7.3-1.7-17.6,3.2-23.5
									c4.9-5.9,14.5-6,18.5-5.7c2.8,0.2,5.7-1.6,5.8-1.7c0.3-0.2,0.6-0.2,0.9-0.1c0.3,0.1,0.5,0.4,0.5,0.7c0,0.3,0.3,2.9-0.4,4.3
									c-0.2,0.4-0.8,0.6-1.2,0.4c-0.4-0.2-0.6-0.8-0.4-1.2c0.2-0.4,0.3-1.2,0.3-1.9c-1.3,0.6-3.4,1.4-5.5,1.2
									c-2.8-0.2-12.5-0.3-16.9,5.1c-4.5,5.5-7,14.9-3,21.5c3.5,5.7,10.4,9.1,12.1,9.8c1.8-1.2,5.4-3.8,6.2-5.1
									c0.3-0.4,0.8-0.5,1.2-0.3c0.4,0.3,0.5,0.8,0.3,1.2c-1.3,2-6.6,5.5-7.2,5.9C188.2,116.2,188.1,116.2,187.9,116.2z"/>
							</g>
						</g>
					</g>
					<g>
						<g>
							<g>
								<path class="st9" d="M193.8,115.1c-0.2,0-0.3,0-0.5-0.1c-0.2-0.1-0.4-0.4-0.4-0.6l-0.5-2.9c-0.1-0.5,0.2-1,0.7-1
									c0.5-0.1,1,0.2,1,0.7l0.3,1.8c2.4-1.1,8.3-4.5,9.2-10.3c0.1-0.5,0.5-0.8,1-0.7c0.5,0.1,0.8,0.5,0.7,1
									c-1.4,8.3-11,11.9-11.4,12.1C194,115.1,193.9,115.1,193.8,115.1z"/>
							</g>
						</g>
					</g>
					<g>
						<g>
							<g>
								<path class="st9" d="M204.2,106.5c-0.3,0-0.6-0.2-0.8-0.5c-0.2-0.4-0.1-1,0.4-1.2l0,0c0,0,3.4-1.8,4.2-5.5
									c0.9-3.8,0.3-16-6.3-21.1c-0.4-0.3-0.5-0.9-0.2-1.3c0.3-0.4,0.9-0.5,1.3-0.2c7.4,5.6,7.9,18.7,6.9,22.9
									c-1.1,4.6-5,6.6-5.2,6.7C204.5,106.5,204.3,106.5,204.2,106.5z"/>
							</g>
						</g>
					</g>
				</g>
				<g>
					<g>
						<g>
							<path class="st13" d="M189.6,141c-0.9,0.7-0.9,6.6,1.4,13.3c2.3,6.7,8.8,8.7,14.8,7.8c5.9-0.9,10.1-6.2,9.8-13.5
								c0-1.9,2.8-2.6,3.2-0.2c0.9,5.1-2.7,16.1-12.2,17c-9.7,1-15.3-2.3-18.3-8.5s-2.4-14.8-3.2-15.9"/>
						</g>
					</g>
					<g>
						<g>
							<path class="st9" d="M203.3,166.5c-7.6,0-12.8-3-15.8-9.2c-2-4.2-2.5-9.3-2.7-12.8c-0.1-1.3-0.2-2.7-0.4-3
								c-0.3-0.4-0.2-0.9,0.2-1.2c0.4-0.3,1-0.2,1.3,0.2c0.4,0.6,0.5,1.6,0.7,3.9c0.3,3.3,0.7,8.2,2.6,12.1c3,6.3,8.7,8.9,17.4,8
								c4.1-0.4,6.7-2.8,8.1-4.7c2.8-3.6,3.8-8.5,3.3-11.3c-0.1-0.4-0.3-0.8-0.7-0.8c-0.3,0-0.7,0.3-0.7,0.8
								c0.3,7.5-4,13.4-10.6,14.4c-5.9,0.9-13.2-0.8-15.8-8.4c-2.1-6.3-2.7-13.1-1.1-14.3c0.4-0.3,1-0.2,1.3,0.2
								c0.3,0.4,0.2,0.9-0.1,1.2c-0.5,0.8-0.5,6.1,1.6,12.3c2.2,6.5,8.6,8,13.8,7.2c5.7-0.9,9.3-5.9,9-12.6c0-1.4,1-2.5,2.4-2.7
								c1.1-0.1,2.3,0.6,2.6,2.3c0.6,3.2-0.5,8.6-3.6,12.7c-2.4,3.2-5.7,5-9.4,5.4C205.5,166.4,204.4,166.5,203.3,166.5z
								 M190.2,141.7C190.2,141.7,190.2,141.7,190.2,141.7C190.2,141.7,190.2,141.7,190.2,141.7z M190.2,141.6L190.2,141.6z"/>
						</g>
					</g>
				</g>
				<g>
					<g>
						<g>
							<path class="st13" d="M216.8,148.4c-0.6,0.1-1.4,0.2-1.4,0.2c-1-0.5-2-1.4-2.6-2.7c-1.1-2.6,0.1-5.5,0.1-5.5l-0.6-1.7
								c0,0,3.9,0.3,5.9,3.4c1.9,3.1,0.4,6.4,0.4,6.4S217.5,148.3,216.8,148.4z"/>
						</g>
					</g>
				</g>
				<g>
					<g>
						<g>
							<g>
								<path class="st9" d="M218.6,149.4c-0.2,0-0.3,0-0.5-0.1c-0.4-0.3-0.5-0.8-0.3-1.2l0,0c0.1-0.1,1.5-2.5,0-4.9
									c-1-1.6-2.9-2.6-4.2-3.1c0.4,1.3,0.8,2.6,1,2.9c0.3,0.4,0.2,1-0.2,1.3c-0.4,0.3-1,0.2-1.3-0.2c-0.8-1-1.5-4.2-1.8-5.2
									c-0.1-0.3,0-0.6,0.2-0.8s0.5-0.3,0.8-0.3c0.2,0,4.7,1,6.8,4.3c2.2,3.5,0.1,6.7,0,6.9C219.2,149.3,218.9,149.4,218.6,149.4z"
									/>
							</g>
						</g>
					</g>
					<g>
						<g>
							<g>
								<path class="st9" d="M215.4,149.5c-0.1,0-0.2,0-0.3-0.1c-0.1,0-5.1-2.1-2.9-8.7c0.2-0.5,0.7-0.7,1.1-0.6
									c0.5,0.2,0.7,0.7,0.6,1.1c-1.6,4.9,1.5,6.3,1.9,6.5c0.5,0.2,0.7,0.7,0.5,1.2C216.1,149.3,215.8,149.5,215.4,149.5z"/>
							</g>
						</g>
					</g>
				</g>
				<g class="st30">
					<g>
						<g>
							<path class="st21" d="M52.5,109.7c0,0,4,2.9,6.6,7.8c2.6,5,3.8,6.2,3.8,6.2s-1.2,2.1,2.9,10.4c4,8.3,6.4,10.6,10.4,13.7
								c4,3.1,22.8,3.3,22.8,3.3l0.2-5.6c0,0-19.7-9.5-19.7-10.4c0-1-16.2-30.8-16.2-30.8L52.5,109.7z"/>
						</g>
					</g>
				</g>
				<g>
					<g>
						<g>
							<path class="st13" d="M103.2,141.3c0,1.5-0.3,3.2-0.9,4.5c-0.4,1.1-1.1,1.8-1.7,1.9c-1.7,0.3-20.9-2.8-23.1-4.3
								s-6.2-7.3-9.5-12.6c-3.3-5.2-2.9-8.6-1.4-10l0,0c0.1-0.1,0.3-0.2,0.7-0.4c1.6-0.9,5.5-2.3,9.7,2.9c1.6,2.1,2.3,2.9,2.4,3
								c-1.1-1.4-1.8-2.6-2-2.8c0.3,0.4,2.2,3,2,2.9c2,2.9,5.1,6.7,6.2,6.8c1.7,0.1,16.7,1.5,16.7,1.5S103.2,138.7,103.2,141.3z"/>
						</g>
					</g>
				</g>
				<g>
					<g>
						<g>
							<path class="st14" d="M102.4,145.8c-0.4,1.1-1.1,1.8-1.7,1.9c-1.7,0.3-20.9-2.8-23.1-4.3s-6.2-7.3-9.5-12.6
								c-3.3-5.2-2.9-8.6-1.4-10l0,0l0.7-0.4c1.6-0.9,5.5-2.3,9.7,2.9l0.4,0.5c-3-0.5-2.7,4.8-0.3,10.6c2.3,5.9,10.9,8.5,16.9,9.8
								C97.4,145.1,100.4,145.5,102.4,145.8z"/>
						</g>
					</g>
				</g>
				<g>
					<g>
						<g>
							<path class="st9" d="M100.4,148.6c-3.4,0-21-2.9-23.3-4.5c-2.6-1.8-7.2-8.8-9.8-12.9c-3.6-5.7-3-9.5-1.2-11.1
								c0.4-0.3,0.9-0.3,1.3,0c0.3,0.4,0.3,0.9,0,1.3c-1.2,1.1-1.5,4.1,1.5,8.9c4.1,6.6,7.5,11.2,9.2,12.3
								c1.9,1.3,20.5,4.4,22.4,4.2c0.2,0,0.7-0.5,1-1.3c0.5-1.2,0.8-2.7,0.8-4.2c0-1.9-0.6-4.6-0.8-5.8c-2.9-0.3-14.6-1.4-16-1.4
								c-1.8-0.1-5.8-5.5-8.9-10.1c-0.3-0.4-0.2-1,0.2-1.2c0.4-0.3,1-0.2,1.2,0.2c2.9,4.2,6.6,9,7.6,9.3c1.6,0.1,16.1,1.4,16.7,1.5
								c0.4,0,0.7,0.3,0.8,0.7c0,0.2,1,4.1,1,6.8c0,1.7-0.4,3.5-1,4.9c-0.5,1.3-1.4,2.2-2.4,2.4
								C100.8,148.6,100.6,148.6,100.4,148.6z"/>
						</g>
					</g>
				</g>
				<g>
					<g>
						<g>
							<path class="st9" d="M102.9,143.9c0,0-0.1,0-0.1,0c-1.2-0.2-3.2-0.1-3.2-0.1c-0.5,0-0.9-0.4-0.9-0.9c0-0.5,0.4-0.9,0.9-0.9
								c0.1,0,2.2-0.1,3.6,0.1c0.5,0.1,0.8,0.5,0.8,1C103.7,143.6,103.3,143.9,102.9,143.9z"/>
						</g>
					</g>
				</g>
				<g>
					<g>
						<g>
							<path class="st9" d="M102.8,139.3c-0.1,0-0.1,0-0.2,0c-0.9-0.2-2.6-0.1-3.1-0.1c-0.5,0-0.9-0.3-1-0.8s0.3-0.9,0.8-1
								c0.1,0,2.3-0.2,3.7,0.1c0.5,0.1,0.8,0.6,0.7,1.1C103.6,139,103.2,139.3,102.8,139.3z"/>
						</g>
					</g>
				</g>
				<g>
					<g>
						<g>
							<g>
								<path class="st15" d="M97.7,110c-1.7,2.6-3.8,4.6-6,6.1c-2.6,1.8-5,2.9-6.9,3c1.1-1.8,0.7-2.9,0.7-2.9s-3.3,4.3-10.3,4.6
									c-0.4,0-1,0-1.4,0l0.9-0.7c-0.1,0.1-0.2,0.1-0.4,0.2c-0.1,0.1-0.3,0.2-0.5,0.2c-0.1,0.1-0.3,0.1-0.4,0.2
									c-0.5,0.2-1.1,0.3-1.7,0.5c-0.3,0.1-0.7,0.1-1.2,0.1c-0.3,0-0.6,0-1,0c-3.3,0-5.9-2.7-8-5.1c-0.7-1-1.5-1.9-2.2-2.7
									c-2.4-2.9-5-3.9-8.4-4.8c1.8-1.6,3.2-6.9,4.6-12.2c0.4-1.6,1-2.9,1.6-3.7H57l-3.7-0.5l0,0c0.3-0.4,2.9-3.8,8.8-8.3
									c2-1.5,4.4-2.7,7-3.5c5.6-1.8,12.4-2,18.4-0.7c3.6,4.9,7.1,12.4,7.2,12.6l-0.3,0.1L91,92.9l-1,0.2l-2.9,0.5l-12.9,2.2
									l5.1,8.6l8.6-2.7l2.9-0.9l6.2-1.9l0.4-0.1C97.5,98.9,101.4,104.5,97.7,110z"/>
							</g>
						</g>
					</g>
					<g>
						<g>
							<g>
								<path class="st31" d="M84.8,119.1c1.1-1.8,0.7-2.9,0.7-2.9s-3.3,4.3-10.3,4.6c-0.4,0-1,0-1.4,0l0.9-0.7
									c-0.1,0.1-0.2,0.1-0.4,0.2c-0.1,0.1-0.3,0.2-0.5,0.2c-0.1,0.1-0.3,0.1-0.4,0.2c-0.5,0.2-1.1,0.3-1.7,0.5
									c-0.3,0.1-0.7,0.1-1.2,0.1c-0.3,0-0.6,0-1,0c-3.3,0-5.9-2.7-8-5.1c-0.7-1-1.5-1.9-2.2-2.7c-2.4-2.9-5-3.9-8.4-4.8
									c1.8-1.6,3.2-6.9,4.6-12.2c0.4-1.6,1-2.9,1.6-3.7H57l-3.7-0.5l0,0c0.3-0.4,2.9-3.8,8.8-8.3c2-1.5,4.4-2.7,7-3.5
									c-5.6,6.3-9.7,19.7-8.4,21.4c1.4,1.9,3.5,3.5,3.5,3.5s-0.7,3.4-0.2,6.9c2.4,1.3,9.6,1.3,9.6,1.3s1.4,3,5,2.9
									c3.5-0.2,6.4-2.7,6.4-2.7c0,0.1,0.1,2,6.5,2.2C89.2,117.9,86.7,118.9,84.8,119.1z"/>
							</g>
						</g>
					</g>
					<g>
						<g>
							<g>
								<path class="st13" d="M93.4,109.5c-1.1,0.6-2.3,0.9-3.5,0.9c-1.9,0-3.4-0.4-3.4-0.4s-9.6,1.8-14.8-1.4
									c-3.5-9.4-1.6-16.9-1.6-16.9s1.2-0.7,2.9-1.8c3.1-1.9,8.1-4.5,11.7-4.8c3.7,0.9,10,6.2,12.5,11
									C97.3,99.6,96.2,107.9,93.4,109.5z"/>
							</g>
						</g>
					</g>
					<g>
						<g>
							<g>
								<path class="st14" d="M89.9,110.4c-1.9,0-3.4-0.4-3.4-0.4s-9.6,1.8-14.8-1.4c-3.5-9.4-1.6-16.9-1.6-16.9s1.2-0.7,2.9-1.8
									c0.1,0,0.1,0.1,0.1,0.1s-1.4,6.9,1.9,14.9c3.9,3.4,11,3.5,11,3.5S88,109.5,89.9,110.4z"/>
							</g>
						</g>
					</g>
					<g>
						<g>
							<g>
								<path class="st9" d="M80.5,111.3c-3.1,0-6.7-0.4-9.3-2c-0.2-0.1-0.3-0.3-0.4-0.4c-3.6-9.6-1.7-17.1-1.6-17.4
									c0.1-0.2,0.2-0.4,0.4-0.5c0.4-0.3,9.4-6.5,15-6.7c0.1,0,0.2,0,0.2,0c4.2,1,10.7,6.7,13.1,11.5c0.1,0.1,0.1,0.2,0.1,0.4
									c0.2,3-0.5,12.3-4.2,14.3c-2.8,1.6-6.4,0.7-7.4,0.4C85.7,110.9,83.3,111.3,80.5,111.3z M72.4,107.9
									c4.8,2.8,13.8,1.1,13.9,1.1c0.1,0,0.3,0,0.4,0c0,0,3.7,1.2,6.2-0.2c2.1-1.2,3.4-8.3,3.2-12.5c-2.4-4.6-8.3-9.5-11.7-10.3
									c-4.6,0.2-12,5.1-13.6,6.1C70.6,93.6,69.6,100.1,72.4,107.9z"/>
							</g>
						</g>
					</g>
					<g>
						<g>
							<g>
								<path class="st9" d="M57.3,93.7c0,0-0.1,0-0.1,0l-3.7-0.5c-0.3,0-0.6-0.2-0.7-0.5c-0.1-0.3-0.1-0.6,0.1-0.9
									c0.1-0.1,2.6-3.7,9-8.5c6.1-4.7,16.4-6.4,26.1-4.5c0.2,0,0.4,0.2,0.5,0.3c3.7,4.9,7.2,12.5,7.3,12.8c0.2,0.5,0,1-0.4,1.2
									c-0.5,0.2-1,0-1.2-0.4c0-0.1-3.4-7.4-6.9-12.2c-9.1-1.8-18.7-0.1-24.3,4.2c-4,3-6.4,5.5-7.6,6.9l2.1,0.3
									c0.5,0.1,0.8,0.5,0.8,1C58.1,93.4,57.7,93.7,57.3,93.7z"/>
							</g>
						</g>
					</g>
					<g>
						<g>
							<g>
								<path class="st9" d="M70.5,122.2h-1c-3.6,0-6.4-2.8-8.7-5.4c-0.7-1-1.4-1.8-2.1-2.6l-0.1-0.1c-2.2-2.6-4.5-3.6-8-4.5
									c-0.3-0.1-0.6-0.3-0.6-0.7c-0.1-0.3,0-0.7,0.3-0.9c1.6-1.4,3-6.9,4.3-11.8c0.4-1.6,1-3,1.8-4c1.4-2.2,3-2.7,3.2-2.7
									c0.5-0.1,1,0.1,1.1,0.6s-0.1,1-0.6,1.1c0,0-1.1,0.4-2.2,2c-0.6,0.8-1.1,2-1.5,3.4c-1.2,4.7-2.4,9.1-3.9,11.5
									c2.7,0.8,5.2,1.9,7.5,4.7l0.1,0.1c0.7,0.8,1.5,1.7,2.1,2.6c2,2.2,4.4,4.7,7.3,4.7h1c0.4,0,0.8,0,0.9-0.1
									c0.3-0.1,0.6-0.2,0.8-0.2c0.2-0.1,0.5-0.1,0.7-0.2c0.1-0.1,0.2-0.1,0.3-0.1c0.1-0.1,0.3-0.1,0.4-0.1c0.1,0,0.1-0.1,0.2-0.1
									c0.1-0.1,0.2-0.1,0.3-0.1c0,0,0,0,0.1,0c0.9-0.6,1.4-1.1,1.4-1.1c0.3-0.4,0.9-0.4,1.3-0.1c0.4,0.3,0.4,0.9,0.1,1.3
									c-0.1,0.1-0.6,0.7-1.7,1.4c-0.2,0.1-0.3,0.2-0.4,0.2c0,0,0,0,0,0c-0.2,0.1-0.4,0.3-0.7,0.3c-0.1,0-0.1,0.1-0.2,0.1
									c-0.1,0-0.1,0.1-0.2,0.1c-0.3,0.1-0.7,0.2-1,0.3c-0.2,0.1-0.5,0.1-0.7,0.2C71.5,122.2,71.1,122.2,70.5,122.2z M73.2,119.9
									C73.2,119.9,73.2,119.9,73.2,119.9C73.2,119.9,73.2,119.9,73.2,119.9z M73.7,119.7C73.7,119.7,73.7,119.7,73.7,119.7
									C73.7,119.7,73.7,119.7,73.7,119.7z M73.8,119.6C73.8,119.6,73.8,119.6,73.8,119.6C73.8,119.6,73.8,119.6,73.8,119.6z
									 M74.1,119.5C74.1,119.5,74.1,119.5,74.1,119.5C74.1,119.5,74.1,119.5,74.1,119.5z"/>
							</g>
						</g>
					</g>
					<g>
						<g>
							<g>
								<path class="st9" d="M73.8,121.8c-0.5,0-0.9-0.4-0.9-0.9s0.4-0.9,0.9-0.9h1.4c6.5-0.3,9.6-4.2,9.6-4.2
									c0.2-0.3,0.6-0.4,0.9-0.3c0.3,0.1,0.6,0.3,0.7,0.6c0,0.1,0.2,0.8-0.1,1.9c3.3-0.9,7.6-3.9,10.6-8.4c3.4-5,0.1-10.1-0.1-10.3
									c-0.3-0.4-0.2-1,0.2-1.2c0.4-0.3,1-0.2,1.2,0.2c0.2,0.3,4.2,6.3,0.1,12.3c-3.8,5.7-9.8,9.2-13.5,9.5c-0.3,0-0.7-0.1-0.8-0.4
									c-0.1-0.2-0.2-0.5-0.1-0.8c-1.8,1.3-4.7,2.7-8.7,2.9L73.8,121.8z"/>
							</g>
						</g>
					</g>
					<g>
						<g>
							<g>
								<path class="st9" d="M89.2,97.7c-0.3,0-0.6-0.2-0.8-0.5c-2-3.9-6.3-7.5-6.4-7.5c-0.4-0.3-0.4-0.9-0.1-1.3
									c0.3-0.4,0.9-0.4,1.3-0.1c0.2,0.2,4.7,3.9,6.8,8.1c0.2,0.4,0.1,1-0.4,1.2C89.5,97.7,89.3,97.7,89.2,97.7z"/>
							</g>
						</g>
					</g>
					<g>
						<g>
							<g>
								<path class="st9" d="M84.7,107.9l-0.9-1.6c0,0,2.2-1.3,3.1-1.8c0.2-0.5,0.4-2.4,0.4-4.3c0-0.3,0.1-0.6,0.4-0.7
									c0.2-0.2,0.5-0.2,0.8-0.1l2.8,0.8l1.7-0.3c0.5-0.1,1,0.3,1,0.7c0.1,0.5-0.3,1-0.7,1l-1.9,0.3c-0.1,0-0.3,0-0.4,0l-1.8-0.6
									c-0.1,3.9-0.9,4.4-1.1,4.6C87.1,106.5,84.7,107.9,84.7,107.9z"/>
							</g>
						</g>
					</g>
					<g>
						<g>
							<g>
								<path class="st9" d="M84.4,99.3c0.9,1,2.3,1.1,3.6,0.3s1.8-2.1,1.4-3.3L84.4,99.3z"/>
							</g>
						</g>
					</g>
					<g>
						<g>
							<g>
								<path class="st9" d="M75.8,98.5c-0.2,0-0.4-0.1-0.6-0.2c-0.4-0.3-0.4-0.9-0.1-1.3c0.1-0.1,2-2.2,5.1-2.1
									c0.5,0,0.9,0.4,0.9,0.9s-0.4,0.9-0.9,0.9c-2.2-0.1-3.7,1.5-3.7,1.5C76.3,98.4,76,98.5,75.8,98.5z"/>
							</g>
						</g>
					</g>
					<g>
						<g>
							<g>
								<path class="st9" d="M87.6,92c-0.3,0-0.6-0.1-0.7-0.4c-0.3-0.4-0.2-1,0.2-1.3c1.2-0.8,2.4-1.2,3.4-1.1
									c0.5,0.1,0.8,0.5,0.8,1c-0.1,0.5-0.5,0.8-1,0.8c-0.6-0.1-1.4,0.2-2.2,0.7C88,91.9,87.8,92,87.6,92z"/>
							</g>
						</g>
					</g>
					<g>
						<g>
							<g>
								<path class="st9" d="M65.3,101.4c-0.1,0-0.1,0-0.2,0c-2.2-0.4-3.2-2.1-3.2-3.6c0-1.4,0.9-3,3-3.3c0.5-0.1,1,0.2,1,0.7
									c0.1,0.5-0.2,1-0.7,1c-1.1,0.2-1.5,0.9-1.5,1.6c0,0.7,0.4,1.5,1.7,1.8c0.5,0.1,0.8,0.6,0.7,1.1
									C66.1,101.1,65.7,101.4,65.3,101.4z"/>
							</g>
						</g>
					</g>
					<g id="Eye_3_">
						<g>
							<g>
								<path class="st9" d="M80,98.7c-0.2,0-0.5-0.1-0.6-0.3c-0.4-0.4-0.3-0.9,0-1.3l0.1-0.1c0.4-0.3,0.9-0.3,1.3,0
									c0.4,0.4,0.3,0.9,0,1.3l-0.1,0.1C80.5,98.6,80.2,98.7,80,98.7z"/>
							</g>
						</g>
					</g>
					<g id="Eye_2_">
						<g>
							<g>
								<path class="st9" d="M90.6,93.4h-0.1c-0.5,0-0.9-0.4-0.9-0.9s0.4-0.9,0.9-0.9h0.1c0.5,0,0.9,0.4,0.9,0.9
									S91.1,93.4,90.6,93.4z"/>
							</g>
						</g>
					</g>
				</g>
				<g>
					<g>
						<g>
							<path class="st14" d="M151.5,173.9c-2.2-2.1-4.6-2.6-4.6-2.6h-0.6c1.4-1.9,2.4-4.5,2.6-7c0.1-4.4-10.9-13.4-10.9-13.4
								l-6.6,10.4c0,0,4.4,4.4,3.7,7.7c-0.3,1.7,0.7,2.6,1.8,3.1h-0.1c0,0,3.1,5.9,2.8,9.9c4.2,0.2,14.2-0.4,14.2-0.4
								S153.7,176.1,151.5,173.9z"/>
						</g>
					</g>
				</g>
				<g>
					<g>
						<g>
							<path class="st9" d="M141.2,176.5c-0.3,0-0.6-0.2-0.8-0.4c-0.3-0.4-0.1-1,0.3-1.2c2.9-1.7,7.1-6,6.9-11.1
								c-0.1-2.4-6.6-9.2-10.9-12.4c-0.4-0.3-0.5-0.9-0.2-1.3c0.3-0.4,0.9-0.5,1.3-0.2c2.9,2.3,11.4,10,11.5,13.8
								c0.2,5.2-3.7,10.4-7.7,12.7C141.5,176.5,141.4,176.5,141.2,176.5z"/>
						</g>
					</g>
				</g>
				<g>
					<g>
						<g>
							<path class="st9" d="M150.2,182.1c-0.5,0-0.9-0.4-0.9-0.9c-0.1-2.3-0.9-3-0.9-3.1c-0.4-0.3-0.4-0.9-0.1-1.3
								c0.3-0.4,0.9-0.4,1.2-0.1c0.1,0.1,1.4,1.2,1.5,4.4C151.1,181.7,150.7,182.1,150.2,182.1C150.2,182.1,150.2,182.1,150.2,182.1
								z"/>
						</g>
					</g>
				</g>
				<g>
					<g>
						<g>
							<path class="st9" d="M138.3,183.2c-0.5,0-0.9-0.4-0.9-0.8c0-0.5,0.3-0.9,0.8-1c1.1-0.1,3.6-0.2,6.1-0.3
								c3.1-0.1,6.6-0.2,8.4-0.4c0.3-7.1-6.1-8.5-6.3-8.6c-0.5-0.1-0.8-0.6-0.7-1.1c0.1-0.5,0.6-0.8,1.1-0.7c0.1,0,8.7,1.9,7.7,11.3
								c0,0.4-0.4,0.8-0.8,0.8c-1.6,0.2-5.7,0.3-9.3,0.5C141.9,183,139.5,183.1,138.3,183.2C138.3,183.2,138.3,183.2,138.3,183.2z"
								/>
						</g>
					</g>
				</g>
				<g>
					<g>
						<g>
							<path class="st14" d="M59.5,163.6c7.9-1.7,17,2.8,22.5,6.1c15,11,24.6,8.7,31.1,5.6c1.5-0.4,3.7,4.7,1.4,5.6
								c-9.2,2.8-17.7,2.2-29.7-4.6c-7.5-4.3-14.8-9.5-23.5-9.5C58.4,168,56.8,164.4,59.5,163.6z"/>
						</g>
					</g>
				</g>
				<g>
					<g>
						<g>
							<path class="st13" d="M74.7,165.9c-6-1.1-12.6-1.4-15.2-0.5c-0.3,0.2-0.6,0.4-1,0.6c-0.1,0-0.2,0.1-0.2,0.1
								c-0.2-1.2,0-2,0.3-2.6c0.2,0,0.3,0,0.4,0c0.3,0,0.4,0.1,0.4,0.1C64.5,162.5,70,163.9,74.7,165.9z"/>
						</g>
					</g>
				</g>
				<g>
					<g>
						<g>
							<g>
								<path class="st9" d="M104.9,183.2c-5.3,0-12.7-1.3-20.9-6.5c-6.8-4.3-16.7-10-23-9c-1.8,0.6-3.1-0.3-3.5-1.3
									c-0.5-1.2-0.1-2.9,1.5-3.7c0.1,0,0.1-0.1,0.2-0.1c8.5-1.8,18.2,3.1,23.2,6.2c8.7,5.8,18.1,11.1,28.9,6
									c1.2-0.6,2.6-0.5,3.6,0.2c1.1,0.8,1.6,2.2,1.5,3.5c-0.2,1.6-1.4,2.8-3.1,3.5C112.9,182.1,109.8,183.2,104.9,183.2z
									 M62.5,165.9c6.7,0,15.4,4.9,22.4,9.4c15.1,9.6,27.5,5.2,27.6,5.1c1.1-0.4,1.8-1.2,2-2.1c0.1-0.7-0.2-1.5-0.7-1.8
									c-0.5-0.3-1.1-0.4-1.7,0c-11.7,5.5-22-0.2-30.7-6.1c-4.7-2.9-13.8-7.6-21.7-6c-0.6,0.4-0.8,1-0.6,1.4c0.2,0.6,1,0.4,1.4,0.3
									c0,0,0.1,0,0.1,0C61.2,165.9,61.8,165.9,62.5,165.9z"/>
							</g>
						</g>
					</g>
				</g>
				<g>
					<g>
						<g>
							<g>
								<path class="st14" d="M60.7,166.9c0,0-1.9,2.7-5,5.1c-3.1,2.3-7.6,1.7-7.6,1.7l1-3.5c0,0,0.2-4.3,3.8-5.6
									c3.5-1.4,6.5-0.9,6.5-0.9C59.5,164.1,60.6,165.5,60.7,166.9z"/>
							</g>
						</g>
					</g>
					<g>
						<g>
							<g>
								<path class="st13" d="M60.1,165.2c-3,1.9-6.1,1.3-9.1,0.5c0.4-0.5,1.1-1,1.9-1.3c2.3-1,4.5-1,5.5-1
									C58.8,164.6,62,164,60.1,165.2z"/>
							</g>
						</g>
					</g>
					<g>
						<g>
							<g>
								<g>
									<path class="st9" d="M49.5,171.5c-0.4,0-0.8-0.3-0.9-0.7c-0.4-2.3,0.3-4.4,2.1-5.9c2.7-2.3,7.2-2.9,9.1-2.2
										c0.5,0.2,0.7,0.7,0.5,1.2c-0.2,0.5-0.7,0.7-1.2,0.5c-1.2-0.4-5.1-0.1-7.3,1.9c-1.3,1.1-1.8,2.5-1.5,4.2
										c0.1,0.5-0.2,1-0.7,1.1C49.6,171.5,49.6,171.5,49.5,171.5z"/>
								</g>
							</g>
						</g>
						<g>
							<g>
								<g>
									<path class="st9" d="M50,174.7c-0.7,0-1.4-0.1-2-0.2c-0.2,0-0.5-0.2-0.6-0.4c-0.1-0.2-0.2-0.5-0.1-0.7
										c0.7-3.1,2.1-4.9,4.8-6c0.5-0.2,1,0,1.2,0.5c0.2,0.5,0,1-0.5,1.2c-1.9,0.8-2.9,1.9-3.5,3.8c2.6,0.2,6-0.7,10.7-6.5
										c0.3-0.4,0.9-0.5,1.3-0.1c0.4,0.3,0.5,0.9,0.1,1.3C56.7,173.3,52.9,174.7,50,174.7z"/>
								</g>
							</g>
						</g>
					</g>
				</g>
				<g>
					<g>
						<g>
							<path class="st13" d="M111.9,175.8c0,0-3.3-12.4-0.6-21.4c1.3-4.5,4.7-9.4,6.3-13.2c2.8-6.6,4-14.5,3.3-22
								c0,0,3.9-1.7,12.9-1.1c8.9,0.7,12,2.7,12,2.7s3.9,6.4,2.8,10.9c-1.2,4.5-7.2,21.8-7.2,21.8s-0.6,2.7-1.2,7
								c2.2,4.7,0.1,9.9-0.2,12c6,1.2,5.9,9.9,5.9,9.9s-8.1,1.7-17.8,1.4c-2.7-0.1-5-0.3-6.9-0.5c-5.1-0.7-7.7-1.8-7.7-1.8
								C114.3,178.4,111.9,175.8,111.9,175.8z"/>
						</g>
					</g>
				</g>
				<g>
					<g>
						<g>
							<path class="st14" d="M111.7,175.6c0,0-3.2-12.2-0.5-21.2c1.3-4.5,4.7-9.4,6.3-13.2c2.8-6.6,4-14.5,3.3-22l4.7-0.7
								c0,0,5,4,6.7,5.7s-4.3,25.3-4.8,26.8c-0.4,1.4-4.7,1.2-5.6,9.7s3.1,16.6,3.1,16.6s-4.5,2.1-3.9,6.1c-5.1-0.7-7.7-1.8-7.7-1.8
								L111.7,175.6z"/>
						</g>
					</g>
				</g>
				<g>
					<g>
						<g>
							<path class="st14" d="M129,112.9c3.1-0.1,10.1-0.3,13.6,1.6c3.6,2,3.6,6.1,3.7,6.8c0.2,1.4-2.6,1.7-6.4,3.6s-7.3,5.2-9.1,9.1
								c-1.7,3.8-5-4.3-5-6.2s-5.6-8.4-5.6-8.4S122.7,113.1,129,112.9z"/>
						</g>
					</g>
				</g>
				<g>
					<g>
						<g>
							<path class="st9" d="M126,178.6c-0.8,0-1.7,0-2.6-0.1c-0.5,0-0.9-0.5-0.8-1s0.5-0.9,1-0.8c6.3,0.4,11.1-0.8,13.8-3.4
								c2-2,3-4.8,2.8-8.5c-0.1-3.8-5.2-8.5-15-13.8c-0.4-0.2-0.6-0.8-0.4-1.2c0.2-0.4,0.8-0.6,1.2-0.4c6.8,3.7,15.8,9.3,16,15.4
								c0.2,4.2-1,7.5-3.4,9.8C135.8,177.3,131.6,178.6,126,178.6z"/>
						</g>
					</g>
				</g>
				<g>
					<g>
						<g>
							<path class="st9" d="M142.8,183.2c-0.5,0-0.9-0.4-0.9-0.9c-0.1-2.3-0.9-3-0.9-3.1c-0.4-0.3-0.4-0.9-0.1-1.3
								c0.3-0.4,0.9-0.4,1.2-0.1c0.1,0.1,1.4,1.2,1.5,4.4C143.7,182.8,143.3,183.2,142.8,183.2C142.8,183.2,142.8,183.2,142.8,183.2
								z"/>
						</g>
					</g>
				</g>
				<g>
					<g>
						<g>
							<path class="st9" d="M128.4,184.8c-7.6,0-12.8-0.9-16-2.7c-0.4-0.2-0.6-0.8-0.3-1.2c0.2-0.4,0.8-0.6,1.2-0.3
								c4.7,2.7,15.1,3.2,31.9,1.5c0.4-7.1-5.5-8.3-5.7-8.4c-0.5-0.1-0.8-0.6-0.7-1.1c0.1-0.5,0.6-0.8,1.1-0.7
								c0.1,0,8.1,1.7,7.1,11.1c0,0.4-0.4,0.8-0.8,0.8C139.2,184.4,133.3,184.8,128.4,184.8z"/>
						</g>
					</g>
				</g>
				<g>
					<g>
						<g>
							<path class="st9" d="M111.5,176.6c-0.4,0-0.8-0.3-0.9-0.7c-0.1-0.5-3.2-12.6-0.5-21.7c0.9-2.8,2.4-5.7,3.9-8.4
								c0.9-1.8,1.8-3.4,2.4-4.9c2.6-6.2,3-13.2,3.2-21.7c0.2-5.1,4.9-7.6,14.5-7.9c8.6-0.2,10.7,3.8,11.2,5l3.9,11.6
								c0,0.1,0.1,0.2,0,0.4c-0.6,6.8-2.8,12.9-4.9,18.9c-1.6,4.6-3.2,8.9-3.9,13.1c-0.1,0.5-0.5,0.8-1,0.7c-0.5-0.1-0.8-0.5-0.7-1
								c0.7-4.4,2.3-8.8,4-13.4c2.1-5.8,4.2-11.8,4.8-18.2l-3.8-11.4c-0.2-0.7-1.8-4-9.4-3.8c-8.4,0.2-12.6,2.2-12.7,6.1
								c-0.2,6.8-0.4,15.3-3.4,22.3c-0.7,1.5-1.6,3.2-2.5,5c-1.4,2.7-2.9,5.5-3.7,8.1c-2.6,8.6,0.5,20.6,0.5,20.7
								c0.1,0.5-0.2,1-0.6,1.1C111.7,176.6,111.6,176.6,111.5,176.6z"/>
						</g>
					</g>
				</g>
				<g>
					<g>
						<g>
							<g>
								<g>
									<path class="st32" d="M157.1,101.7c-0.2,3.8-11.1,17.9-11.1,17.9s-12.7-0.3-18.4-1.2c-1-0.1-1.8,0.4-2.3,0.5
										c-5,0.7-8.2-2.3-8.2-2.3s-7.1-6.1-9.1-12.2c-0.5-5,1.8-15.7,9.4-23.3c6.8-6.8,15.2-7.6,18.7-7.5c1.1,0,1.7,0.1,1.7,0.1
										s0.6,0.4,1.6,1.2l3.1-1.2c0,0,3.3,1.7,7.5,7C153.9,85.9,157.3,97.9,157.1,101.7z"/>
								</g>
							</g>
						</g>
						<g>
							<g>
								<g>
									<path class="st33" d="M118.3,89.3c-5,9.8-4.3,13.7-4.3,13.7s0,1.6,2.9,3.4c1.6,3.4,6.1,8,9.4,8.8c1.4,0.3,1.6,1.7,1.3,3.2
										c-1,0.2-1.8,0.4-2.3,0.5c-5,0.7-8.2-2.3-8.2-2.3s-7.1-6.1-9.1-12.2c-0.5-5,1.8-15.7,9.4-23.3c6.8-6.8,15.2-7.6,18.7-7.5
										l-0.1,0.2C136.1,73.8,123.1,79.8,118.3,89.3z"/>
								</g>
							</g>
						</g>
						<g>
							<g>
								<g>
									<path class="st9" d="M145.6,120.9c0,0-0.1,0-0.1,0s-4.2-0.6-10.4-0.6c-6.3,0-9.7-0.9-9.8-0.9c-0.5-0.1-0.8-0.6-0.6-1.1
										c0.1-0.5,0.6-0.8,1.1-0.6c0,0,3.3,0.9,9.4,0.9c5.2,0,9,0.4,10.2,0.6c0.6-0.5,2.1-2,3.4-4c3.1-4,7.8-11.4,7.5-14.4
										c-1.7-8.7-3.6-14.3-6.1-18c-2.9-4.5-6.7-7.2-7.8-7.9c-0.5,0.1-1.6,0.3-2.3,0.6c-0.5,0.2-1,0-1.2-0.5c-0.2-0.5,0-1,0.5-1.2
										c1.3-0.5,3.1-0.8,3.1-0.8c0.2,0,0.4,0,0.6,0.1c0.2,0.1,5,3.1,8.6,8.6c2.6,3.9,4.6,9.7,6.3,18.7c0.5,4.9-7.4,15.3-7.8,15.7
										c-1.8,2.7-4,4.5-4,4.6C146,120.8,145.8,120.9,145.6,120.9z"/>
								</g>
							</g>
						</g>
						<g>
							<g>
								<g>
									<path class="st9" d="M117.1,117.5c-0.2,0-0.4-0.1-0.6-0.2c-0.3-0.3-7.3-6.3-9.4-12.6c0-0.1,0-0.1,0-0.2
										c-0.5-5.1,1.7-16.1,9.7-24c9-9,20.6-7.8,21.1-7.8c0.2,0,0.3,0.1,0.4,0.2c0,0,2,1.5,4.7,3.6c0.4,0.3,0.5,0.9,0.2,1.3
										c-0.3,0.4-0.9,0.5-1.3,0.2c-2.2-1.7-3.9-3-4.5-3.4c-1.7-0.1-11.7-0.4-19.4,7.3c-7.5,7.4-9.6,17.7-9.1,22.5
										c1.9,5.8,8.7,11.6,8.8,11.7c0.4,0.3,0.4,0.9,0.1,1.3C117.6,117.4,117.4,117.5,117.1,117.5z"/>
								</g>
							</g>
						</g>
					</g>
					<g>
						<g>
							<g>
								<path class="st9" d="M121.9,120c-2.1,0-4.3-0.8-5.5-3.4c-1.5-3.5-1.4-6.9-1.4-7c0-0.5,0.4-0.9,0.9-0.9
									c0.5,0,0.9,0.4,0.9,0.9c0,0-0.1,3.2,1.2,6.2c1.8,3.8,6.5,1.8,6.7,1.7c0.5-0.2,1,0,1.2,0.5c0.2,0.5,0,1-0.5,1.2
									C124.6,119.6,123.2,120,121.9,120z"/>
							</g>
						</g>
					</g>
				</g>
				<g>
					<g>
						<g>
							<path class="st9" d="M120,89.4c-0.2,0-0.3,0-0.5-0.1c-1.6-1-2.2-3.1-1.2-4.8c1-1.7,3.1-2.2,4.8-1.3c0.4,0.2,0.6,0.8,0.4,1.2
								c-0.2,0.4-0.8,0.6-1.2,0.4c-0.9-0.5-1.9-0.2-2.4,0.6c-0.5,0.8-0.2,1.9,0.6,2.4c0.4,0.3,0.6,0.8,0.3,1.2
								C120.6,89.2,120.3,89.4,120,89.4z"/>
						</g>
					</g>
				</g>
				<g>
					<g>
						<g>
							<path class="st13" d="M148.4,97.1v-0.3c0,0,0.3-0.3,0.5-0.4c1-0.3,2.2-5.1,2.2-5.1s-5.3-6.9-12.4-7.9
								c-7-0.9-13.9,1.4-13.9,1.4s-4.4,7.8-5.3,12.5c2.3,4.4,10,8.4,16.4,7c5.2,3.6,9.8,3.5,13.3,1.1c1.9-1.3-1.3-5.4-1.3-5.4
								L148.4,97.1z"/>
						</g>
					</g>
				</g>
				<g id="Shadow">
					<g>
						<g>
							<path class="st14" d="M128.4,84.2c0,0-2.1,7.7-2.1,12.4c5.9,5.2,10.6,6.2,10.6,6.2s3.8,4.2,7.7,4.5c-5.5-0.3-8.3-2.7-8.3-2.7
								s-9.5,1.9-16.9-7.2c0.3-4.5,5.4-12.8,5.4-12.8L128.4,84.2z"/>
						</g>
					</g>
				</g>
				<g>
					<g>
						<g>
							<path class="st9" d="M143.8,107.9c-2.6,0-5.3-0.9-8.1-2.8c-6.7,1.3-14.6-3-17-7.5c-0.1-0.2-0.1-0.4-0.1-0.6
								c0.9-4.8,5.2-12.4,5.4-12.8c0.1-0.2,0.3-0.3,0.5-0.4c0.3-0.1,7.2-2.4,14.3-1.4c7.4,1,12.8,8,13,8.2c0.2,0.2,0.2,0.5,0.2,0.8
								c-0.9,3.5-1.8,5.4-2.8,5.7l0,0.1l-0.3,2.4c0.6,0.8,2.1,3.1,1.8,4.8c-0.1,0.7-0.4,1.2-1,1.5
								C147.9,107.3,145.9,107.9,143.8,107.9z M135.9,103.3c0.2,0,0.4,0.1,0.5,0.2c4.5,3.1,8.8,3.5,12.3,1.1
								c0.1-0.1,0.2-0.1,0.2-0.3c0.1-0.9-0.9-2.8-1.7-3.8c-0.1-0.2-0.2-0.4-0.2-0.7l0.4-2.9c0-0.1,0-0.1,0.1-0.2l0.2-0.5
								c0.1-0.2,0.2-0.4,0.4-0.5c0,0,0.1,0,0.1-0.1c0.1-0.1,0.2-0.1,0.3-0.2c0.4-0.4,1.1-2.2,1.5-4c-1.1-1.4-5.8-6.4-11.5-7.2
								c-5.9-0.8-11.7,0.8-13.2,1.3c-0.8,1.4-4.1,7.6-5,11.6c2.3,3.9,9.4,7.5,15.3,6.3C135.8,103.3,135.8,103.3,135.9,103.3z
								 M148.5,95.5L148.5,95.5L148.5,95.5z"/>
						</g>
					</g>
				</g>
				<g>
					<g>
						<g>
							<path class="st9" d="M141.8,99.9c-0.7,0-1.3,0-1.7-0.1c-0.4,0-0.6,0-0.7-0.1c-2.9-1.2-3.4-3.5-3.4-3.5
								c-0.1-0.5,0.2-1,0.7-1.1c0.5-0.1,1,0.2,1.1,0.7c0,0.1,0.4,1.4,2.2,2.2c0.1,0,0.2,0,0.4,0c0.7,0.1,2.1,0.2,3.5-0.1
								c1.1-0.4,2.8-1.2,3.9-1.8c0.5-0.3,1-0.5,1.1-0.6c0.5-0.2,1,0,1.2,0.5c0.2,0.5,0,1-0.5,1.2c-0.1,0.1-0.5,0.2-1,0.5
								c-1.2,0.6-2.9,1.5-4.2,1.9c0,0-0.1,0-0.1,0C143.3,99.9,142.5,99.9,141.8,99.9z"/>
						</g>
					</g>
				</g>
				<g>
					<g>
						<g>
							<path class="st9" d="M150,90.2c0,0-3.6-0.1-5.4-0.2c0.3,0.9,1,2.3,6,2.8C151.2,91.1,150,90.2,150,90.2z"/>
						</g>
					</g>
				</g>
				<g id="Eyelid">
					<g>
						<g>
							<path class="st9" d="M140.6,89.7C140.6,89.7,140.6,89.7,140.6,89.7l-8.2-0.5c-0.5,0-0.9-0.5-0.8-1s0.4-0.9,1-0.8l7.1,0.4
								c-0.1-0.4-0.4-1-1-1.4c-0.4-0.3-0.5-0.8-0.2-1.3c0.3-0.4,0.8-0.5,1.3-0.2c2.1,1.5,1.8,3.9,1.8,4
								C141.4,89.4,141,89.7,140.6,89.7z"/>
						</g>
					</g>
				</g>
				<g id="Eye">
					<g>
						<g>
							<path class="st9" d="M137.3,93.1c-2.3,0-4.1-1.9-4.1-4.2c0-0.5,0.4-0.9,0.9-0.9s0.9,0.4,0.9,0.9c0,1.3,1,2.4,2.3,2.4
								c1.2,0,2.3-1.1,2.3-2.4c0-0.5,0.4-0.9,0.9-0.9s0.9,0.4,0.9,0.9C141.4,91.2,139.5,93.1,137.3,93.1z"/>
						</g>
					</g>
				</g>
				<g id="Pupil">
					<g>
						<g>
							<ellipse class="st9" cx="138.5" cy="89.8" rx="0.9" ry="0.9"/>
						</g>
					</g>
				</g>
				<g id="Base">
					<g>
						<g>
							<path class="st13" d="M171.5,90c0,0-1.2,4.7-4.3,10.2c-3.1,5.4-8.3,14.9-12.4,17.2c-2.8,1.6-6.1,2.6-7.9,3
								c-0.9,0.2-1.3,0.3-1.3,0.3s-11.7,3.5-14.7,3.3c-2.6-1-4.6-3.7-5.5-5.6c-0.1-1.6,2-3.9,2.1-4l0,0l2.9-0.7l17.4-4.6l5.6-10.3
								l6.8-8.8H171.5z"/>
						</g>
					</g>
				</g>
				<g id="Shadow_1_">
					<g>
						<g>
							<path class="st14" d="M148.1,120.2c-0.4,0.1-0.7,0.3-1.1,0.4c-0.9,0.2-1.3,0.3-1.3,0.3s-11.7,3.5-14.7,3.3s-5.3-3.4-5.5-5.6
								l2.1-4l0,0l2.9-0.7l0.2,0.2c-1,0.9-1.2,2.3-1.1,3.9C131.4,120.4,144.1,120.2,148.1,120.2z"/>
						</g>
					</g>
				</g>
				<g id="Stroke">
					<g>
						<g>
							<path class="st9" d="M130.9,124.9c-0.6,0-1.2-0.1-1.5-0.2c-0.5-0.2-0.7-0.7-0.5-1.2c0.2-0.5,0.7-0.7,1.2-0.5
								c1.9,0.8,21.4-3.6,24.9-6.5c2-1.7,5.3-7.3,8.3-12.2c1.7-2.8,3.2-5.4,4.6-7.4c2.4-3.5,2.7-5.4,2.7-6.2c-1.5-0.1-5-0.2-8.6-0.2
								c-2.9,0-9.2,11-12.8,18.9c-0.1,0.2-0.3,0.4-0.6,0.5c-0.4,0.1-9.7,2.9-14.4,3.9c-0.7,0.2-1.4,0.3-2.1,0.4
								c-3.3,0.5-5.5,0.9-5.9,5.2c0,0.5-0.5,0.9-1,0.8c-0.5,0-0.9-0.5-0.8-1c0.5-5.8,4-6.3,7.4-6.8c0.7-0.1,1.3-0.2,2-0.4
								c4.1-0.9,12-3.2,13.8-3.8c1.9-4,9.3-19.6,14.2-19.6c4.8,0,9.4,0.2,9.4,0.2c0.3,0,0.6,0.2,0.7,0.5c0.2,0.4,1.2,2.8-2.7,8.5
								c-1.3,1.9-2.9,4.6-4.5,7.3c-3.1,5.3-6.4,10.7-8.6,12.7C153.1,120.5,136.6,124.9,130.9,124.9z"/>
						</g>
					</g>
				</g>
				<g id="Finger_2">
					<g>
						<g>
							<path class="st9" d="M161.8,93.3c-0.1,0-0.3,0-0.4-0.1c-0.4-0.2-0.6-0.8-0.4-1.2c0.4-0.9,1.8-2.4,1.9-2.6
								c0.3-0.4,0.9-0.4,1.3-0.1c0.4,0.3,0.4,0.9,0.1,1.3c-0.5,0.6-1.4,1.7-1.7,2.2C162.4,93.1,162.1,93.3,161.8,93.3z"/>
						</g>
					</g>
				</g>
				<g id="Finger_1">
					<g>
						<g>
							<path class="st9" d="M165.6,93.8c-0.1,0-0.2,0-0.3,0c-0.5-0.2-0.7-0.7-0.6-1.1c0.2-0.6,1.3-2.5,1.7-3.1
								c0.3-0.4,0.8-0.6,1.2-0.3c0.4,0.3,0.6,0.8,0.3,1.2c-0.6,1.1-1.4,2.4-1.5,2.7C166.3,93.6,166,93.8,165.6,93.8z"/>
						</g>
					</g>
				</g>
				<g>
					<g>
						<g>
							<g>
								<ellipse class="st6" cx="187.1" cy="189" rx="16.5" ry="17"/>
							</g>
						</g>
					</g>
					<g>
						<g>
							<g>
								<path class="st7" d="M191.4,200.8c-9.2,0-16.5-7.7-16.5-17c0-2.9,0.7-5.5,1.9-7.9c-3.7,3.1-6.2,7.9-6.2,13.2
									c0,9.4,7.3,17,16.5,17c6.4,0,11.8-3.7,14.6-9.1C198.9,199.3,195.3,200.8,191.4,200.8z"/>
							</g>
						</g>
					</g>
					<g>
						<g>
							<g>
								<ellipse class="st8" cx="187.1" cy="189" rx="8.9" ry="9.2"/>
							</g>
						</g>
						<g>
							<g>
								<path class="st9" d="M187.1,199.1c-5.4,0-9.8-4.5-9.8-10.1s4.4-10.1,9.8-10.1c5.4,0,9.8,4.5,9.8,10.1
									S192.5,199.1,187.1,199.1z M187.1,180.7c-4.4,0-8,3.7-8,8.3s3.6,8.3,8,8.3s8-3.7,8-8.3S191.5,180.7,187.1,180.7z"/>
							</g>
						</g>
					</g>
					<g>
						<g>
							<g>
								<ellipse class="st10" cx="187.1" cy="189" rx="4.5" ry="4.7"/>
							</g>
						</g>
					</g>
					<g>
						<g>
							<g>
								<path class="st9" d="M187.2,183c-0.1,0-0.2,0-0.3,0c-1.2-0.2-2.3-1.4-2.4-2.7c0-0.5,0.3-0.9,0.8-1c0.5,0,0.9,0.3,1,0.8
									c0,0.5,0.5,1,0.8,1c0.2,0,0.5-0.3,0.7-1c0.2-0.5,0.7-0.7,1.1-0.6c0.5,0.2,0.7,0.7,0.6,1.1C189,182.7,187.9,183,187.2,183z"
									/>
							</g>
						</g>
					</g>
					<g>
						<g>
							<g>
								<path class="st9" d="M188.8,198.8c-0.5,0-0.9-0.4-0.9-0.8c0-0.5-0.5-1-0.8-1c-0.2-0.1-0.5,0.4-0.7,1
									c-0.2,0.5-0.7,0.7-1.1,0.6c-0.5-0.2-0.7-0.7-0.6-1.1c0.8-2.2,2.1-2.2,2.7-2.2c1.2,0.2,2.3,1.4,2.4,2.7
									C189.7,198.3,189.4,198.8,188.8,198.8C188.8,198.8,188.8,198.8,188.8,198.8z"/>
							</g>
						</g>
					</g>
					<g>
						<g>
							<g>
								<path class="st9" d="M195.7,191.6c-0.1,0-0.2,0-0.3,0c-2.2-0.8-2.2-2.1-2.2-2.7c0.2-1.2,1.4-2.3,2.7-2.4
									c0.5,0,0.9,0.3,1,0.8c0,0.5-0.3,0.9-0.8,1c-0.5,0-1,0.5-1,0.8c0,0.2,0.3,0.5,1,0.7c0.5,0.2,0.7,0.7,0.6,1.1
									C196.4,191.4,196.1,191.6,195.7,191.6z"/>
							</g>
						</g>
					</g>
					<g>
						<g>
							<g>
								<path class="st11" d="M187.1,172c-9.2,0-16.5,7.7-16.5,17s7.3,17,16.5,17s16.5-7.7,16.5-17S196.3,172,187.1,172z
									 M187.3,204.6c-8.5,0-15.5-7.1-15.5-16s6.9-16,15.5-16s15.5,7.1,15.5,16C202.8,197.3,195.9,204.6,187.3,204.6z"/>
							</g>
						</g>
					</g>
					<g>
						<g>
							<g>
								<path class="st9" d="M178.4,191.5c-0.5,0-0.9-0.4-0.9-0.8c0-0.5,0.3-0.9,0.8-1c0.5,0,1-0.5,1-0.8c0-0.2-0.3-0.5-1-0.7
									c-0.5-0.2-0.7-0.7-0.6-1.1c0.2-0.5,0.7-0.7,1.1-0.6c2.2,0.8,2.2,2.1,2.2,2.7C181,190.3,179.8,191.4,178.4,191.5
									C178.4,191.5,178.4,191.5,178.4,191.5z"/>
							</g>
						</g>
					</g>
					<g>
						<g>
							<g>
								<path class="st9" d="M193,185.5c-0.9,0-1.5-0.5-1.7-0.8c-0.8-1-0.7-2.6,0.2-3.6c0.3-0.4,0.9-0.4,1.3-0.1
									c0.4,0.3,0.4,0.9,0.1,1.3c-0.3,0.4-0.4,1.1-0.2,1.4c0.1,0.2,0.6,0.1,1.2-0.1c0.4-0.2,1,0,1.2,0.4c0.2,0.4,0,1-0.4,1.2
									C194,185.4,193.5,185.5,193,185.5z"/>
							</g>
						</g>
					</g>
					<g>
						<g>
							<g>
								<path class="st9" d="M182.1,197.3c-0.2,0-0.4-0.1-0.6-0.2c-0.4-0.3-0.4-0.9-0.1-1.3c0.3-0.4,0.4-1.1,0.2-1.4
									c-0.1-0.2-0.6-0.1-1.2,0.1c-0.4,0.2-1,0-1.2-0.4c-0.2-0.4,0-1,0.4-1.2c2-1,3-0.1,3.4,0.4c0.8,1,0.7,2.6-0.2,3.6
									C182.6,197.2,182.4,197.3,182.1,197.3z"/>
							</g>
						</g>
					</g>
					<g>
						<g>
							<g>
								<path class="st9" d="M192,197.2c-0.3,0-0.7-0.2-0.8-0.5c-1-2-0.1-3,0.4-3.4c1-0.7,2.6-0.7,3.6,0.2c0.4,0.3,0.4,0.9,0.1,1.3
									c-0.3,0.4-0.9,0.4-1.3,0.1c-0.4-0.3-1.1-0.4-1.4-0.2c-0.2,0.1-0.1,0.6,0.1,1.2c0.2,0.4,0,1-0.4,1.2
									C192.3,197.2,192.1,197.2,192,197.2z"/>
							</g>
						</g>
					</g>
					<g>
						<g>
							<g>
								<path class="st9" d="M181.2,185.3c-0.7,0-1.5-0.2-2-0.7c-0.4-0.3-0.4-0.9-0.1-1.3c0.3-0.4,0.9-0.4,1.3-0.1
									c0.4,0.3,1.1,0.4,1.4,0.2c0.2-0.1,0.1-0.6-0.1-1.2c-0.2-0.4,0-1,0.4-1.2c0.4-0.2,1,0,1.2,0.4c1,2,0.1,3-0.4,3.4
									C182.4,185.1,181.8,185.3,181.2,185.3z"/>
							</g>
						</g>
					</g>
					<g>
						<g>
							<g>
								<ellipse class="st8" cx="187.1" cy="189" rx="2.2" ry="2.2"/>
							</g>
						</g>
					</g>
					<g>
						<g>
							<g>
								<path class="st9" d="M187.1,206.9c-9.6,0-17.4-8-17.4-17.9s7.8-17.9,17.4-17.9s17.4,8,17.4,17.9S196.7,206.9,187.1,206.9z
									 M187.1,172.9c-8.6,0-15.6,7.2-15.6,16.1s7,16.1,15.6,16.1s15.6-7.2,15.6-16.1S195.7,172.9,187.1,172.9z"/>
							</g>
						</g>
					</g>
					<g>
						<g>
							<g>
								<path class="st8" d="M199.9,189.9c-0.5,0-0.9-0.4-0.9-0.9c0-6.7-5.3-12.2-11.9-12.2c-0.5,0-0.9-0.4-0.9-0.9s0.4-0.9,0.9-0.9
									c7.6,0,13.7,6.3,13.7,14C200.8,189.5,200.4,189.9,199.9,189.9z"/>
							</g>
						</g>
					</g>
				</g>
			</g>
		</g>
	</g>
</g>
</svg>
