<?xml version="1.0" encoding="utf-8"?>
<!-- Generator: Adobe Illustrator 27.0.0, SVG Export Plug-In . SVG Version: 6.00 Build 0)  -->
<svg version="1.1" id="Layer_1" xmlns="http://www.w3.org/2000/svg" xmlns:xlink="http://www.w3.org/1999/xlink" x="0px" y="0px"
	 viewBox="0 0 260 260" style="enable-background:new 0 0 260 260;" xml:space="preserve">
<style type="text/css">
	.st0{fill:#C76A69;}
	.st1{fill:#FFB1AB;}
	.st2{fill:#E4847F;}
	.st3{fill:#FB9E93;}
	.st4{fill:#FBCA47;}
	.st5{fill:#E07204;}
	.st6{fill:#FFFFFF;}
	.st7{fill:#E0DBE6;}
	.st8{fill:#FF674D;}
	.st9{fill:#B3ADBA;}
	.st10{fill:#1D1D1B;}
	.st11{fill:#6ACF3D;}
	.st12{fill:#FFE77E;}
	.st13{fill:#FFE259;}
	.st14{fill:#78370B;}
	.st15{fill:#B794D4;}
	.st16{fill:#A47EC7;}
	.st17{fill:#855DB3;}
	.st18{fill:#C15700;}
</style>
<g>
	<g>
		<circle class="st0" cx="130" cy="137.9" r="113.3"/>
	</g>
	<g>
		<circle class="st1" cx="130" cy="126.6" r="113.3"/>
	</g>
	<g>
		<circle class="st2" cx="130" cy="126.6" r="97.1"/>
	</g>
	<g>
		<circle class="st3" cx="130" cy="126.6" r="88"/>
	</g>
</g>
<g>
	<g>
		<path class="st2" d="M81.8,117.4c0.1-0.1,0.2-0.2,0.2-0.3C81.3,117.7,81.4,117.6,81.8,117.4z"/>
	</g>
	<g>
		<path class="st2" d="M205.3,86.8c-1.1-12.2-19.1-22.1-30.9-11.6C166,42,140,29.3,140,29.3c-4.3-0.1-9.8-0.1-16.4,2.1
			c-7.2-1.9-13.2-2.6-13.9-2.5c-23,6.3-55.2,48.9-30.8,77.4l0.2-0.2c0.9,3.6,3.7,8.5,8.1,11.9c0.3,0.3-0.8,1.1-1.4,1.5
			c-0.5,0.5-1,1.1-1.6,1.6c0,0,0,0,0,0.1c-1.7,1.8-3.5,3.9-5.4,6l-0.6-0.2c-3.4,4-9.2,11.5-10.2,16.6c0.4,4.9,2.3,11.1,5.8,15.1
			c2.2,1.2,3.6,1.2,6.3,1.5c-7.7,8.7-13.9,16.3-7.9,26.5c-11.3,1-21.5,6.6-13.3,13.5c-3.1,0.9-8.9,3.8-10.6,5.2
			c4.6,4.8,7.9,7.7,13.3,11.7c2.7,0.2,10.2,0,12.5-0.4c4.7,7.4,29.3,8,36.1,1.8c4.6,7.4,28.7,8,35.8,2.1c8.4,4.4,34.2,2,33.1-7.2
			c16.8,0.1,27.5-11,9.9-16.5c7.7-6.4-1.1-11.9-11.6-13.2c4.6-9.9-5.3-17.9-11.9-24.1l1.9,2.3c-1.1-1.1-2.1-2.2-3-3.3l1,0.8
			c-2.2-2-4.5-5.1-7-5.5l0.1,0.1c-0.4-0.1-0.8-0.1-1.2-0.2c1.3-8.1,0.5-14.4,0.2-16.4c3-0.8,12.5-0.9,7.5-0.9
			c5.2-0.7,11.3-1.7,16.3-2.8l-0.4,0.8c5.1-1,7.6-2.4,11.2-4.3c7.9-6.4,10.6-37.8,10.2-37.2l-0.2,0.5c0-0.4,0-0.9,0-1.3
			c1.8-0.3,3.1-0.6,3.7-0.8C205.9,90.4,205.6,88.4,205.3,86.8C205.4,86.8,205.4,86.8,205.3,86.8z M157,138.9c0-0.4-0.1-0.9-0.1-1.3
			c0.1,0,0.2,0,0.4,0L157,138.9z"/>
	</g>
</g>
<g>
	<g>
		<path class="st4" d="M203.4,200.9c0-3.1-3.6-5.9-9.1-7.4c1.8-1.4,2.9-2.9,2.9-4.5c0-4.9-8.9-8.9-19.8-8.9s-19.8,4-19.8,8.9
			c0,3.1,3.6,5.9,9.1,7.4c-1.8,1.4-2.9,2.9-2.9,4.5c0,0.1,0,0.3,0,0.4c-6.6,0.1-12.3,0.5-15.7,2.8c-3.5-1.4-8-1-13.1-1
			c-7.2,0-13.4,1.7-16.9,4.3c-2.6-3.6-10.1-6.2-18.9-6.2c-1.6,0-3.2,0.1-4.6,0.3c-0.5-0.7-1.3-1.4-2.1-2c5.7-1.5,9.6-4.4,9.6-7.6
			c0-4.9-8.9-8.9-19.8-8.9s-19.8,4-19.8,8.9c0,1.7,1.2,3.4,3.1,4.7c-5.7,1.5-9.6,4.4-9.6,7.6c0,4.9,8.9,8.9,19.8,8.9
			c1.6,0,3.2-0.1,4.6-0.3c2.6,3.6,10.1,6.1,18.9,6.1c7.2,0,13.4-1.7,16.9-4.3c2.6,3.6,10.1,6.2,18.9,6.2c7,0,13.1-1.6,16.6-4.1
			c3.5,1.4,8,2.2,13.1,2.2c10.9,0,19.8-4,19.8-8.9c0-0.1,0-0.3,0-0.4C195.1,209.5,203.4,205.6,203.4,200.9z"/>
		<path class="st5" d="M135.1,221.8c-8.4,0-15.8-2.3-19.1-5.9c-3.9,2.5-10,4-16.7,4c-8.7,0-16.2-2.4-19.3-6
			c-1.3,0.2-2.7,0.2-4.2,0.2c-11.6,0-20.8-4.3-20.8-9.9c0-3.2,3.2-6.2,8.5-8c-1.3-1.3-2-2.8-2-4.3c0-5.5,9.1-9.9,20.8-9.9
			c11.6,0,20.8,4.3,20.8,9.9c0,3.2-3.2,6.2-8.6,8c0.2,0.2,0.4,0.4,0.5,0.6c1.3-0.2,2.7-0.2,4.2-0.2c8.4,0,15.8,2.3,19.1,5.9
			c3.9-2.5,10-4,16.7-4c0.9,0,1.9,0,2.8,0c3.9-0.1,7.3-0.1,10.2,0.9c3.3-2,8.2-2.5,14.9-2.7c0.1-1.2,0.8-2.4,1.9-3.5
			c-5.1-1.8-8.1-4.6-8.1-7.8c0-5.5,9.1-9.9,20.8-9.9s20.8,4.3,20.8,9.9c0,1.4-0.7,2.8-1.9,4.1c5.1,1.8,8.1,4.6,8.1,7.8
			c0,5.2-8.2,9.3-18.8,9.6c-0.6,5.3-9.5,9.3-20.7,9.3c-4.9,0-9.3-0.7-13-2.1C148,220.3,141.8,221.8,135.1,221.8z M116.2,213.6
			c0,0,0.1,0,0.1,0c0.3,0,0.5,0.2,0.6,0.4c2.5,3.4,9.9,5.8,18.1,5.8c6.6,0,12.6-1.5,16-3.9c0.3-0.2,0.6-0.2,0.9-0.1
			c3.5,1.4,7.9,2.1,12.7,2.1c11.3,0,18.8-4.1,18.8-7.9v-0.4c0-0.5,0.4-1,1-1c10.7-0.1,17.8-4.1,17.8-7.7c0-2.5-3.3-5.1-8.4-6.5
			c-0.4-0.1-0.6-0.4-0.7-0.7c-0.1-0.4,0.1-0.7,0.4-1c1.7-1.3,2.5-2.6,2.5-3.7c0-3.8-7.6-7.9-18.8-7.9c-11.3,0-18.8,4.1-18.8,7.9
			c0,2.5,3.3,5.1,8.4,6.5c0.4,0.1,0.6,0.4,0.7,0.7c0.1,0.4-0.1,0.7-0.4,1c-1.7,1.3-2.5,2.6-2.5,3.7v0.4c0,0.5-0.4,1-1,1
			c-7.1,0.1-12.1,0.6-15.2,2.6c-0.3,0.2-0.6,0.2-0.9,0.1c-2.7-1.1-6-1-9.9-1c-0.9,0-1.8,0-2.8,0c-6.8,0-12.9,1.5-16.3,4.1
			c-0.2,0.2-0.5,0.2-0.7,0.2c-0.3,0-0.5-0.2-0.6-0.4c-2.5-3.4-9.9-5.8-18.1-5.8c-1.6,0-3.1,0.1-4.5,0.3c-0.4,0-0.7-0.1-0.9-0.4
			c-0.4-0.5-1-1.1-1.9-1.8c-0.3-0.2-0.4-0.6-0.4-1c0.1-0.4,0.3-0.7,0.7-0.8c5.4-1.4,8.9-4,8.9-6.7c0-3.8-7.6-7.9-18.8-7.9
			s-18.8,4.1-18.8,7.9c0,1.3,1,2.7,2.7,3.9c0.3,0.2,0.5,0.6,0.4,1c-0.1,0.4-0.3,0.7-0.7,0.8c-5.4,1.4-8.9,4-8.9,6.7
			c0,3.8,7.6,7.9,18.8,7.9c1.6,0,3.1-0.1,4.5-0.3c0.4,0,0.7,0.1,0.9,0.4c2.4,3.4,9.9,5.7,18.1,5.7c6.8,0,12.9-1.5,16.3-4.1
			C115.8,213.7,116,213.6,116.2,213.6z"/>
	</g>
	<g>
		<path class="st5" d="M56,205.2c-0.5,0-1-0.4-1-1c0-5.5,9.1-9.9,20.8-9.9c0.5,0,1,0.4,1,1s-0.4,1-1,1c-11.3,0-18.8,4.1-18.8,7.9
			C57,204.7,56.5,205.2,56,205.2z"/>
	</g>
	<g>
		<path class="st4" d="M151.7,216.8c2-1.5,3.2-3.4,3.2-3.4"/>
		<path class="st5" d="M151.7,217.8c-0.3,0-0.6-0.1-0.8-0.4c-0.3-0.4-0.2-1,0.2-1.4c1.8-1.4,3-3.1,3-3.1c0.3-0.4,0.9-0.6,1.3-0.3
			c0.5,0.3,0.6,0.9,0.3,1.3c-0.1,0.1-1.3,2.1-3.4,3.7C152.1,217.7,151.9,217.8,151.7,217.8z"/>
	</g>
	<g>
		<path class="st4" d="M80.4,212.9c0,0-1.3-1.8-1.5-2.9"/>
		<path class="st5" d="M80.4,213.9c-0.3,0-0.6-0.1-0.8-0.4c-0.1-0.2-1.4-2-1.7-3.3c-0.1-0.5,0.3-1,0.8-1.1c0.5-0.1,1,0.3,1.1,0.8
			c0.1,0.6,0.9,1.9,1.3,2.5c0.3,0.4,0.2,1-0.2,1.3C80.8,213.8,80.6,213.9,80.4,213.9z"/>
	</g>
	<g>
		<path class="st6" d="M157.6,106.4c0,0,11.8,41.8,0.4,65.4s-59.7,30-65,3.2s15-63.7,15-63.7L157.6,106.4z"/>
	</g>
	<g>
		<path class="st6" d="M106.3,163.2c-4.5-12.8-12.5-15.4-18.4-8.1c-5.9,7.3-12.7,13.9-11.8,20.6c0.9,6.8,9.1,16.5,9.1,16.5
			s-7.7,0.9-5.4,13.9c4.4,2.2,21.4,2.4,26.8-0.6C112,202.7,108.1,168.5,106.3,163.2z"/>
	</g>
	<g>
		<path class="st6" d="M96.2,112.1c0,0-22.1,22.3-21.9,28.4s4.4,15.7,8.9,16.1c4.5,0.4,22.4,3.7,26.8-6.4c4.4-10.1,21.9-28,21.9-28
			L96.2,112.1z"/>
	</g>
	<g>
		<path class="st7" d="M144.2,143.4c0,0,22.4-14.4,23.5-34.3C161.3,109.9,135,120,135,120l-5.5,27.6l15.7,1.5L144.2,143.4z"/>
	</g>
	<g>
		<path class="st7" d="M90.5,118c0,0,3.9,5.8,15.9,12.4c11.7,0.6,24.4,6.6,24.4,6.6s-0.3-10.1-3.4-14.4c-3.1-4.4-33.2-8-33.2-8
			L90.5,118z"/>
	</g>
	<g>
		<path class="st7" d="M82.4,162.9c0,0,22.2,15.5,15.7,27.2c7.4,7.1-5.5,16.1-11.7,15.8c9.5,1.8,27,1.5,29,0.3s4.8-26.2-0.9-43.6
			c-5.7-17.4-16.4-14.9-19.1-13.5C92.7,150.4,82.4,162.9,82.4,162.9z"/>
	</g>
	<g>
		<path class="st6" d="M152.2,162.9c4.5-12.8,11.1-15.6,16.9-8.3c5.9,7.3,15.9,13.5,15,20.3s-8.5,18.8-8.5,18.8s5.2,0.4,2.9,13.4
			c-4.4,2.1-21.4,1.2-26.8-1.8C146.3,202.3,150.4,168.2,152.2,162.9z"/>
	</g>
	<g>
		<path class="st8" d="M86.3,206.8c-0.5,0-0.9-0.4-1-0.9c-0.2-5.7,1-7.5,1.2-7.7c0.3-0.4,0.9-0.5,1.4-0.2c0.4,0.3,0.5,0.9,0.2,1.3
			c0,0.1-1,1.7-0.8,6.5C87.3,206.3,86.9,206.7,86.3,206.8C86.3,206.8,86.3,206.8,86.3,206.8z"/>
	</g>
	<g>
		<path class="st8" d="M95.6,207.3c-0.5,0-0.9-0.4-1-0.9c-0.2-5.7,1-7.5,1.2-7.7c0.3-0.4,0.9-0.5,1.4-0.2c0.4,0.3,0.5,0.9,0.2,1.3
			c0,0.1-1,1.7-0.8,6.5C96.6,206.8,96.2,207.2,95.6,207.3C95.6,207.3,95.6,207.3,95.6,207.3z"/>
	</g>
	<g>
		<path class="st7" d="M168.5,154.7c0,0-7.4,23.3-2.7,35.1c-4.1,8.8-0.2,16.8,4.1,18.9c-7.8,0.5-17.4-0.6-21.6-4.5
			c-1.6-1.5,0.7-3.7-0.4-6c-3.9-8.4,2-22.7,7.7-31.8s8-15.5,8-15.5L168.5,154.7z"/>
	</g>
	<g>
		<path class="st8" d="M171.8,207.8C171.8,207.8,171.8,207.8,171.8,207.8c-0.6,0-1-0.5-1-1c0.1-4-1.4-7.1-1.4-7.2
			c-0.2-0.5,0-1.1,0.5-1.3c0.5-0.2,1.1,0,1.3,0.4c0.1,0.1,1.7,3.6,1.6,8C172.8,207.3,172.3,207.8,171.8,207.8z"/>
	</g>
	<g>
		<path class="st8" d="M163.5,207.8C163.5,207.8,163.5,207.8,163.5,207.8c-0.6,0-1-0.5-1-1c0.1-4-1.4-7.1-1.4-7.2
			c-0.2-0.5,0-1.1,0.5-1.3c0.5-0.2,1.1,0,1.3,0.4c0.1,0.1,1.7,3.6,1.6,8C164.5,207.3,164,207.8,163.5,207.8z"/>
	</g>
	<g>
		<path class="st9" d="M85.4,159.3c0,0,13.9,0.6,18.9,22.5s0.3,25.6,0.3,25.6l16.4-2.1l-1.9-56.9l-28,4.4L85.4,159.3z"/>
	</g>
	<g>
		<path class="st10" d="M175.5,194.6c-0.2,0-0.4-0.1-0.6-0.2c-0.4-0.3-0.5-1-0.1-1.4c0.1-0.1,8.8-10.3,8.5-20.1c0-0.1,0-0.1-0.1-0.2
			c-0.1-0.3-0.2-0.6-0.3-0.9c-0.1-0.5,0.2-1,0.7-1.2c0.5-0.1,1,0.2,1.2,0.7c0.1,0.2,0.1,0.4,0.2,0.6c0.1,0.2,0.1,0.3,0.2,0.4
			c0,0.1,0,0.2,0,0.3c0.4,10.6-8.6,21.1-8.9,21.6C176,194.5,175.8,194.6,175.5,194.6z"/>
	</g>
	<g>
		<path class="st10" d="M171,157.3c-0.2,0-0.5-0.1-0.6-0.2c-3.7-3.2-6.9-5.4-6.9-5.4c-0.4-0.3-0.6-0.9-0.2-1.3
			c0.3-0.4,0.9-0.6,1.3-0.2c0.1,0.1,3.3,2.3,7.1,5.6c0.4,0.4,0.4,1,0.1,1.4C171.5,157.2,171.3,157.3,171,157.3z"/>
	</g>
	<g>
		<path class="st10" d="M169.8,209.5c-10.3,0-20.9-3.7-21.5-3.9c-0.5-0.2-0.8-0.7-0.6-1.2c0.2-0.5,0.7-0.8,1.2-0.6
			c0.2,0.1,17.6,6,28.8,2.8c0.7-4.5,0-8.2-2.2-11c-2-2.6-5.3-4.3-9.1-4.5c-6.7-0.5-10.1,0-10.1,0c-0.5,0.1-1-0.3-1.1-0.8
			s0.3-1,0.8-1.1c0.1,0,3.6-0.5,10.5,0c4.3,0.3,8.1,2.2,10.4,5.3c2.5,3.3,3.4,7.8,2.4,13.1c-0.1,0.3-0.3,0.6-0.7,0.7
			C176.1,209.1,173,209.5,169.8,209.5z"/>
	</g>
	<g>
		<path class="st10" d="M156.4,169.7c-0.2,0-0.3,0-0.5-0.1c-0.5-0.3-0.6-0.9-0.3-1.3c10-16.4,6.5-33.9,6.5-34.1
			c-0.1-0.5,0.2-1,0.8-1.1c0.5-0.1,1,0.2,1.1,0.8c0.2,0.7,3.7,18.5-6.7,35.5C157,169.5,156.7,169.7,156.4,169.7z"/>
	</g>
	<g>
		<path class="st10" d="M81.8,122.1c-0.5,0-0.9-0.3-1-0.8c-0.1-0.5,0.2-1,0.8-1.1c5.1-0.9,10.9-5.3,11-5.3c0.4-0.3,1-0.2,1.4,0.2
			c0.3,0.4,0.2,1-0.2,1.4c-0.3,0.2-6.2,4.6-11.8,5.7C81.9,122.1,81.9,122.1,81.8,122.1z"/>
	</g>
	<g>
		<path class="st9" d="M184.1,173.8c-0.4,0-0.8-0.3-0.9-0.7c-1.2-4.2-5.3-9.3-12.7-15.8c-0.4-0.4-0.4-1-0.1-1.4
			c0.4-0.4,1-0.4,1.4-0.1c4.9,4.3,11.6,10.7,13.3,16.8c0.1,0.5-0.2,1-0.7,1.2C184.3,173.8,184.2,173.8,184.1,173.8z"/>
	</g>
	<g>
		<path class="st10" d="M84.7,192.8c-0.2,0-0.5-0.1-0.7-0.3c-0.4-0.4-9.2-9-8.8-19.6c0-0.1,0-0.2,0-0.3
			c3.4-10.4,14.6-20.2,15.1-20.6c0.4-0.4,1-0.3,1.4,0.1c0.4,0.4,0.3,1-0.1,1.4c-0.1,0.1-11.1,9.8-14.5,19.6
			c-0.3,9.7,8.1,17.9,8.2,18c0.4,0.4,0.4,1,0,1.4C85.2,192.7,85,192.8,84.7,192.8z"/>
	</g>
	<g>
		<path class="st10" d="M98.3,208.7c-5.9,0-12.5-0.5-18.8-2.2c-0.4-0.1-0.6-0.4-0.7-0.8c-0.9-5.1-0.2-9.1,2-11.9
			c2.2-2.8,5.9-4.4,10.8-4.7c6.9-0.4,15.4,0.7,15.8,0.7c0.5,0.1,0.9,0.6,0.8,1.1c-0.1,0.5-0.6,0.9-1.1,0.8c-0.1,0-8.7-1.1-15.4-0.7
			c-3,0.2-7,1-9.4,4c-1.8,2.3-2.4,5.6-1.7,9.8c16.4,4.1,35.3,0.5,35.5,0.4c0.5-0.1,1,0.2,1.1,0.8c0.1,0.5-0.2,1-0.8,1.1
			C116.4,207.2,108.4,208.7,98.3,208.7z"/>
	</g>
	<g>
		<path class="st6" d="M158.7,125.7c2.1-7.8,6.4-16.4,7.5-16.8s6.1-1.9,9.1-3.9c0.9-9.4,1.9-27.3,15.5-26.5
			c13.5,0.8,18.2,3.6,15.8,18.6c-2.5,15-4.5,26.4-9.2,30.2c-4.7,3.8-36.2,8-39.4,7.4C154.7,133.9,158.7,125.7,158.7,125.7z"/>
	</g>
	<g>
		<path class="st11" d="M163.9,114.9c0,0-5.8,29-32.7,31.3c-26.9,2.2-34.3-27-34.3-27s33.2-4.2,35.6-4.2
			C134.9,115.1,163.9,114.9,163.9,114.9z"/>
		<path class="st10" d="M128.4,147.3c-25,0-32.3-27.6-32.4-27.8c-0.1-0.3,0-0.6,0.1-0.8s0.4-0.4,0.7-0.4c1.4-0.2,33.3-4.2,35.7-4.2
			c2.4,0.1,31.1-0.1,31.4-0.1c0.3,0,0.6,0.1,0.8,0.4c0.2,0.2,0.3,0.5,0.2,0.8c-0.1,0.3-6.3,29.7-33.6,32.1
			C130.3,147.2,129.3,147.3,128.4,147.3z M98.1,120c0.7,2.2,2.7,7.7,6.6,13c6.7,9,15.6,13.1,26.3,12.2c22.8-2,30.1-24,31.5-29.4
			c-5.6,0-28.1,0.2-30.2,0.1C130.7,116,108.1,118.8,98.1,120z"/>
	</g>
	<g>
		<g>
			<ellipse class="st4" cx="129" cy="176.1" rx="27.4" ry="35.2"/>
		</g>
		<g>
			<path class="st5" d="M129,212.3c-0.5,0-1-0.4-1-1s0.4-1,1-1c17.5,0,26.4-11.5,26.4-34.2c0-30.2-13.4-34.2-26.4-34.2
				c-23.3,0-26.4,17.3-26.4,34.2c0,0.5-0.4,1-1,1s-1-0.4-1-1c0-17.9,3.4-36.2,28.4-36.2s28.4,18.3,28.4,36.2
				C157.4,200.1,147.8,212.3,129,212.3z"/>
		</g>
		<g>
			<path class="st12" d="M127.3,211.9c0,0-0.1,0-0.1,0c-15.1-2.3-22.8-14.3-22.8-35.8c0-13.1,2.2-21.9,7-27.8
				c0.3-0.4,0.9-0.5,1.4-0.1c0.4,0.3,0.5,0.9,0.1,1.4c-4.5,5.5-6.6,14-6.6,26.6c0,20.4,7.1,31.7,21.2,33.8c0.5,0.1,0.9,0.6,0.8,1.1
				C128.2,211.5,127.8,211.9,127.3,211.9z"/>
		</g>
		<g>
			<path class="st12" d="M130.5,204.5c-14.2,0-21.4-9.1-21.4-27.2c0-8.7,1.3-14.7,4-19.1c3.4-5.5,9.1-8.1,17.4-8.1
				c4,0,7.5,0.7,10.8,2.1c0.5,0.2,0.7,0.8,0.5,1.3c-0.2,0.5-0.8,0.7-1.3,0.5c-3.1-1.3-6.2-1.9-10-1.9c-17.1,0-19.4,12.1-19.4,25.2
				c0,17,6.4,25.2,19.4,25.2c0.5,0,1,0.4,1,1S131,204.5,130.5,204.5z"/>
		</g>
		<g>
			<path class="st5" d="M131.7,203.3c-14.2,0-21.4-9.1-21.4-27.2c0-8.7,1.3-14.7,4-19.1c3.4-5.5,9.1-8.1,17.4-8.1
				c4,0,7.5,0.7,10.8,2.1c0.5,0.2,0.7,0.8,0.5,1.3c-0.2,0.5-0.8,0.7-1.3,0.5c-3.1-1.3-6.2-1.9-10-1.9c-17.1,0-19.4,12.1-19.4,25.2
				c0,17,6.4,25.2,19.4,25.2c0.5,0,1,0.4,1,1S132.2,203.3,131.7,203.3z"/>
		</g>
		<g>
			<ellipse class="st13" cx="134.3" cy="172.4" rx="12.4" ry="15.9"/>
		</g>
		<g>
			<path class="st5" d="M150.5,189c-0.1,0-0.2,0-0.3,0c-0.5-0.2-0.8-0.7-0.6-1.2c1-3.2,1.5-7,1.5-11.6c0-7.6-1-13.2-3.2-17.1
				c-0.3-0.5-0.1-1.1,0.4-1.3c0.5-0.3,1.1-0.1,1.3,0.4c2.3,4.2,3.4,10.1,3.4,18.1c0,4.8-0.5,8.8-1.5,12.2
				C151.3,188.7,150.9,189,150.5,189z"/>
		</g>
		<g>
			<path class="st5" d="M135.4,181.4h-15.7c-0.5,0-1-0.4-1-1s0.4-1,1-1h15.7c0.5,0,1,0.4,1,1S135.9,181.4,135.4,181.4z"/>
		</g>
		<g>
			<path class="st5" d="M135.4,190.5H123c-0.5,0-1-0.4-1-1s0.4-1,1-1h12.4c0.5,0,1,0.4,1,1S135.9,190.5,135.4,190.5z"/>
		</g>
		<g>
			<path class="st5" d="M138.7,172.4h-19c-0.5,0-1-0.4-1-1s0.4-1,1-1h19c0.5,0,1,0.4,1,1S139.2,172.4,138.7,172.4z"/>
		</g>
		<g>
			<path class="st5" d="M142.6,163.4h-22.9c-0.5,0-1-0.4-1-1s0.4-1,1-1h22.9c0.5,0,1,0.4,1,1S143.1,163.4,142.6,163.4z"/>
		</g>
		<g>
			<path class="st13" d="M135.2,194.2h-14.8c-0.5,0-1-0.4-1-1s0.4-1,1-1h14.8c0.5,0,1,0.4,1,1S135.7,194.2,135.2,194.2z"/>
		</g>
		<g>
			<path class="st13" d="M133.1,185.4h-14.8c-0.5,0-1-0.4-1-1s0.4-1,1-1h14.8c0.5,0,1,0.4,1,1S133.6,185.4,133.1,185.4z"/>
		</g>
		<g>
			<path class="st13" d="M131.5,176.6h-14.8c-0.5,0-1-0.4-1-1s0.4-1,1-1h14.8c0.5,0,1,0.4,1,1S132,176.6,131.5,176.6z"/>
		</g>
		<g>
			<path class="st13" d="M150.6,157.1c-0.4,0-0.8-0.3-0.9-0.7c-2.1-6.4-9.8-9.4-11.3-10c-0.5-0.2-0.8-0.7-0.6-1.2
				c0.2-0.5,0.7-0.8,1.2-0.6c2.3,0.8,10.2,4.1,12.5,11.2c0.2,0.5-0.1,1.1-0.6,1.2C150.8,157.1,150.7,157.1,150.6,157.1z"/>
		</g>
		<g>
			<path class="st14" d="M129,212.3c-18.8,0-28.4-12.2-28.4-36.2c0-0.5,0.4-1,1-1s1,0.4,1,1c0,22.7,8.9,34.2,26.4,34.2
				c0.5,0,1,0.4,1,1S129.5,212.3,129,212.3z"/>
		</g>
	</g>
	<g>
		<path class="st6" d="M98.3,130.5c13.8-0.6,23.2,2.5,28,4.4s11.9,11.3,13,22.8c-7.8,6-15.4,6.3-21,5.4c-2-2.5-6.4-5.5-7-8.6
			c-17.5,4.5-30.7,1.3-30.7,1.3s-3.5-1.6-6.2-15.2C79.4,126.1,98.3,130.5,98.3,130.5z"/>
	</g>
	<g>
		<path class="st7" d="M77.9,150.4c0,0,8.2,3.1,20.4,1.6s17.1-4.5,20.6-3.7c3.5,0.9,4.5,9.3,12.4,9.1c7.8-0.2,7.9-2.9,7.9-2.9
			l-0.3,4c0,0-7.4,6.8-24.1,4.9c-2.2-2.7-3.6-8.9-3.6-8.9s-17.1,4.9-30.7,1.3C77.5,153.6,77.9,150.4,77.9,150.4z"/>
	</g>
	<g>
		<path class="st8" d="M123.4,163.7c-0.4,0-0.8-0.3-0.9-0.7c-0.9-3.7-1.9-6.1-1.9-6.1c-0.2-0.5,0-1.1,0.5-1.3c0.5-0.2,1.1,0,1.3,0.5
			c0,0.1,1.1,2.6,2.1,6.5c0.1,0.5-0.2,1-0.7,1.2C123.5,163.7,123.5,163.7,123.4,163.7z"/>
	</g>
	<g>
		<path class="st8" d="M133.6,161.8c-0.5,0-1-0.4-1-0.9c-0.1-3.6-1.7-6.5-1.7-6.6c-0.3-0.5-0.1-1.1,0.4-1.3c0.5-0.3,1.1-0.1,1.3,0.4
			c0.1,0.1,1.8,3.4,1.9,7.4C134.6,161.3,134.2,161.8,133.6,161.8C133.6,161.8,133.6,161.8,133.6,161.8z"/>
	</g>
	<g>
		<path class="st10" d="M121.4,164.4c-3,0-5.3-0.3-6.3-0.5c-0.2,0-0.4-0.1-0.6-0.3c-1.7-2-2.9-4.6-3.7-8c-17,4.2-29.8,1.2-30.4,1.1
			c-0.1,0-0.1,0-0.2-0.1c-0.4-0.2-4-2.3-6.7-15.9c0-0.2,0-0.3,0-0.5c1.7-5.2,4.8-10.5,9.2-15.7c0.2-0.2,0.4-0.4,0.5-0.6
			c0.2-0.3,0.4-0.5,0.6-0.7c0.4-0.4,1-0.4,1.4,0c0.4,0.4,0.4,1,0,1.4c-0.2,0.2-0.3,0.4-0.5,0.6c-0.2,0.3-0.4,0.5-0.6,0.7
			c-4.1,4.9-7,9.9-8.7,14.8c2.3,11.2,5.1,13.9,5.6,14.2c1.5,0.3,14.2,2.9,30.3-1.3c0.3-0.1,0.5,0,0.8,0.1c0.2,0.1,0.4,0.4,0.4,0.6
			c0.7,3.5,1.7,6,3.3,7.9c3,0.4,14.3,1.6,22.7-4.4c-0.6-5.3-2.3-10.5-4.9-14.9c-0.3-0.5-0.1-1.1,0.3-1.3c0.5-0.3,1.1-0.1,1.3,0.3
			c2.8,4.7,4.7,10.5,5.2,16.2c0,0.3-0.1,0.7-0.4,0.9C134.1,163.4,126.7,164.4,121.4,164.4z"/>
	</g>
	<g>
		<path class="st9" d="M134.9,144.8c-0.3,0-0.7-0.2-0.9-0.5c-2.1-4-5-7.1-7.4-8.1c-4.9-1.9-19.5-5.6-32.9-5c-0.6,0-1-0.4-1-0.9
			s0.4-1,0.9-1c13.7-0.6,28.6,3.2,33.7,5.2c2.9,1.2,6,4.5,8.4,8.9c0.3,0.5,0.1,1.1-0.4,1.3C135.2,144.7,135.1,144.8,134.9,144.8z"/>
	</g>
	<g>
		<path class="st15" d="M145.4,27.2c0,0-8.2-0.6-16,2l0.1,0.1c-5.9-1.7-12.1-2.4-13.4-2.6c-0.2,0-0.3,0-0.3,0s-35.1,10.4-40,55.6
			c1.1,6.4,5.1,13.8,8.9,19.7c0.6,0.9,1.1,1.6,1.6,2.5c1.4,4.4,4.4,8.8,10.1,12.7c10.3,7.1,26.6,9.7,33.8,12.2c2,1.6,2.8,0.7,5.2,2
			c7.1-5.4,23.8-10.4,30.1-23.9c6.4-6.7,15.4-17.2,15.6-27.9C174.9,41.6,145.4,27.2,145.4,27.2z"/>
	</g>
	<g>
		<path class="st16" d="M112.9,28.5c0,0-21.8,16.5-27.7,55.1c3.4,12,11.3,34.1,35.1,40.2l8.7,5.6c0,0-36-6.8-42.6-25.8
			C77.9,91.8,76,82.3,76,82.3s1.5-23.4,14.8-37.9S112.9,28.5,112.9,28.5z"/>
	</g>
	<g>
		<path class="st4" d="M78.9,81.8c3.7,13.5,5.9,20.4,5.9,20.4l0,0c-3.9-6-7.9-13.4-9-19.8c4.7-45.2,39.9-55.6,39.9-55.6s0.1,0,0.3,0
			C114.6,27.5,81.9,45.2,78.9,81.8z"/>
	</g>
	<g>
		<path class="st10" d="M129,130.1c0,0-0.1,0-0.1,0c-0.7-0.1-18.5-2.2-32.6-12c-13.5-9.3-12.1-15.8-10.7-22.7
			c0.1-0.6,0.2-1.2,0.4-1.8c0.1-0.5,0.6-0.9,1.1-0.8c0.5,0.1,0.9,0.6,0.8,1.1c-0.1,0.6-0.2,1.2-0.4,1.8c-1.4,6.8-2.6,12.2,9.9,20.7
			c13.7,9.4,31.6,11.6,31.8,11.6c0.5,0.1,0.9,0.5,0.8,1.1C129.9,129.7,129.5,130.1,129,130.1z"/>
	</g>
	<g>
		<path class="st10" d="M135.2,132.4c-0.2,0-0.3,0-0.5-0.1c-9.4-5-15.9-8.4-15.9-8.4c-0.5-0.2-0.7-0.8-0.4-1.3
			c0.2-0.5,0.8-0.7,1.3-0.4c0,0,6.3,3.3,15.4,8.1c2-1.4,4.6-2.9,7.5-4.6c9.7-5.6,23-13.3,24.4-25.7c0.1-0.5,0.5-0.9,1.1-0.9
			c0.5,0.1,0.9,0.5,0.9,1.1c-1.5,13.4-15.3,21.4-25.4,27.2c-3.1,1.8-5.9,3.4-7.8,4.9C135.6,132.3,135.4,132.4,135.2,132.4z"/>
	</g>
	<g>
		<path class="st10" d="M166.5,107.9c-0.2,0-0.5-0.1-0.7-0.3c-0.4-0.4-0.4-1,0-1.4c6.9-7.4,14.4-16.1,14.6-26.6c0-0.5,0.4-0.9,1-0.9
			c0,0,0,0,0,0c0.5,0,1,0.5,0.9,1c-0.3,11.1-8,20.2-15.2,27.8C167,107.8,166.8,107.9,166.5,107.9z"/>
	</g>
	<g>
		<path class="st17" d="M181.5,80.8c-0.5,0-0.9-0.3-1-0.8c-5.8-35.8-32.6-50.6-35-51.8c-1.3-0.1-8.7-0.3-15.4,2
			c-0.5,0.2-1.1-0.1-1.2-0.6c-0.2-0.5,0.1-1.1,0.6-1.2c7.7-2.6,16-2.1,16.4-2c0.1,0,0.2,0,0.4,0.1c0.3,0.1,30,15.1,36.2,53.3
			c0.1,0.5-0.3,1-0.8,1.1C181.6,80.8,181.6,80.8,181.5,80.8z"/>
	</g>
	<g>
		<path class="st10" d="M85.3,104.4c-0.3,0-0.6-0.1-0.8-0.4c-5-7-7.9-13.6-9.3-21.5c0-0.1,0-0.2,0-0.3c2.5-23.6,13.3-37.7,22-45.3
			c9.4-8.3,18.1-11,18.5-11.1c0.1,0,0.2,0,0.4,0c0.7,0.1,16.8,1.6,23.5,7.1c0.4,0.3,0.5,0.9,0.1,1.4c-0.3,0.4-0.9,0.5-1.4,0.1
			c-5.9-4.8-20.4-6.5-22.3-6.7c-2.6,0.9-34.5,12.4-38.9,54.6c1.3,7.5,4.1,13.9,8.9,20.6c0.3,0.4,0.2,1-0.2,1.4
			C85.7,104.3,85.5,104.4,85.3,104.4z"/>
	</g>
	<g>
		<path class="st6" d="M105.5,50.1c0,0,11.6-4.7,28-5.2c12-0.3,20,4.5,20,4.5s11.2,19.3,12.1,34.4c-5.2,15.3-21.3,19.4-21.3,19.4
			s-3.2,7.8-13.4,7.8c-11.8,0-15.8-9.6-15.8-9.6s-13-2.9-21-14C94.2,69.8,105.5,50.1,105.5,50.1z"/>
	</g>
	<g>
		<path class="st7" d="M102.1,58.9c0,0-2.9,15.7-1.4,26.3c3.4,5.9,13.8,12,18.6,13.4c2.7,6.1,6.6,10.9,9.1,12.7
			c-10-1.5-13.3-9.7-13.3-9.7s-15.4-3.9-21-14C94.4,69.8,102.1,58.9,102.1,58.9z"/>
	</g>
	<g>
		<path class="st10" d="M95,61.3c-0.1,0-0.3,0-0.4-0.1c-3.4-1.4-5-5.3-3.6-8.6c1.4-3.4,5.3-5,8.6-3.6c0.5,0.2,0.7,0.8,0.5,1.3
			s-0.8,0.7-1.3,0.5c-2.3-1-5,0.2-6,2.6c-1,2.3,0.2,5,2.6,6c0.5,0.2,0.7,0.8,0.5,1.3C95.7,61,95.4,61.3,95,61.3z"/>
	</g>
	<g>
		<path class="st10" d="M163.5,61.3c-0.4,0-0.7-0.2-0.9-0.6c-0.2-0.5,0-1.1,0.5-1.3c2.4-1,3.5-3.7,2.6-6c-1-2.4-3.7-3.5-6-2.6
			c-0.5,0.2-1.1,0-1.3-0.5c-0.2-0.5,0-1.1,0.5-1.3c3.3-1.4,7.1,0.3,8.6,3.6c1.4,3.3-0.3,7.1-3.6,8.6
			C163.8,61.2,163.6,61.3,163.5,61.3z"/>
	</g>
	<g>
		<path class="st17" d="M130.9,112c-10.8,0-15.5-7.8-16.5-9.7c-2.5-0.6-13.7-4-21.1-14.3c-0.1-0.2-0.2-0.4-0.2-0.6
			c0.1-17.7,11.1-37,11.5-37.8c0.1-0.2,0.3-0.3,0.5-0.4c0.5-0.2,11.9-4.8,28.3-5.3c12.2-0.3,20.2,4.4,20.5,4.6
			c0.1,0.1,0.3,0.2,0.3,0.3c0.5,0.8,11.3,19.7,12.2,34.8c0,0.1,0,0.3,0,0.4c-4.9,14.4-18.8,19.1-21.5,19.9
			C144.1,105.8,140.3,112,130.9,112z M95.1,87.1c7.7,10.4,20.1,13.3,20.2,13.4c0.3,0.1,0.6,0.3,0.7,0.6c0.2,0.4,3.9,9,14.9,9
			c9.4,0,12.4-6.9,12.5-7.2c0.1-0.3,0.4-0.5,0.7-0.6c0.2,0,15.5-4.1,20.6-18.6c-0.9-13.8-10.6-31.4-11.8-33.6
			c-1.3-0.7-8.8-4.5-19.3-4.2c-14.6,0.4-25.4,4.3-27.4,5C104.8,53.4,95.3,71.2,95.1,87.1z"/>
	</g>
	<g>
		<path class="st17" d="M169.5,80.7h-14.1c-0.5,0-1-0.4-1-1s0.4-1,1-1h14.1c0.5,0,1,0.4,1,1S170,80.7,169.5,80.7z"/>
	</g>
	<g>
		<path class="st17" d="M169.3,86.1h-10.6c-0.5,0-1-0.4-1-1s0.4-1,1-1h10.6c0.5,0,1,0.4,1,1S169.8,86.1,169.3,86.1z"/>
	</g>
	<g>
		<path class="st17" d="M103,80.7H89c-0.5,0-1-0.4-1-1s0.4-1,1-1h14c0.5,0,1,0.4,1,1S103.5,80.7,103,80.7z"/>
	</g>
	<g>
		<path class="st17" d="M99.7,86.1H89.1c-0.5,0-1-0.4-1-1s0.4-1,1-1h10.6c0.5,0,1,0.4,1,1S100.2,86.1,99.7,86.1z"/>
	</g>
	<g>
		<path class="st10" d="M132.3,96.4c-2.5,0-4.4-0.9-4.6-0.9c-0.5-0.2-0.7-0.8-0.5-1.3c0.2-0.5,0.8-0.7,1.3-0.5c0,0,4.5,2,8.1-0.6
			c0.4-0.3,1-0.2,1.3,0.2c0.3,0.4,0.2,1-0.2,1.3C136,96,134,96.4,132.3,96.4z"/>
	</g>
	<g>
		<path class="st10" d="M121,88.5c-4.6,0-8.9-0.2-10.5-1.2c-1.5-0.9-2.3-2.2-3.2-3.8c-0.3-0.5-0.6-1.1-1-1.6c-0.3-0.4-0.2-1,0.3-1.3
			c0.4-0.3,1-0.2,1.3,0.3c0.4,0.6,0.7,1.2,1,1.7c0.8,1.4,1.4,2.4,2.5,3.1c1.5,0.9,8.5,0.9,11.2,0.9l1.1,0c2.6,0,6.6-4.3,7.9-5.9
			c0.3-0.4,0.9-0.5,1.3-0.2c2,1.4,7.7,5.1,11.1,4.9c3.2-1.6,4.8-5.9,4.8-6c0.2-0.5,0.7-0.8,1.2-0.6s0.8,0.7,0.6,1.2
			c-0.1,0.2-2,5.3-6,7.1c-0.1,0-0.2,0.1-0.3,0.1c-3.9,0.4-9.7-3.3-11.8-4.8c-1.5,1.8-5.5,6-8.9,6l-1.1,0
			C122.1,88.5,121.5,88.5,121,88.5z"/>
	</g>
	<g>
		<path class="st10" d="M144.2,62.8c-0.3,0-0.5-0.1-0.7-0.3c-0.4-0.4-0.3-1,0.1-1.4c2.7-2.4,6-2.4,6.1-2.4c0.5,0,1,0.5,0.9,1
			c0,0.5-0.4,0.9-1,0.9c0,0,0,0,0,0c0,0-2.6,0-4.7,1.8C144.7,62.7,144.4,62.8,144.2,62.8z"/>
	</g>
	<g>
		<path class="st10" d="M141.9,68.2c-0.5,0-0.9-0.3-1-0.8c-0.1-0.5,0.3-1,0.8-1.1l12.6-2c0.5-0.1,1,0.3,1.1,0.8
			c0.1,0.5-0.3,1-0.8,1.1l-12.6,2C142,68.2,141.9,68.2,141.9,68.2z"/>
	</g>
	<g>
		<path class="st10" d="M148.2,72.8c-2.3,0-5.7-0.8-7.4-4.9c-0.2-0.5,0-1.1,0.5-1.3c0.5-0.2,1.1,0,1.3,0.5c1.6,3.8,5,3.9,6.9,3.6
			c2.9-0.5,4.5-3,4.2-5.1c-0.1-0.5,0.3-1,0.8-1.1c0.5-0.1,1,0.3,1.1,0.8c0.5,2.9-1.6,6.6-5.8,7.3C149.3,72.7,148.8,72.8,148.2,72.8z
			"/>
	</g>
	<g>
		<circle class="st10" cx="148.8" cy="67.2" r="1.9"/>
	</g>
	<g>
		<path class="st10" d="M122.6,67.3c0,0-0.1,0-0.1,0c-0.5-0.1-0.9-0.6-0.8-1.1c0-0.1,0.3-2.6-1.5-4.7c-1.7-2-4.7-3-8.9-3.1
			c-0.5,0-1-0.4-1-1c0-0.5,0.5-1,1-1c4.8,0.1,8.3,1.3,10.3,3.8c2.4,2.8,1.9,6.1,1.9,6.2C123.5,66.9,123.1,67.3,122.6,67.3z"/>
	</g>
	<g>
		<path class="st10" d="M122.6,67.3C122.6,67.3,122.6,67.3,122.6,67.3l-16.2-1.1c-0.5,0-0.9-0.5-0.9-1c0-0.5,0.5-0.9,1-0.9l16.1,1.1
			c0.5,0,0.9,0.5,0.9,1C123.5,66.9,123.1,67.3,122.6,67.3z"/>
	</g>
	<g>
		<path class="st10" d="M115.6,74.5c-4.4,0-7.9-3.5-7.9-8c0-0.5,0.4-1,1-1s1,0.4,1,1c0,3.4,2.6,6,5.9,6c3.4,0,6-2.6,6-6
			c0-0.5,0.4-1,1-1s1,0.4,1,1C123.6,71,120.1,74.5,115.6,74.5z"/>
	</g>
	<g>
		<circle class="st10" cx="116.1" cy="67.8" r="1.9"/>
	</g>
	<g>
		<path class="st10" d="M141.9,77.1c-0.5,0-1-0.4-1-1c-0.2-11.9-3.5-21.4-3.5-21.5c-0.2-0.5,0.1-1.1,0.6-1.2
			c0.5-0.2,1.1,0.1,1.2,0.6c0.1,0.4,3.5,9.9,3.7,22.1C142.9,76.6,142.5,77.1,141.9,77.1C141.9,77.1,141.9,77.1,141.9,77.1z"/>
	</g>
	<g>
		<path class="st10" d="M123.1,76c-0.5,0-0.8,0.7-0.4,1c2.6,2.3,6.1,3.8,9.9,3.8s7.3-1.5,9.9-3.8c0.4-0.4,0.1-1-0.4-1H123.1z"/>
	</g>
	<g>
		<path class="st7" d="M207,92.9c0,0-15.7,5.9-21.4,5.5c-1.8,7-3.6,10.4-8,12.2c-4.5,1.8-12.8,4.6-12.8,4.6l-1.3-5.9l11.8-4.2
			l2.9-19.6l29.2,1.3L207,92.9z"/>
	</g>
	<g>
		<path class="st6" d="M192,68.4c-11.1,0-17.1,6.8-18.6,19.6c13.5,4.8,34.2,1.9,37.4,0.8C211.3,83.6,207.5,68.4,192,68.4z"/>
	</g>
	<g>
		<path class="st7" d="M181.5,71.9c0,0-2.5,11.4,9.3,13.4c11.7,2,19.7-1.1,19.7-1.1l0.4,4.6c0,0-22.1,4.5-37.4-0.8
			C173.2,78,181.5,71.9,181.5,71.9z"/>
	</g>
	<g>
		<path class="st8" d="M185.2,90.2c-0.5,0-1-0.4-1-1c0-2.4,0.4-6.1,0.4-6.2c0.1-0.5,0.5-0.9,1.1-0.9c0.5,0.1,0.9,0.5,0.9,1.1
			c0,0-0.4,3.7-0.4,6C186.2,89.7,185.7,90.2,185.2,90.2z"/>
	</g>
	<g>
		<path class="st8" d="M199.8,90c-0.5,0-0.9-0.4-1-0.8l-0.8-6.4c-0.1-0.5,0.3-1,0.8-1.1c0.5-0.1,1,0.3,1.1,0.8l0.8,6.4
			c0.1,0.5-0.3,1-0.8,1.1C199.9,90,199.8,90,199.8,90z"/>
	</g>
	<g>
		<path class="st10" d="M192.5,91.6c-6.6,0-13.7-0.7-19.4-2.7c-0.4-0.2-0.7-0.6-0.6-1c1.6-13.6,8.2-20.5,19.6-20.5c0.5,0,1,0.4,1,1
			s-0.4,1-1,1c-10.2,0-15.9,5.9-17.5,18c13,4.3,32.6,1.7,36,0.5c0.5-0.2,1.1,0.1,1.2,0.6s-0.1,1.1-0.6,1.2
			C209.1,90.4,201.3,91.6,192.5,91.6z"/>
	</g>
	<g>
		<path class="st10" d="M164.8,110.4c-0.4,0-0.7-0.2-0.9-0.6c-0.2-0.5,0-1.1,0.5-1.3l10.1-4.1l1.9-14.4c0.1-0.5,0.5-0.9,1.1-0.8
			c0.5,0.1,0.9,0.6,0.8,1.1l-2,15c0,0.3-0.3,0.6-0.6,0.8l-10.6,4.3C165,110.3,164.9,110.4,164.8,110.4z"/>
	</g>
	<g>
		<path class="st10" d="M184.8,135.4c-0.1,0-0.1,0-0.2,0c-5.7-1.4-21.5-0.5-21.6-0.5c-0.5,0-1-0.4-1-0.9c0-0.5,0.4-1,0.9-1
			c0.7,0,16.2-0.9,22.2,0.5c0.5,0.1,0.8,0.6,0.7,1.2C185.6,135.1,185.2,135.4,184.8,135.4z"/>
	</g>
	<g>
		<path class="st10" d="M186.3,132.7c-0.5,0-0.9-0.3-1-0.8c-0.1-0.5,0.2-1,0.8-1.1c4.1-0.8,6-1.8,8.7-3.1c0.6-0.3,1.2-0.6,2-1
			c8.6-10.3,9.7-35.9,9.7-36.2c0-0.5,0.5-1,1-0.9c0.5,0,0.9,0.5,0.9,1c0,1.1-1.2,26.8-10.3,37.5c-0.1,0.1-0.2,0.2-0.3,0.2
			c-0.8,0.4-1.4,0.7-2.1,1.1c-2.7,1.4-4.9,2.5-9.2,3.3C186.4,132.7,186.4,132.7,186.3,132.7z"/>
	</g>
	<g>
		<path class="st9" d="M211,89.8C211,89.8,211,89.8,211,89.8c-0.6,0-1-0.5-1-1c0.2-3-1-9.4-5.4-14.1c-3.2-3.5-7.5-5.2-12.7-5.2
			c-0.5,0-1-0.4-1-1s0.4-1,1-1c5.7,0,10.5,2,14.1,5.9c4.8,5.1,6.1,12.3,5.9,15.6C211.9,89.4,211.5,89.8,211,89.8z"/>
	</g>
	<g>
		<path class="st8" d="M93.8,115.6c2,1.3,13.2,7.8,35.8,7.6c23.5-0.2,33.4-11.9,36-14.2c3.7,3.7-11.5,21.2-35.8,21.2
			C105.3,130.2,91.1,120.8,93.8,115.6z"/>
		<path class="st10" d="M129.8,131.2c-19.3,0-33-5.8-36.5-11.5c-1.2-2-0.9-3.6-0.4-4.5c0.1-0.2,0.3-0.4,0.6-0.5
			c0.3-0.1,0.5,0,0.8,0.1c2,1.3,12.9,7.6,35.3,7.4c21.1-0.2,30.8-9.6,34.5-13.1c0.4-0.3,0.6-0.6,0.9-0.8c0.4-0.3,1-0.3,1.3,0
			c0.6,0.6,1.4,1.9,0.3,4.5c-1.6,3.8-6.2,8.3-12,11.7C149.5,127.6,141,131.2,129.8,131.2z M94.4,117.1c0,0.5,0.2,1,0.6,1.5
			c2.5,4.1,14.1,10.6,34.8,10.6c19.5,0,32.6-11.3,35-17.1c0.2-0.5,0.3-1,0.4-1.4c-3.7,3.5-14.2,13.3-35.6,13.4
			C109.5,124.4,98.3,119.3,94.4,117.1z"/>
	</g>
	<g>
		<circle class="st4" cx="134.7" cy="131.4" r="6.1"/>
		<path class="st5" d="M134.7,138.5c-3.9,0-7.1-3.2-7.1-7.1c0-3.9,3.2-7.1,7.1-7.1c3.9,0,7.1,3.2,7.1,7.1
			C141.8,135.3,138.6,138.5,134.7,138.5z M134.7,126.3c-2.8,0-5.1,2.3-5.1,5.1c0,2.8,2.3,5.1,5.1,5.1s5.1-2.3,5.1-5.1
			C139.8,128.6,137.5,126.3,134.7,126.3z"/>
	</g>
	<g>
		<circle class="st13" cx="135.7" cy="130.2" r="2.6"/>
	</g>
	<g>
		<path class="st18" d="M130,135.2c-0.2,0-0.4-0.1-0.6-0.2c-0.4-0.3-0.5-0.9-0.1-1.4c0.1-0.1,2.5-3.1,6.2-3.9c0.5-0.1,1,0.2,1.2,0.7
			c0.1,0.5-0.2,1-0.7,1.2c-3,0.7-5.2,3.2-5.2,3.3C130.6,135,130.3,135.2,130,135.2z"/>
	</g>
	<g>
		<path class="st18" d="M140.8,132.4c-0.5,0-1-0.4-1-1c0-2.9-2.3-5.1-5.1-5.1s-5.1,2.3-5.1,5.1c0,0.5-0.4,1-1,1s-1-0.4-1-1
			c0-4,3.1-7.1,7.1-7.1c4,0,7.1,3.1,7.1,7.1C141.8,131.9,141.3,132.4,140.8,132.4z"/>
	</g>
	<g>
		<path class="st15" d="M103.1,118.3c3.1,1.5,13.2,7.5,13.2,7.5s1.3-2.3,0.8-6"/>
	</g>
	<g>
		<path class="st16" d="M106.8,117.8c3.3,1.6,9.5,8.1,9.5,8.1s-14.7-5.9-16-7.5S106.8,117.8,106.8,117.8z"/>
	</g>
	<g>
		<path class="st10" d="M116.2,126.8c-0.1,0-0.3,0-0.4-0.1c-0.1-0.1-12.3-5.9-16.7-7.6c-0.5-0.2-0.8-0.7-0.6-1.2
			c0.2-0.5,0.8-0.8,1.2-0.6c3.8,1.4,13,5.8,16,7.2c0.3-0.9,0.6-2.5,0.3-4.6c-0.1-0.5,0.3-1,0.8-1.1c0.5-0.1,1,0.3,1.1,0.8
			c0.5,4-0.9,6.5-0.9,6.6C116.9,126.6,116.5,126.8,116.2,126.8z"/>
	</g>
</g>
</svg>
