<svg width="72" height="72" viewBox="0 0 72 72" fill="none" xmlns="http://www.w3.org/2000/svg">
<g clip-path="url(#clip0_7_279)">
<path d="M36 72C55.8823 72 72 55.8823 72 36C72 16.1178 55.8823 0 36 0C16.1178 0 0 16.1178 0 36C0 55.8823 16.1178 72 36 72Z" fill="url(#paint0_linear_7_279)"/>
<path d="M36 31.5C33.5147 31.5 31.5 33.5147 31.5 36C31.5 38.4853 33.5147 40.5 36 40.5C38.4853 40.5 40.5 38.4853 40.5 36C40.5 33.5147 38.4853 31.5 36 31.5Z" fill="white"/>
<path fill-rule="evenodd" clip-rule="evenodd" d="M21 32.925C21 28.7954 21 26.7305 21.7909 25.1477C22.5169 23.6948 23.6948 22.5169 25.1477 21.7909C26.7305 21 28.7954 21 32.925 21H39.075C43.2047 21 45.2695 21 46.8523 21.7909C48.3052 22.5169 49.4831 23.6948 50.2091 25.1477C51 26.7305 51 28.7954 51 32.925V39.075C51 43.2047 51 45.2695 50.2091 46.8523C49.4831 48.3052 48.3052 49.4831 46.8523 50.2091C45.2695 51 43.2047 51 39.075 51H32.925C28.7954 51 26.7305 51 25.1477 50.2091C23.6948 49.4831 22.5169 48.3052 21.7909 46.8523C21 45.2695 21 43.2047 21 39.075V32.925ZM28.5 36C28.5 31.8579 31.8579 28.5 36 28.5C40.1421 28.5 43.5 31.8579 43.5 36C43.5 40.1421 40.1421 43.5 36 43.5C31.8579 43.5 28.5 40.1421 28.5 36ZM44.25 28.5C45.4926 28.5 46.5 27.4926 46.5 26.25C46.5 25.0074 45.4926 24 44.25 24C43.0074 24 42 25.0074 42 26.25C42 27.4926 43.0074 28.5 44.25 28.5Z" fill="white"/>
</g>
<defs>
<linearGradient id="paint0_linear_7_279" x1="72" y1="0" x2="0" y2="72" gradientUnits="userSpaceOnUse">
<stop stop-color="#FDD15F"/>
<stop offset="0.4875" stop-color="#F34C89"/>
<stop offset="1" stop-color="#9220DE"/>
</linearGradient>
<clipPath id="clip0_7_279">
<rect width="72" height="72" fill="white"/>
</clipPath>
</defs>
</svg>
