<svg width="23" height="16" viewBox="0 0 23 16" fill="none" xmlns="http://www.w3.org/2000/svg">
<path d="M8.39375 11.2704L8.61236 11.72C8.10458 11.9669 7.54544 11.5823 7.54544 11.0463V4.96427C7.54544 4.42065 8.11956 4.03574 8.62847 4.29864L8.39375 11.2704ZM8.39375 11.2704L8.61237 11.72L14.6779 8.7712C14.6779 8.7712 14.6779 8.77119 14.678 8.77118C15.231 8.50232 15.2396 7.71359 14.6941 7.43182C14.694 7.43182 14.694 7.43181 14.694 7.43181L8.6285 4.29865L8.39375 11.2704ZM4.60688 0.5H17.5749C19.8341 0.5 21.6818 2.36953 21.6818 4.69598V11.304C21.6818 13.6305 19.8341 15.5 17.5749 15.5H4.60688C2.3477 15.5 0.5 13.6305 0.5 11.304V4.69598C0.5 2.36953 2.3477 0.5 4.60688 0.5Z" fill="url(#paint0_linear_0_209)" stroke="#6B67AA"/>
<defs>
<linearGradient id="paint0_linear_0_209" x1="4.92071" y1="14.6004" x2="13.7424" y2="-0.640127" gradientUnits="userSpaceOnUse">
<stop stop-color="#6BD4FF"/>
<stop offset="1" stop-color="#9D70FF"/>
</linearGradient>
</defs>
</svg>
