<svg width="265" height="145" viewBox="0 0 265 145" fill="none" xmlns="http://www.w3.org/2000/svg">
<g clip-path="url(#clip0_66_3)">
<path d="M4.46666 121.173C5.93772 108.465 14.9834 92.6539 19.3235 86.3277L15.8423 84.8811L11.9864 79.8274L9.60167 73.1441L7.58238 67.9073L6.11132 64.4741L2.82199 52.3892V47.5186L4.84127 41.2014L7.22604 36.6879L14.7458 24.9509L20.6118 18.6338L27.0351 13.5801L33.4585 9.24962L39.6991 6.72277L51.4401 3.28955L62.9985 8.52635H65.9315H70.5183L79.3264 10.1468L91.4267 20.7324L97.0867 24.0399L94.7283 24.9849L93.2695 26.9376L96.0197 34.7012L99.3182 46.6122L100.232 55.0991L101.146 63.586L98.2126 72.2469L93.8086 78.564L105.367 83.9839L120.955 88.3144L131.225 89.0376L149.197 87.7742L156.717 88.3144L162.218 90.6581L175.238 100.592L184.96 110.882L194.133 120.266L208.259 127.847C216.51 132.177 222.385 132.003 228.982 132.003C235.588 132.003 242.742 128.753 248.791 124.423C254.84 120.092 255.762 115.762 256.676 110.342C257.59 104.922 254.291 100.234 253.743 99.3281C242.742 98.321 235.707 91.3264 233.569 87.9573L232.518 84.5058C232.445 84.46 232.436 84.4051 232.472 84.3501L232.518 84.5058C232.847 84.7163 234.455 84.753 239.261 83.81C245.127 82.6564 249.896 84.6523 251.55 85.7967C253.688 87.7193 258.595 93.13 261.089 99.3373C264.205 107.101 263.657 114.498 261.272 120.101C259.362 124.578 250.819 130.877 246.781 133.459L234.674 137.249L222.933 137.789L210.827 135.446L198.354 130.392L187.719 123.535L184.055 131.481L184.969 135.812L184.42 140.325L181.853 141.946L169.746 143.026L144.802 142.303L131.234 141.946L131.417 140.142L116.743 142.669H109.588L105.367 141.946L104.079 139.776L96.3761 140.316L80.2401 139.776C80.0573 139.053 79.3995 137.936 78.2208 139.236C77.0421 140.536 72.3548 141.342 70.1528 141.58H29.228C28.7346 141.397 28.2047 140.206 29.959 136.883C18.5103 146.13 8.92553 143.502 5.5631 141.039C4.59457 139.703 3.00473 133.88 4.46666 121.173Z" fill="white"/>
<path d="M189.601 117.154C200.292 130.072 243.802 153.665 262.935 114.325C257.261 140.774 226.159 137.927 214.774 137.561C209.1 137.405 184.558 122.464 184.558 122.464C184.558 122.464 182.968 109.152 189.601 117.154Z" fill="#E2DDE8"/>
<path d="M7.32655 69.6015C4.42097 62.964 1.5154 54.8524 1.94484 46.3746C15.4951 4.39782 50.9193 1.45898 50.9193 1.45898C55.2777 2.83227 59.5447 4.48022 63.6929 6.39367C63.6929 6.39367 72.8299 4.46191 78.1751 8.60008C83.5203 12.7474 89.0683 20.2602 97.0705 23.7246C94.8593 25.6563 90.7751 24.3471 91.3964 25.2901C92.0177 26.2423 103.357 44.8091 100.204 64.0077C96.7415 73.4376 92.6573 83.5267 83.8492 86.6578C74.4015 99.5758 56.4746 112.466 56.4746 112.466C56.4746 112.466 27.2087 96.106 16.5001 85.7056C5.79153 75.3052 7.32655 69.6015 7.32655 69.6015Z" fill="#B896D6"/>
<path d="M40.0463 23.4497C49.1102 21.0968 58.6493 21.3074 67.5944 24.0723C87.3395 30.0781 90.0532 42.0166 88.3081 67.1477C80.2766 80.6975 69.3213 82.4004 69.3213 82.4004C67.6767 84.4878 65.4564 86.0533 62.9254 86.9047C60.4036 87.747 57.6807 87.8386 55.1132 87.1611C51.9975 86.6026 49.1011 85.1561 46.7894 82.9954C44.4777 80.8348 42.8331 78.0425 42.0656 74.9663C42.0656 74.9663 27.2727 68.9604 21.8179 56.8481C25.3905 39.8834 40.0463 23.4497 40.0463 23.4497Z" fill="white"/>
<path d="M22.823 57.0589C24.5773 48.7642 29.0544 40.5428 33.1387 34.363C35.1762 31.2777 37.1041 28.7142 38.5112 26.929C39.2148 26.0317 39.7996 25.3359 40.2016 24.8599C40.4026 24.6218 40.5579 24.4387 40.6676 24.3197C40.7224 24.2556 40.759 24.2098 40.7864 24.1824C40.7955 24.1641 40.8138 24.1549 40.8138 24.1458L40.8229 24.1366C40.8229 24.1366 40.8229 24.1366 40.0463 23.4408C39.2696 22.745 39.2696 22.745 39.2696 22.745L39.2605 22.7542C39.2513 22.7633 39.2422 22.7725 39.2239 22.7908C39.1965 22.8274 39.1508 22.8732 39.096 22.9373C38.9864 23.0654 38.8219 23.2577 38.6118 23.4957C38.2006 23.9901 37.6067 24.7042 36.8849 25.6198C35.4412 27.4417 33.4767 30.0509 31.4026 33.2003C27.2636 39.4717 22.6219 47.9494 20.7945 56.6194L22.823 57.0589ZM42.0564 74.9666C42.4493 74.0053 42.4493 74.0052 42.4493 74.0052C42.4493 74.0052 42.4493 74.0052 42.4402 74.0052C42.431 74.0052 42.4219 73.9961 42.4128 73.9961C42.3853 73.9869 42.3488 73.9686 42.294 73.9503C42.1935 73.9045 42.0381 73.8405 41.8371 73.7489C41.4351 73.5658 40.8503 73.2911 40.1285 72.9249C38.6849 72.1925 36.7113 71.0847 34.564 69.6016C30.2514 66.6353 25.3722 62.2408 22.7499 56.4272L20.8585 57.2786C23.7093 63.5774 28.9448 68.2466 33.3945 71.3045C35.6331 72.8425 37.6889 73.9961 39.1874 74.7651C39.9366 75.1497 40.5488 75.4426 40.9782 75.6349C41.1884 75.7356 41.362 75.8088 41.4808 75.8546C41.5356 75.8821 41.5813 75.9004 41.6178 75.9095C41.6361 75.9187 41.6452 75.9187 41.6544 75.9279H41.6635C41.6727 75.9279 41.6727 75.9279 42.0564 74.9666ZM47.4838 82.2358C45.3183 80.2125 43.7833 77.5941 43.0615 74.7194L41.0513 75.2229C41.8645 78.4913 43.6097 81.4576 46.0676 83.7556L47.4838 82.2358ZM55.2868 86.136C52.363 85.6141 49.6584 84.2591 47.4838 82.2267L46.0676 83.7464C48.5254 86.0444 51.6046 87.5825 54.9214 88.1776L55.2868 86.136ZM62.5965 85.9162C60.2665 86.6944 57.7538 86.786 55.3691 86.1543L54.8391 88.1684C57.6076 88.8917 60.5315 88.8001 63.2452 87.8846L62.5965 85.9162ZM68.499 81.7597C66.9731 83.6915 64.9264 85.138 62.5873 85.9162L63.2452 87.8846C65.9589 86.9782 68.3528 85.2937 70.1254 83.0415L68.499 81.7597ZM87.4127 66.617C83.4929 73.2271 78.8878 76.9166 75.2878 78.9491C73.4878 79.9745 71.9254 80.5787 70.8381 80.9358C70.2899 81.1097 69.8604 81.2196 69.568 81.2928C69.4218 81.3294 69.3122 81.3478 69.2482 81.3661C69.2117 81.3752 69.1843 81.3752 69.1751 81.3844C69.166 81.3844 69.166 81.3844 69.1569 81.3844C69.1569 81.3844 69.1569 81.3844 69.3213 82.4098C69.4767 83.4352 69.4767 83.4352 69.4858 83.4352H69.4949C69.5041 83.4352 69.5132 83.4352 69.5315 83.426C69.5589 83.4168 69.5954 83.4169 69.6411 83.4077C69.7325 83.3894 69.8695 83.3619 70.0431 83.3253C70.3812 83.2429 70.8746 83.1147 71.4777 82.9225C72.6929 82.5288 74.3741 81.8696 76.3112 80.771C80.1944 78.5737 85.0827 74.637 89.2035 67.6881L87.4127 66.617ZM67.2929 25.0613C76.9782 28.0001 82.2868 32.3306 85.0553 38.8399C87.8786 45.4592 88.1436 54.4954 87.2756 67.0747L89.3497 67.2212C90.2177 54.6602 90.0076 45.1662 86.9741 38.0251C83.8858 30.7742 77.965 26.1325 67.9051 23.0746L67.2929 25.0613ZM40.3021 24.457C49.1742 22.1499 58.5214 22.3605 67.2838 25.0613L67.8959 23.0746C58.7681 20.2548 49.028 20.0442 39.7813 22.4429L40.3021 24.457ZM21.8087 56.8483L20.7945 56.6286C20.7489 56.8483 20.7763 57.068 20.8676 57.2695L21.8087 56.8483ZM42.0564 74.9666L43.0615 74.7194C42.9427 74.2524 42.5315 73.932 42.0564 73.932V74.9666ZM55.1041 87.1613L55.3691 86.1543C55.3417 86.1451 55.3143 86.1451 55.2868 86.136L55.1041 87.1613ZM69.3122 82.4006L69.1569 81.3752C68.901 81.4118 68.6635 81.5492 68.499 81.7597L69.3122 82.4006ZM88.3081 67.148L89.2035 67.679C89.2857 67.5416 89.3314 67.386 89.3497 67.2212L88.3081 67.148ZM67.5944 24.0634L67.2929 25.0613L67.5944 24.0634ZM40.0463 23.45L39.7904 22.4429C39.5894 22.4978 39.4158 22.6077 39.2788 22.7542L40.0463 23.45Z" fill="black"/>
<path d="M3.26057 46.3286C3.26057 46.3286 4.83214 54.8247 8.60574 58.6058C11.4474 67.1019 18.2819 80.3312 30.3245 88.2047C38.5935 93.4324 47.3468 97.8544 56.4564 101.407C56.4564 101.407 74.0726 89.7886 84.4522 80.9629C90.3548 76.0557 95.6817 70.4893 100.323 64.3736C100.323 64.3736 96.4492 79.0678 83.5203 85.6687C76.0188 96.2339 66.7995 105.462 56.2462 112.97C56.2462 112.97 32.5356 101.736 21.5164 90.7224C10.4971 79.7087 7.13467 70.8647 7.37224 68.3653C2.64839 60.8122 3.26057 46.3286 3.26057 46.3286Z" fill="#A67EC9"/>
<path d="M22.7955 97.3236L35.3772 82.84C35.3772 82.84 42.3031 81.2745 40.4117 91.6474C45.7752 92.2882 56.1457 91.3361 55.899 95.7489C55.6523 100.162 53.5965 101.828 48.9092 101.828C49.2381 104.657 50.1701 110.947 42.6138 109.994C35.0574 109.042 22.7955 97.3236 22.7955 97.3236Z" fill="white"/>
<path d="M143.011 124.084C143.011 124.084 155.283 124.707 163.469 120.614C165.982 124.084 161.532 127.215 161.532 127.215L143.011 124.084Z" fill="#E2DDE8"/>
<path d="M15.2392 90.7224C15.2392 90.7224 18.0626 100.793 14.289 108.978C17.7702 104.043 21.6534 99.4016 25.9021 95.1169L17.4412 86.3462L15.2392 90.7224Z" fill="#E2DDE8"/>
<path d="M87.0015 92.297C84.7903 90.7314 77.5538 99.8501 73.1406 104.885C68.7274 109.921 63.0716 116.851 63.0716 116.851C63.0716 116.851 65.5843 123.141 57.7264 123.141C49.8686 123.141 33.4859 125.073 33.4859 125.073L37.2595 115.396C39.0503 115.506 40.8229 114.993 42.2848 113.958C43.7468 112.924 44.8158 111.422 45.3183 109.701C47.2188 109.17 49.229 109.17 51.1295 109.701L58.0371 113.455C58.0371 113.455 78.166 96.4535 83.5294 85.751C85.2198 87.6095 86.4076 89.8617 87.0015 92.297Z" fill="#E2DDE8"/>
<path d="M31.9143 114.947C31.9143 114.947 23.7458 142.651 4.2291 139.52C3.5895 142.038 4.2291 143.914 10.2139 144.226C16.1986 144.537 26.5691 143.914 31.293 133.212C33.8331 127.682 35.9712 121.978 37.6798 116.137L31.9143 114.947Z" fill="#E2DDE8"/>
<path d="M32.8646 129.751C32.8646 129.751 32.3072 136.682 47.9863 136.682C63.6655 136.682 73.7893 135.116 80.7061 122.198C87.6137 109.28 88.8928 104.583 89.8431 97.9551C92.0543 108.355 89.5324 127.554 82.9172 134.741C76.302 141.928 75.6807 142.605 55.2137 142.907C34.7468 143.21 27.6473 142.559 27.6473 142.559C27.7387 140.225 28.4605 137.954 29.7397 135.995C31.1011 134.109 32.161 131.994 32.8646 129.751Z" fill="#E2DDE8"/>
<path d="M86.9649 127.435C86.9649 127.435 96.1202 129.119 102.105 123.141C102.123 129.156 102.662 135.162 103.731 141.085C103.731 141.085 87.3121 141.708 78.568 139.52C81.8847 135.867 84.7081 131.811 86.9649 127.435Z" fill="#E2DDE8"/>
<path d="M128.548 122.189C127.798 127.49 125.331 132.397 121.512 136.151C117.702 139.904 112.75 142.303 107.441 142.962C128.209 142.962 131.371 140.133 131.371 140.133L138.297 125.961C138.306 125.961 133.253 121.566 128.548 122.189Z" fill="#E2DDE8"/>
<path d="M181.725 109.582C182.365 113.354 179.788 128.46 173.867 132.25C174.489 136.334 170.404 141.928 152.459 142.935C177.952 144.866 188.66 145.104 184.092 132.846C188.66 123.745 188.971 116.174 186.147 113.043C183.315 109.912 181.725 109.582 181.725 109.582Z" fill="#E2DDE8"/>
<path d="M40.8046 60.2813C38.8493 58.1573 37.497 55.5572 36.8757 52.7465L34.8473 53.1952C35.5508 56.3629 37.0767 59.2926 39.2788 61.6912L40.8046 60.2813ZM51.2665 62.8448L40.3112 59.9792L39.7904 61.9934L50.7457 64.8589L51.2665 62.8448ZM64.0767 58.8165L50.7 62.8631L51.3031 64.8498L64.6797 60.8032L64.0767 58.8165ZM74.5477 65.042C74.4289 65.0329 74.1822 64.978 73.7802 64.804C73.3964 64.6392 72.9396 64.4103 72.4279 64.1265C71.4137 63.5497 70.2533 62.799 69.1477 62.03C68.0421 61.2701 67.0096 60.501 66.2513 59.9334C65.8767 59.6496 65.566 59.4116 65.3467 59.2468C65.2371 59.1644 65.1548 59.1003 65.1 59.0545C65.0726 59.0362 65.0543 59.0179 65.0361 59.0087C65.0269 58.9996 65.0269 58.9996 65.0178 58.9996C65.0178 58.9996 65.0178 58.9996 64.3782 59.8144C63.7386 60.6292 63.7386 60.6292 63.7386 60.6292C63.7386 60.6292 63.7386 60.6292 63.7477 60.6292C63.7477 60.6292 63.7569 60.6384 63.766 60.6475C63.7843 60.6567 63.8026 60.675 63.83 60.7025C63.8848 60.7482 63.9762 60.8123 64.0858 60.9039C64.3051 61.0778 64.6249 61.3159 65.0086 61.6088C65.7853 62.1856 66.836 62.9638 67.969 63.7512C69.102 64.5294 70.3173 65.335 71.4137 65.9484C71.9619 66.2597 72.4919 66.5252 72.9761 66.7358C73.4421 66.928 73.9447 67.0928 74.4106 67.1294L74.5477 65.042ZM78.5314 60.4736C77.7091 62.5518 76.101 64.2272 74.0634 65.1336L74.904 67.0379C77.4441 65.9118 79.4452 63.8336 80.4594 61.2426L78.5314 60.4736ZM36.8757 52.7465C36.7478 52.1881 36.1996 51.831 35.6422 51.9592C35.0849 52.0874 34.7285 52.6367 34.8564 53.1952L36.8757 52.7465ZM40.0463 60.9863L39.2788 61.6912C39.4158 61.8377 39.5894 61.9384 39.7813 61.9934L40.0463 60.9863ZM51.0016 63.8519L50.7366 64.8589C50.9193 64.9047 51.1112 64.9047 51.2939 64.8498L51.0016 63.8519ZM64.3782 59.8052L65.0178 58.9904C64.7528 58.7799 64.4056 58.7158 64.0767 58.8165L64.3782 59.8052ZM74.4837 66.0766L74.4106 67.1111C74.5751 67.1203 74.7487 67.0928 74.904 67.0287L74.4837 66.0766ZM80.4594 61.2335C80.6695 60.7025 80.4137 60.0982 79.8746 59.8876C79.3446 59.6771 78.7416 59.9334 78.5314 60.4736L80.4594 61.2335Z" fill="black"/>
<path d="M69.4675 69.5463C68.5721 70.5717 67.3843 71.295 66.0685 71.6429L66.5893 73.657C68.3071 73.2084 69.8513 72.2563 71.0208 70.9288L69.4675 69.5463ZM71.1122 65.9117C70.9386 67.2575 70.3629 68.5209 69.4675 69.5463L71.0208 70.9196C72.1903 69.5921 72.9396 67.935 73.168 66.1772L71.1122 65.9117ZM66.0685 71.6337C65.5112 71.7802 65.1822 72.3478 65.3284 72.9063C65.4746 73.4648 66.0411 73.7943 66.5985 73.6479L66.0685 71.6337ZM73.168 66.1772C73.2411 65.6096 72.8391 65.0877 72.2726 65.0145C71.7061 64.9412 71.1853 65.344 71.1122 65.9117L73.168 66.1772Z" fill="black"/>
<path d="M13.759 84.2405C17.2768 88.104 21.0686 91.6929 25.1164 94.9979L26.4229 93.3866C22.4575 90.1548 18.7296 86.63 15.2849 82.8489L13.759 84.2405ZM10.0494 53.0302C8.57832 56.4909 6.55904 61.1967 6.39457 66.5892C6.2301 72.0365 7.957 78.0882 13.7773 84.2588L15.2849 82.8306C9.83923 77.0536 8.32248 71.533 8.46868 66.6533C8.61487 61.7094 10.4697 57.3424 11.959 53.8542L10.0494 53.0302ZM25.1255 94.9979C25.5732 95.3641 26.2219 95.2909 26.5874 94.8514C26.9529 94.4028 26.8798 93.7528 26.4412 93.3866L25.1255 94.9979ZM14.5265 83.5447L15.294 82.8489C15.294 82.8397 15.2849 82.8397 15.2849 82.8397L14.5265 83.5447ZM11.959 53.8451C12.1874 53.3141 11.9407 52.7098 11.4108 52.4809C10.8809 52.252 10.2778 52.4992 10.0494 53.0302L11.959 53.8451Z" fill="black"/>
<path d="M56.8219 112.1L49.9325 107.706L48.8178 109.463L55.7071 113.858L56.8219 112.1ZM84.7264 81.0638C82.1863 88.6809 76.9507 95.0072 71.3041 100.171C65.6574 105.334 59.6818 109.253 55.6615 112.118L56.8675 113.812C60.8056 111.001 66.9366 106.982 72.702 101.709C78.4766 96.4263 83.9863 89.807 86.6908 81.7229L84.7264 81.0638ZM49.9325 107.706C49.4483 107.394 48.8087 107.541 48.498 108.026C48.1874 108.511 48.3336 109.152 48.8178 109.463L49.9325 107.706ZM56.2645 112.97L55.7071 113.849C56.0635 114.078 56.5203 114.068 56.8675 113.821L56.2645 112.97ZM86.6908 81.7229C86.8736 81.1828 86.5812 80.5877 86.033 80.4046C85.4939 80.2215 84.9 80.5145 84.7172 81.0638L86.6908 81.7229Z" fill="black"/>
<path d="M31.9143 22.2138C32.4808 22.342 33.0199 22.58 33.495 22.9188L34.7011 21.225C33.9976 20.7215 33.2026 20.3645 32.362 20.1813L31.9143 22.2138ZM30.1783 22.1772C30.7539 22.0765 31.3387 22.0856 31.9143 22.2138L32.3712 20.1813C31.5306 19.9891 30.6625 19.9708 29.8128 20.1264L30.1783 22.1772ZM28.5702 22.8181C29.0544 22.4976 29.6026 22.2779 30.1783 22.1772L29.8128 20.1356C28.963 20.2912 28.159 20.6116 27.4372 21.0786L28.5702 22.8181ZM27.3367 24.0357C27.6656 23.5505 28.0859 23.1385 28.5702 22.8181L27.4372 21.0786C26.7153 21.5546 26.094 22.1589 25.6189 22.873L27.3367 24.0357ZM26.6697 25.6379C26.7793 25.0611 27.0077 24.5209 27.3275 24.0357L25.6098 22.873C25.1255 23.5871 24.7966 24.3928 24.6321 25.2442L26.6697 25.6379ZM26.6879 27.3682C26.5691 26.8006 26.56 26.2055 26.6697 25.6379L24.6321 25.2442C24.4676 26.0865 24.4768 26.9654 24.6504 27.8077L26.6879 27.3682ZM27.3732 28.9612C27.0351 28.4852 26.8067 27.945 26.6879 27.3682L24.6595 27.7985C24.8422 28.6408 25.1803 29.4373 25.6737 30.1514L27.3732 28.9612ZM28.6341 30.1606C28.1407 29.8493 27.7113 29.4465 27.3823 28.9612L25.6829 30.1514C26.1763 30.8564 26.8067 31.4606 27.5377 31.9184L28.6341 30.1606ZM33.495 22.9188C33.961 23.2484 34.6097 23.1476 34.9387 22.6807C35.2676 22.2138 35.1671 21.5638 34.7011 21.2342L33.495 22.9188ZM27.5285 31.9184C28.0128 32.2205 28.6524 32.074 28.963 31.5888C29.2646 31.1036 29.1184 30.4627 28.6341 30.1514L27.5285 31.9184Z" fill="black"/>
<path d="M55.2594 52.142C54.7752 52.0413 54.3457 52.6456 54.7021 52.9935C57.6442 55.4105 60.897 57.4063 64.3782 58.9352C67.4208 59.0176 70.436 58.3035 73.1132 56.8478C73.2137 56.7929 73.2868 56.7105 73.3325 56.6098C73.3782 56.5091 73.3964 56.3992 73.3782 56.2802C73.3599 56.1703 73.3051 56.0696 73.2228 55.9872C73.1406 55.9048 73.0401 55.8591 72.9305 55.8408L55.2594 52.142Z" fill="black"/>
<path d="M99.3913 64.1354C96.9974 74.3618 90.5192 81.0268 83.2827 86.0348L84.4614 87.7468C91.9355 82.5741 98.8522 75.5245 101.411 64.6115L99.3913 64.1354ZM91.7162 26.2968C97.2075 38.1986 99.8299 51.2265 99.3639 64.3368L101.438 64.4101C101.913 50.9793 99.2268 37.631 93.5984 25.427L91.7162 26.2968ZM83.2827 86.0348C82.8076 86.3643 82.6888 87.0052 83.0177 87.4813C83.3467 87.9574 83.9863 88.0764 84.4614 87.7468L83.2827 86.0348ZM100.406 64.3734L101.42 64.6115C101.438 64.5474 101.447 64.4741 101.447 64.4101L100.406 64.3734ZM93.5984 25.427C93.3609 24.9052 92.7395 24.6763 92.2187 24.9235C91.6979 25.1615 91.4695 25.7841 91.7162 26.3059L93.5984 25.427Z" fill="black"/>
<path d="M50.9191 1.45859C50.6085 2.44735 50.6085 2.44735 50.6085 2.44735C50.6085 2.44735 50.6085 2.44735 50.6176 2.44735C50.6268 2.44735 50.6359 2.45651 50.645 2.45651C50.6724 2.46566 50.7181 2.47482 50.773 2.49313C50.8826 2.52975 51.0471 2.58468 51.2572 2.64877C51.6775 2.7861 52.2806 2.99667 53.0298 3.26217C54.5283 3.80233 56.575 4.58053 58.777 5.55098C63.2541 7.52852 68.179 10.211 70.6551 13.1865L72.245 11.8498C69.4308 8.48066 64.0947 5.63338 59.6176 3.65585C57.3516 2.65792 55.2592 1.86142 53.7334 1.3121C52.9658 1.03744 52.3445 0.826873 51.9151 0.680389C51.6958 0.607147 51.5313 0.552215 51.4125 0.515594C51.3577 0.497284 51.312 0.478973 51.2755 0.469818C51.2572 0.460663 51.2481 0.460663 51.2389 0.460663H51.2298C51.2298 0.460663 51.2298 0.460663 50.9191 1.45859ZM2.93145 46.6947C9.61976 25.9763 21.6806 14.9443 32.0238 9.07575C37.2045 6.13692 41.974 4.48897 45.4369 3.57345C47.1638 3.11569 48.5709 2.84103 49.5395 2.68539C50.0237 2.60299 50.3983 2.55722 50.645 2.52975C50.773 2.51144 50.8643 2.50228 50.9283 2.50228C50.9557 2.50228 50.9831 2.49313 50.9922 2.49313C51.0014 2.49313 51.0014 2.49313 51.0105 2.49313C51.0105 2.49313 51.0105 2.49313 50.9283 1.45859C50.8461 0.424042 50.8369 0.414886 50.8369 0.414886C50.8369 0.414886 50.8369 0.414886 50.8278 0.414886C50.8186 0.414886 50.8095 0.414886 50.8004 0.414886C50.7821 0.414886 50.7547 0.424042 50.7181 0.424042C50.645 0.433197 50.5354 0.442352 50.3983 0.460663C50.1242 0.497284 49.7222 0.552215 49.2105 0.634612C48.1872 0.799407 46.7161 1.08322 44.9161 1.55929C41.3161 2.51144 36.373 4.22347 31.0096 7.26301C20.2553 13.3604 7.81977 24.7862 0.957854 46.0538L2.93145 46.6947ZM8.27662 69.1891C5.38931 62.579 2.56597 54.6506 2.97714 46.4292L0.903031 46.3285C0.464454 55.0626 3.45226 63.3572 6.36698 70.0314L8.27662 69.1891ZM70.6643 13.1956C71.0298 13.6351 71.6876 13.69 72.1262 13.3238C72.5648 12.9576 72.6196 12.2984 72.2541 11.859L70.6643 13.1956ZM50.9191 1.45859L51.2298 0.469818C51.1019 0.424042 50.9648 0.405731 50.8369 0.414886L50.9191 1.45859ZM1.94465 46.3742L0.957854 46.0538C0.930443 46.1362 0.912168 46.2278 0.912168 46.3193L1.94465 46.3742ZM6.37611 70.0223C6.60454 70.5441 7.21672 70.7913 7.74667 70.5533C8.26748 70.3244 8.51418 69.711 8.27662 69.18L6.37611 70.0223Z" fill="black"/>
<path d="M74.1 34.8752C73.7711 41.8332 72.967 48.7546 71.7152 55.6119L73.7528 55.9872C75.0228 49.0476 75.8269 42.0255 76.165 34.9759L74.1 34.8752ZM71.7152 55.6119C71.6147 56.1795 71.9893 56.7197 72.5467 56.8204C73.104 56.9211 73.6523 56.5457 73.7528 55.9872L71.7152 55.6119ZM76.1741 34.9759C76.2015 34.3992 75.7629 33.9139 75.1873 33.8865C74.6117 33.859 74.1274 34.2985 74.1 34.8752L76.1741 34.9759Z" fill="black"/>
<path d="M92.173 99.8683C91.5426 96.5266 89.7791 93.011 88.2258 90.3834C87.44 89.0559 86.6999 87.939 86.1517 87.1425C85.8776 86.7488 85.6492 86.4284 85.4939 86.2178C85.4116 86.1079 85.3477 86.0255 85.3111 85.9706C85.2928 85.9431 85.2746 85.9157 85.2654 85.9065C85.2563 85.8974 85.2563 85.8974 85.2563 85.8882C85.2563 85.8882 85.2563 85.8882 85.2563 85.879C85.2563 85.879 85.2563 85.879 84.434 86.5108C83.6116 87.1425 83.6116 87.1425 83.6116 87.1425L83.6208 87.1516C83.6299 87.1608 83.6482 87.1791 83.6665 87.2066C83.703 87.2615 83.767 87.3347 83.8401 87.4354C83.9862 87.6369 84.2055 87.939 84.4705 88.3143C85.0005 89.0742 85.7132 90.1546 86.4624 91.4271C87.9791 93.9906 89.5872 97.259 90.1537 100.244L92.173 99.8683ZM88.034 127.792C89.6421 122.738 90.9944 117.483 91.7893 112.649C92.5842 107.833 92.8309 103.356 92.1639 99.8591L90.1263 100.244C90.7202 103.375 90.5192 107.577 89.7426 112.301C88.9659 117.007 87.6411 122.152 86.0604 127.151L88.034 127.792ZM67.6858 143.694C72.6198 143.694 76.8959 142.358 80.3588 139.657C83.8126 136.956 86.3893 132.964 88.034 127.792L86.0604 127.16C84.5071 132.031 82.1406 135.629 79.0888 138.009C76.0462 140.38 72.236 141.607 67.6858 141.607V143.694V143.694ZM27.6382 143.694H67.6949V141.616H27.6382V143.694ZM27.1174 138.43C26.8524 139.803 26.6788 141.195 26.5965 142.596L28.6707 142.715C28.7438 141.406 28.9082 140.106 29.1549 138.824L27.1174 138.43ZM85.238 85.8699C84.8908 85.4121 84.2421 85.3297 83.7852 85.6776C83.3284 86.0255 83.2461 86.6756 83.5934 87.1333L85.238 85.8699ZM91.1497 100.061L90.1263 100.253L91.1497 100.061ZM27.6382 142.651L26.6057 142.587C26.5874 142.87 26.6879 143.154 26.8889 143.365C27.0808 143.575 27.3549 143.694 27.6473 143.694V142.651H27.6382ZM29.1549 138.824C29.2646 138.256 28.8991 137.716 28.3326 137.606C27.7661 137.496 27.227 137.863 27.1174 138.43L29.1549 138.824Z" fill="black"/>
<path d="M64.6797 122.391C54.5193 121.118 42.3945 121.731 33.9519 125.11L34.7194 127.041C42.7234 123.837 54.4554 123.205 64.4239 124.46L64.6797 122.391ZM33.9519 125.11C33.4219 125.32 33.1569 125.924 33.3762 126.465C33.5864 126.996 34.1894 127.261 34.7285 127.041L33.9519 125.11ZM64.4239 124.46C64.9904 124.533 65.5112 124.13 65.5843 123.553C65.6574 122.977 65.2553 122.464 64.6797 122.391L64.4239 124.46Z" fill="black"/>
<path d="M78.1203 140.564C77.9467 141.589 77.9467 141.589 77.9467 141.589C77.9467 141.589 77.9467 141.589 77.9558 141.589C77.965 141.589 77.9649 141.589 77.9741 141.589C77.9924 141.589 78.0106 141.598 78.038 141.598C78.0929 141.608 78.1842 141.617 78.2939 141.635C78.5223 141.662 78.8695 141.708 79.3355 141.763C80.2766 141.864 81.7111 141.992 83.7487 142.102C87.8147 142.322 94.2471 142.477 103.75 142.221L103.695 140.143C94.2289 140.399 87.8604 140.253 83.8583 140.033C81.8573 139.923 80.4502 139.795 79.5548 139.703C79.1071 139.658 78.7781 139.612 78.5771 139.584C78.4766 139.566 78.3944 139.557 78.3487 139.548C78.3213 139.548 78.3122 139.538 78.2939 139.538C78.2847 139.538 78.2847 139.538 78.2847 139.538C78.2939 139.538 78.2939 139.538 78.1203 140.564ZM103.759 142.221C104.334 142.203 104.782 141.727 104.764 141.15C104.746 140.573 104.27 140.124 103.695 140.143L103.759 142.221ZM78.2939 139.538C77.7274 139.438 77.1883 139.822 77.0969 140.39C76.9964 140.958 77.3802 141.498 77.9467 141.589L78.2939 139.538Z" fill="black"/>
<path d="M63.0899 114.782L61.034 122.317L63.0351 122.866L65.0909 115.332L63.0899 114.782ZM61.034 122.317C60.8787 122.866 61.2076 123.443 61.765 123.59C62.3224 123.736 62.8889 123.416 63.0351 122.857L61.034 122.317ZM65.0909 115.332C65.2462 114.782 64.9173 114.206 64.3599 114.059C63.8117 113.903 63.2361 114.233 63.0899 114.792L65.0909 115.332Z" fill="black"/>
<path d="M84.7629 49.844C81.0441 49.139 77.2157 49.2397 73.5426 50.1461L74.036 52.1694C77.4259 51.3363 80.9528 51.2447 84.3792 51.8947L84.7629 49.844ZM73.5426 50.1461C72.9853 50.2834 72.6472 50.8419 72.7843 51.4004C72.9213 51.9588 73.4787 52.2976 74.036 52.1603L73.5426 50.1461ZM84.3792 51.8856C84.9457 51.9955 85.4847 51.6201 85.5944 51.0616C85.704 50.494 85.3294 49.9538 84.772 49.844L84.3792 51.8856Z" fill="black"/>
<path d="M36.4828 134.201C35.5143 136.719 34.8473 139.337 34.4909 142.001L36.5468 142.276C36.8849 139.767 37.5153 137.304 38.4199 134.942L36.4828 134.201ZM34.4818 142.01C34.4087 142.578 34.8016 143.1 35.3681 143.182C35.9346 143.265 36.4554 142.862 36.5376 142.294L34.4818 142.01ZM38.4199 134.952C38.63 134.411 38.3559 133.816 37.826 133.606C37.2869 133.395 36.693 133.67 36.4828 134.201L38.4199 134.952Z" fill="black"/>
<path d="M78.102 43.6096L82.5974 42.7398L82.2045 40.6982L77.7091 41.5679L78.102 43.6096ZM82.5974 42.7398C83.1639 42.6299 83.5294 42.0898 83.4198 41.5221C83.3101 40.9545 82.771 40.5883 82.2045 40.6982L82.5974 42.7398ZM77.7091 41.5771C77.1426 41.6869 76.7771 42.2271 76.8868 42.7947C76.9964 43.3624 77.5355 43.7286 78.102 43.6187L77.7091 41.5771Z" fill="black"/>
<path d="M25.6006 141.864C29.2737 139.52 31.7681 135.189 33.7052 130.566C35.6422 125.961 37.159 120.706 38.6574 116.577L36.7112 115.863C35.1305 120.211 33.7143 125.183 31.7955 129.76C29.8767 134.32 27.5925 138.128 24.4859 140.106L25.6006 141.864ZM3.7357 143.402C5.89204 144.574 9.61081 145.288 13.5763 145.187C17.5692 145.086 22.0006 144.152 25.6006 141.864L24.4859 140.106C21.3062 142.129 17.2768 143.008 13.5215 143.109C9.74786 143.209 6.44026 142.514 4.73163 141.58L3.7357 143.402ZM17.4504 87.3716C16.5915 86.7948 16.5915 86.7948 16.5915 86.7948C16.5915 86.7948 16.5915 86.7948 16.5915 86.804C16.5915 86.804 16.5824 86.8131 16.5824 86.8223C16.5732 86.8406 16.555 86.8589 16.5367 86.8955C16.5001 86.9596 16.4362 87.0512 16.3631 87.161C16.2077 87.3991 15.9976 87.747 15.7143 88.1864C15.1661 89.0836 14.3895 90.3837 13.4758 92.0316C11.6575 95.3092 9.31842 99.9418 7.18949 105.353C2.96819 116.128 -0.449064 130.182 3.23316 142.779L5.22503 142.193C1.74382 130.264 4.94178 116.76 9.11741 106.103C11.2007 100.802 13.5032 96.2522 15.2849 93.0296C16.1803 91.4182 16.9387 90.1457 17.4687 89.2668C17.7336 88.8273 17.9529 88.4977 18.09 88.2688C18.1631 88.159 18.2179 88.0674 18.2544 88.0125C18.2727 87.985 18.291 87.9667 18.291 87.9484C18.291 87.9392 18.3001 87.9392 18.3001 87.9301C18.3184 87.9484 18.3184 87.9484 17.4504 87.3716ZM38.6574 116.577C38.8493 116.037 38.5752 115.442 38.0361 115.24C37.497 115.048 36.9031 115.323 36.7021 115.863L38.6574 116.577ZM4.2291 142.495L3.23316 142.788C3.30626 143.054 3.489 143.274 3.7357 143.411L4.2291 142.495ZM18.3184 87.9484C18.6382 87.4723 18.5103 86.8223 18.0352 86.511C17.56 86.1906 16.9113 86.3188 16.6006 86.7948L18.3184 87.9484Z" fill="black"/>
<path d="M26.0757 92.2148C23.8737 94.7874 12.7722 106.717 7.29914 122.757L9.2636 123.434C14.5905 107.834 25.4087 96.1882 27.6564 93.5698L26.0757 92.2148ZM33.4585 82.8582C30.7356 86.5111 28.561 89.2943 26.0666 92.2148L27.6382 93.5698C30.1783 90.6035 32.3803 87.7745 35.1123 84.1033L33.4585 82.8582ZM41.8097 86.4104C41.7275 85.4949 41.2615 84.6617 40.6859 83.9934C40.1011 83.3159 39.3427 82.73 38.5387 82.3088C37.7437 81.8968 36.83 81.613 35.9437 81.6405C35.03 81.6588 34.0981 82.0067 33.4585 82.8673L35.1214 84.1124C35.3041 83.8652 35.5691 83.7279 35.9894 83.7187C36.4371 83.7096 36.9945 83.8561 37.5884 84.1582C38.1732 84.4603 38.7123 84.8815 39.1143 85.3484C39.5255 85.8245 39.7173 86.2639 39.7447 86.6027L41.8097 86.4104ZM40.7315 92.8191C41.4625 90.7958 41.828 88.6534 41.8188 86.4928L39.7447 86.5019C39.7539 88.4154 39.4249 90.3105 38.7762 92.105L40.7315 92.8191ZM7.29 122.757C7.10726 123.297 7.39051 123.892 7.93873 124.075C8.47782 124.258 9.07172 123.974 9.25446 123.425L7.29 122.757ZM26.8615 92.8923L27.6473 93.5698L26.8615 92.8923ZM34.2899 83.4807L35.1214 84.1033L34.2899 83.4807ZM40.7772 86.5019L41.8188 86.4928C41.8188 86.4653 41.8188 86.4287 41.8188 86.4012L40.7772 86.5019ZM38.7762 92.1141C38.5843 92.6543 38.8584 93.2494 39.3975 93.4416C39.9366 93.6339 40.5305 93.3592 40.7224 92.8191L38.7762 92.1141Z" fill="black"/>
<path d="M54.5376 92.6814C54.0716 92.3976 53.4594 92.187 52.8381 92.0314C52.1985 91.8666 51.4493 91.7384 50.6726 91.6377C49.1011 91.4271 47.2828 91.3081 45.5833 91.244C43.8747 91.1799 42.2483 91.1616 41.0513 91.1616C40.4574 91.1616 39.964 91.1708 39.6168 91.1708C39.4432 91.1708 39.3153 91.1799 39.2239 91.1799C39.1783 91.1799 39.1417 91.1799 39.1234 91.1799C39.1143 91.1799 39.1052 91.1799 39.096 91.1799H39.0869C39.0869 91.1799 39.0869 91.1799 39.1143 92.2236C39.1417 93.2673 39.1417 93.2673 39.1417 93.2673C39.1417 93.2673 39.1417 93.2673 39.1508 93.2673C39.16 93.2673 39.1691 93.2673 39.1783 93.2673C39.1965 93.2673 39.2331 93.2673 39.2788 93.2673C39.3701 93.2673 39.498 93.2673 39.6625 93.2582C40.0006 93.249 40.4757 93.249 41.0696 93.249C42.2483 93.249 43.8381 93.2582 45.5194 93.3314C47.2006 93.3955 48.9366 93.5145 50.4168 93.7159C51.1569 93.8167 51.8148 93.9357 52.3539 94.073C52.9112 94.2103 53.2767 94.3568 53.4868 94.485L54.5376 92.6814ZM52.8929 102.34C55.1041 101.974 56.2919 99.9049 56.5843 98.0281C56.8858 96.1421 56.4016 93.8166 54.5376 92.6814L53.4594 94.4575C54.3092 94.9702 54.766 96.252 54.5376 97.6985C54.3092 99.145 53.5051 100.134 52.5549 100.289L52.8929 102.34ZM42.696 101.837C42.696 102.88 42.696 102.88 42.696 102.88C42.696 102.88 42.7051 102.88 42.7143 102.88C42.7234 102.88 42.7508 102.88 42.7782 102.88C42.8331 102.88 42.9062 102.88 43.0067 102.88C43.1985 102.88 43.4818 102.88 43.8381 102.871C44.5326 102.862 45.5011 102.844 46.561 102.816C48.6716 102.752 51.2391 102.624 52.8929 102.349L52.5549 100.299C51.0564 100.546 48.6168 100.674 46.497 100.738C45.4463 100.775 44.496 100.784 43.8107 100.793C43.4635 100.793 43.1894 100.802 42.9975 100.802C42.897 100.802 42.8239 100.802 42.7782 100.802C42.7508 100.802 42.7326 100.802 42.7234 100.802C42.7143 100.802 42.7143 100.802 42.7051 100.802C42.696 100.802 42.696 100.802 42.696 101.837ZM39.0686 91.1799C38.493 91.1891 38.0453 91.6743 38.0544 92.2419C38.0635 92.8187 38.5478 93.2673 39.1143 93.2582L39.0686 91.1799ZM42.696 100.802C42.1204 100.802 41.6544 101.269 41.6544 101.846C41.6544 102.423 42.1204 102.89 42.696 102.89V100.802Z" fill="black"/>
<path d="M45.2544 108.548C43.2899 108.767 42.2757 108.639 41.8097 108.511C41.6909 108.483 41.6178 108.447 41.563 108.429C41.5356 108.419 41.5173 108.41 41.5082 108.401C41.4991 108.401 41.4991 108.392 41.4991 108.392C41.4991 108.392 41.5082 108.392 41.5082 108.401C41.5173 108.41 41.5265 108.419 41.5447 108.438C41.563 108.456 41.5722 108.474 41.5904 108.502C41.5996 108.511 41.6087 108.529 41.6178 108.538C41.627 108.548 41.627 108.557 41.6361 108.557L41.6453 108.566C41.6453 108.566 41.6453 108.566 41.6453 108.575C41.6453 108.575 41.6452 108.575 40.759 109.115C39.8727 109.646 39.8727 109.646 39.8727 109.655C39.8727 109.655 39.8727 109.655 39.8727 109.665L39.8818 109.674C39.8909 109.683 39.8909 109.692 39.9001 109.701C39.9092 109.719 39.9275 109.738 39.9366 109.756C39.964 109.793 40.0006 109.829 40.0371 109.875C40.1102 109.957 40.2016 110.04 40.3204 110.113C40.5488 110.269 40.8595 110.415 41.2706 110.525C42.0838 110.745 43.3813 110.846 45.4828 110.617L45.2544 108.548ZM46.7894 107.989C46.3234 108.291 45.7935 108.483 45.2361 108.548L45.4828 110.608C46.3417 110.507 47.1732 110.205 47.9041 109.738L46.7894 107.989ZM47.9498 106.817C47.6574 107.293 47.2645 107.696 46.7985 107.989L47.9133 109.738C48.6442 109.271 49.2564 108.639 49.7133 107.898L47.9498 106.817ZM48.4706 105.261C48.4158 105.81 48.2331 106.35 47.9498 106.817L49.7133 107.907C50.1701 107.165 50.4442 106.332 50.5356 105.471L48.4706 105.261ZM48.2696 103.622C48.4615 104.144 48.5346 104.702 48.4706 105.252L50.5356 105.462C50.6178 104.602 50.5082 103.723 50.2158 102.908L48.2696 103.622ZM41.6544 108.584C41.362 108.09 40.7224 107.934 40.229 108.227C39.7356 108.52 39.5803 109.161 39.8727 109.655L41.6544 108.584ZM45.364 109.582L45.4737 110.617H45.4828L45.364 109.582ZM50.2158 102.908C50.0148 102.368 49.4209 102.093 48.8818 102.285C48.3427 102.487 48.0686 103.082 48.2605 103.622L50.2158 102.908Z" fill="black"/>
<path d="M45.5833 110.434C44.5508 110.47 44.5508 110.47 44.5508 110.47C44.5508 110.47 44.5508 110.47 44.5508 110.479C44.5508 110.489 44.5508 110.507 44.5508 110.525C44.5508 110.571 44.5508 110.644 44.5417 110.736C44.5234 110.928 44.4869 111.203 44.4046 111.532C44.2402 112.182 43.893 112.961 43.1985 113.601C41.8554 114.837 38.7305 115.945 31.4209 113.336L30.7265 115.295C38.2645 117.987 42.3945 117.163 44.6056 115.139C45.6838 114.151 46.1864 112.97 46.4148 112.063C46.5336 111.606 46.5884 111.212 46.6067 110.919C46.6158 110.772 46.6249 110.653 46.6249 110.571C46.6249 110.525 46.6249 110.489 46.6249 110.47C46.6249 110.461 46.6249 110.443 46.6249 110.434V110.425C46.6158 110.397 46.6158 110.397 45.5833 110.434ZM31.4118 113.327C30.8727 113.134 30.2788 113.418 30.0869 113.958C29.895 114.499 30.1783 115.094 30.7174 115.286L31.4118 113.327ZM46.6158 110.397C46.5975 109.82 46.1133 109.372 45.5376 109.399C44.962 109.417 44.5143 109.903 44.5417 110.479L46.6158 110.397Z" fill="black"/>
<path d="M52.3995 42.648C53.3498 43.06 53.3498 43.06 53.3498 43.06V43.0509C53.3498 43.0417 53.3589 43.0326 53.3589 43.0234C53.3681 43.0051 53.3772 42.9685 53.3955 42.9319C53.4229 42.8586 53.4594 42.7579 53.496 42.6297C53.5782 42.3825 53.6696 42.0255 53.7427 41.586C53.8889 40.7254 53.9437 39.5261 53.5874 38.1986C52.8564 35.4612 50.4716 32.5407 44.5417 30.8469L43.9752 32.8428C49.4026 34.3992 51.0929 36.8802 51.5863 38.7296C51.8422 39.7001 51.8056 40.5881 51.696 41.2381C51.6412 41.5677 51.5681 41.8241 51.5224 41.998C51.495 42.0804 51.4767 42.1537 51.4584 42.1903C51.4493 42.2086 51.4493 42.2269 51.4401 42.2269V42.2361C51.4401 42.2452 51.4402 42.2452 52.3995 42.648ZM37.8808 38.8486C42.8422 39.2057 46.3234 40.3867 48.5437 41.4487C49.6584 41.9797 50.4534 42.4832 50.965 42.8495C51.2209 43.0326 51.4036 43.179 51.5224 43.2798C51.5772 43.3255 51.6229 43.3622 51.6503 43.3896C51.6594 43.3988 51.6686 43.4079 51.6777 43.4079C51.6777 43.4079 51.6777 43.4079 52.3995 42.6572C53.1214 41.9065 53.1214 41.9065 53.1214 41.9065C53.1214 41.9065 53.1214 41.9065 53.1122 41.8973C53.1122 41.8973 53.1031 41.8882 53.094 41.879C53.0848 41.8698 53.0665 41.8515 53.0391 41.8332C52.9934 41.7966 52.9386 41.7417 52.8564 41.6776C52.7011 41.5494 52.4726 41.3663 52.1711 41.1557C51.5681 40.7254 50.6635 40.1578 49.4391 39.5719C46.9904 38.4 43.2534 37.1549 38.027 36.7795L37.8808 38.8486ZM44.5508 30.8469C44.0026 30.6913 43.427 31.0117 43.2716 31.561C43.1163 32.1104 43.4361 32.6871 43.9843 32.8428L44.5508 30.8469ZM52.3995 42.648L51.6777 43.3988C51.9244 43.6368 52.2716 43.7375 52.6006 43.6643C52.9386 43.6002 53.2127 43.3713 53.3498 43.0509L52.3995 42.648ZM38.027 36.7704C37.4513 36.7246 36.9579 37.1641 36.9214 37.7317C36.8757 38.3085 37.3143 38.8028 37.8808 38.8395L38.027 36.7704Z" fill="black"/>
<path d="M40.7407 42.6023C40.5214 41.7142 40.5305 40.7804 40.7681 39.8923L38.7671 39.3522C38.4381 40.579 38.4199 41.8699 38.7214 43.1058L40.7407 42.6023ZM42.0199 44.9918C41.3985 44.3143 40.96 43.4904 40.7407 42.6023L38.7214 43.0967C39.0229 44.3326 39.6351 45.4679 40.494 46.4017L42.0199 44.9918ZM40.7681 39.8832C40.9143 39.3247 40.5945 38.7571 40.0371 38.6106C39.4798 38.4641 38.9133 38.7845 38.7671 39.343L40.7681 39.8832ZM40.5031 46.4017C40.896 46.8229 41.5447 46.8503 41.965 46.4567C42.3853 46.063 42.4127 45.413 42.0199 44.9918L40.5031 46.4017Z" fill="black"/>
<path d="M48.7904 45.9259C47.5386 46.6583 46.0402 46.8597 44.6422 46.4935L44.1214 48.5077C46.0584 49.0112 48.1143 48.7366 49.8412 47.7295L48.7904 45.9259ZM51.3305 42.5934C50.9559 43.9941 50.0422 45.1935 48.7904 45.9167L49.832 47.7112C51.5589 46.7041 52.8198 45.0562 53.3407 43.1244L51.3305 42.5934ZM44.6422 46.4844C44.0848 46.3379 43.5183 46.6675 43.3721 47.2259C43.2259 47.7844 43.5549 48.352 44.1122 48.4985L44.6422 46.4844ZM53.3407 43.1336C53.4868 42.5751 53.1579 42.0075 52.6097 41.861C52.0523 41.7145 51.4858 42.0441 51.3396 42.5934L53.3407 43.1336Z" fill="black"/>
<path d="M46.1407 44.3328C47.1275 44.3328 47.9224 43.5363 47.9224 42.5475C47.9224 41.5679 47.1275 40.7622 46.1407 40.7622C45.1539 40.7622 44.3589 41.5587 44.3589 42.5475C44.3589 43.5363 45.1539 44.3328 46.1407 44.3328Z" fill="black"/>
<path d="M37.296 45.8435C39.6168 46.2281 41.8371 47.0887 43.8107 48.3612L44.9346 46.6126C42.7234 45.1844 40.229 44.2231 37.6341 43.7928L37.296 45.8435ZM43.8199 48.3704C44.3041 48.6817 44.9437 48.5444 45.2544 48.0591C45.565 47.5739 45.428 46.933 44.9437 46.6217L43.8199 48.3704ZM37.6341 43.7928C37.0676 43.7012 36.5376 44.0857 36.4371 44.6534C36.3458 45.221 36.7295 45.752 37.296 45.8527L37.6341 43.7928Z" fill="black"/>
<path d="M97.8471 22.9459C96.6228 23.6234 94.6035 24.0079 92.7487 24.2093C91.8532 24.31 91.0309 24.3558 90.4461 24.3741C90.1537 24.3833 89.9162 24.3924 89.7517 24.3924C89.6695 24.3924 89.6055 24.3924 89.569 24.3924C89.5507 24.3924 89.5324 24.3924 89.5233 24.3924C89.5141 24.3924 89.5141 24.3924 89.5141 24.3924C89.5141 24.3924 89.5141 24.3924 89.5141 25.4361C89.5141 26.4798 89.5141 26.4798 89.5141 26.4798C89.5141 26.4798 89.5233 26.4798 89.5324 26.4798C89.5416 26.4798 89.5598 26.4798 89.5872 26.4798C89.6329 26.4798 89.706 26.4798 89.7883 26.4798C89.9619 26.4798 90.2177 26.4706 90.5284 26.4615C91.1497 26.434 92.0177 26.3883 92.9679 26.2784C94.8319 26.077 97.2258 25.6741 98.8522 24.7678L97.8471 22.9459ZM78.7599 8.36156C78.0106 9.07567 78.0106 9.07567 78.0106 9.07567C78.0106 9.07567 78.0106 9.07567 78.0198 9.08483C78.0289 9.09398 78.038 9.10314 78.0472 9.11229C78.0746 9.13976 78.1111 9.17638 78.166 9.23131C78.2665 9.33202 78.4127 9.48766 78.6045 9.67992C78.9792 10.0644 79.5274 10.6229 80.2035 11.2912C81.5558 12.6279 83.4197 14.4315 85.4939 16.2809C87.5588 18.1302 89.8431 20.0437 92.0177 21.6001C94.1649 23.1381 96.3121 24.4016 98.103 24.8502L98.6055 22.836C97.2258 22.4881 95.3436 21.4261 93.2238 19.9063C91.1314 18.414 88.9111 16.5555 86.8735 14.7245C84.836 12.9026 82.9903 11.1264 81.6654 9.80809C80.9984 9.14891 80.4593 8.5996 80.0847 8.22423C79.902 8.03197 79.7558 7.88549 79.6553 7.78478C79.6096 7.73901 79.5731 7.69323 79.5456 7.67492C79.5365 7.66576 79.5274 7.65661 79.5182 7.64745L79.5091 7.6383C79.5091 7.64745 79.5091 7.64745 78.7599 8.36156ZM63.5467 7.58337C68.5721 7.10729 73.6523 7.70238 78.4218 9.35033L79.0979 7.38195C74.0452 5.64245 68.6726 5.00159 63.3457 5.51428L63.5467 7.58337ZM89.505 24.4016C88.9294 24.4016 88.4634 24.8685 88.4634 25.4453C88.4634 26.022 88.9294 26.489 89.505 26.489V24.4016ZM98.3497 23.8522L98.8522 24.7586C99.2268 24.548 99.4278 24.1361 99.373 23.7149C99.3182 23.2938 99.0075 22.9459 98.5964 22.8452L98.3497 23.8522ZM78.7599 8.36156V9.40526C79.2624 9.40526 79.701 9.03905 79.7832 8.53551C79.8654 8.03197 79.5731 7.54674 79.0979 7.38195L78.7599 8.36156ZM63.3457 5.51428C62.7792 5.56921 62.3589 6.07275 62.4137 6.64953C62.4685 7.21716 62.9711 7.6383 63.5467 7.58337L63.3457 5.51428Z" fill="black"/>
<path d="M132.933 124.029C134.112 124.899 135.428 125.549 136.835 125.97L137.42 123.975C136.25 123.627 135.145 123.077 134.158 122.354L132.933 124.029ZM130.174 105.069C129.141 104.996 129.141 104.996 129.141 104.996V105.005C129.141 105.014 129.141 105.023 129.141 105.041C129.141 105.069 129.141 105.115 129.132 105.17C129.123 105.28 129.114 105.444 129.105 105.646C129.087 106.058 129.068 106.644 129.05 107.358C129.023 108.786 129.041 110.736 129.187 112.814C129.343 114.883 129.635 117.108 130.174 119.067C130.713 120.999 131.535 122.848 132.86 123.984L134.203 122.4C133.354 121.677 132.668 120.331 132.166 118.509C131.672 116.733 131.389 114.654 131.243 112.659C131.097 110.663 131.088 108.786 131.106 107.394C131.115 106.699 131.142 106.131 131.161 105.737C131.17 105.545 131.179 105.389 131.188 105.289C131.188 105.234 131.197 105.197 131.197 105.17C131.197 105.16 131.197 105.151 131.197 105.142V105.133C131.216 105.142 131.216 105.142 130.174 105.069ZM136.835 125.97C137.383 126.135 137.959 125.824 138.123 125.265C138.288 124.716 137.977 124.139 137.42 123.975L136.835 125.97ZM133.546 123.196L132.869 123.984C132.888 124.002 132.906 124.011 132.924 124.029L133.546 123.196ZM131.216 105.142C131.252 104.565 130.823 104.071 130.256 104.034C129.681 103.998 129.187 104.428 129.151 104.996L131.216 105.142Z" fill="black"/>
<path d="M260.148 93.5974C258.759 91.6107 256.694 87.8479 253.369 85.1471C249.942 82.373 245.191 80.7068 238.439 82.6202L239.005 84.6161C245.09 82.8949 249.147 84.3963 252.071 86.7584C255.095 89.2028 256.895 92.5445 258.449 94.7784L260.148 93.5974ZM264.443 115.689C265.941 108.063 264.406 100.143 260.167 93.6248L258.431 94.7601C262.369 100.83 263.794 108.191 262.405 115.286L264.443 115.689ZM240.86 137.781C251.623 134.512 262.021 127.115 264.434 115.707L262.405 115.277C260.212 125.622 250.673 132.635 240.257 135.794L240.86 137.781ZM188.486 124.57C187.829 125.375 187.829 125.375 187.829 125.375C187.829 125.375 187.829 125.375 187.838 125.375C187.838 125.375 187.847 125.384 187.856 125.384C187.865 125.394 187.893 125.412 187.911 125.43C187.966 125.467 188.039 125.531 188.139 125.604C188.34 125.76 188.624 125.979 188.998 126.254C189.747 126.813 190.853 127.591 192.251 128.497C195.056 130.31 199.085 132.635 203.965 134.704C213.723 138.833 226.999 141.974 240.86 137.762L240.257 135.776C227.045 139.795 214.289 136.819 204.778 132.791C200.027 130.777 196.107 128.506 193.375 126.749C192.013 125.87 190.944 125.11 190.223 124.579C189.866 124.313 189.583 124.103 189.4 123.956C189.309 123.883 189.236 123.828 189.199 123.791C189.181 123.773 189.163 123.764 189.154 123.755C189.144 123.755 189.144 123.746 189.144 123.746C189.135 123.764 189.144 123.764 188.486 124.57ZM238.439 82.6202C237.89 82.7759 237.571 83.3526 237.726 83.9019C237.881 84.4513 238.457 84.7717 239.005 84.6161L238.439 82.6202ZM259.299 94.1924L260.167 93.6248C260.157 93.6157 260.157 93.6065 260.148 93.5974L259.299 94.1924ZM263.419 115.488L264.434 115.707C264.434 115.698 264.434 115.698 264.434 115.689L263.419 115.488ZM240.558 136.783L240.257 135.785L240.558 136.783ZM189.144 123.764C188.697 123.398 188.048 123.471 187.682 123.91C187.317 124.359 187.39 125.009 187.829 125.375L189.144 123.764Z" fill="black"/>
<path d="M185.024 133.322C186.805 129.642 188.295 125.833 189.473 121.924L187.491 121.319C186.339 125.128 184.887 128.836 183.16 132.416L185.024 133.322ZM180.51 144.327C182.684 144.116 184.192 143.255 185.106 141.955C185.992 140.692 186.221 139.163 186.193 137.79C186.166 136.407 185.873 135.08 185.599 134.119C185.462 133.633 185.325 133.23 185.225 132.938C185.17 132.791 185.133 132.681 185.097 132.599C185.078 132.562 185.069 132.526 185.06 132.507C185.06 132.498 185.051 132.489 185.051 132.48V132.471C185.051 132.471 185.051 132.471 184.092 132.873C183.132 133.276 183.132 133.276 183.132 133.276C183.132 133.276 183.132 133.285 183.141 133.295C183.15 133.313 183.16 133.331 183.169 133.368C183.196 133.432 183.233 133.523 183.278 133.652C183.37 133.899 183.489 134.256 183.607 134.686C183.854 135.556 184.101 136.7 184.119 137.826C184.137 138.971 183.936 139.996 183.406 140.756C182.904 141.47 182.008 142.093 180.318 142.258L180.51 144.327ZM130.951 143.072C130.896 144.107 130.896 144.107 130.896 144.107C130.896 144.107 130.896 144.107 130.905 144.107C130.905 144.107 130.914 144.107 130.923 144.107C130.941 144.107 130.96 144.107 130.996 144.107C131.06 144.107 131.161 144.116 131.28 144.125C131.526 144.134 131.901 144.153 132.376 144.18C133.326 144.226 134.706 144.29 136.415 144.354C139.823 144.491 144.528 144.656 149.736 144.784C160.125 145.022 172.542 145.077 180.51 144.317L180.309 142.248C172.478 142.999 160.171 142.944 149.773 142.706C144.583 142.587 139.887 142.413 136.488 142.276C134.788 142.203 133.418 142.148 132.467 142.102C131.992 142.084 131.627 142.065 131.371 142.047C131.243 142.038 131.152 142.038 131.088 142.029C131.06 142.029 131.033 142.029 131.015 142.029C131.005 142.029 130.996 142.029 130.996 142.029C131.005 142.038 131.005 142.038 130.951 143.072ZM139.019 123.727C137.767 124.716 136.606 126.272 135.565 128.003C134.514 129.751 133.555 131.756 132.741 133.716C131.919 135.675 131.243 137.616 130.75 139.245C130.274 140.838 129.955 142.221 129.909 143.027L131.983 143.136C132.011 142.605 132.257 141.443 132.741 139.85C133.207 138.293 133.865 136.426 134.66 134.521C135.455 132.617 136.369 130.713 137.347 129.074C138.333 127.417 139.348 126.117 140.307 125.366L139.019 123.727ZM163.058 126.52C154.131 123.645 145.104 122.574 139.494 123.526L139.841 125.577C144.994 124.707 153.656 125.687 162.428 128.506L163.058 126.52ZM189.473 121.924C189.638 121.374 189.327 120.798 188.779 120.624C188.231 120.459 187.655 120.77 187.481 121.319L189.473 121.924ZM184.092 132.873L183.16 132.416C183.032 132.681 183.023 132.992 183.141 133.276L184.092 132.873ZM180.409 143.292L180.309 142.258L180.409 143.292ZM130.951 143.072L129.918 143.017C129.891 143.594 130.329 144.079 130.905 144.107L130.951 143.072ZM139.658 124.542L139.485 123.517C139.311 123.544 139.156 123.617 139.019 123.727L139.658 124.542ZM162.419 128.497C162.967 128.671 163.552 128.369 163.725 127.829C163.899 127.28 163.597 126.694 163.058 126.52L162.419 128.497Z" fill="black"/>
<path d="M104.079 143.585C105.751 144.509 108.364 144.811 111.123 144.821C113.947 144.83 117.135 144.546 120.123 144.161C123.111 143.777 125.916 143.301 127.981 142.916C129.014 142.724 129.854 142.559 130.439 142.431C130.731 142.367 130.96 142.321 131.115 142.285C131.197 142.266 131.252 142.257 131.298 142.248C131.316 142.248 131.334 142.239 131.344 142.239C131.353 142.239 131.353 142.239 131.353 142.239C131.353 142.239 131.353 142.239 131.133 141.223C130.914 140.206 130.914 140.206 130.914 140.206H130.905C130.896 140.206 130.878 140.215 130.859 140.215C130.823 140.225 130.759 140.234 130.686 140.252C130.53 140.289 130.311 140.334 130.019 140.389C129.443 140.508 128.612 140.673 127.597 140.865C125.569 141.25 122.8 141.717 119.858 142.092C116.916 142.468 113.819 142.742 111.132 142.733C108.382 142.724 106.253 142.404 105.084 141.763L104.079 143.585ZM103.686 119.067C103.028 119.525 102.58 120.266 102.251 121.054C101.913 121.859 101.666 122.83 101.475 123.882C101.1 125.997 100.963 128.588 101.027 131.161C101.091 133.734 101.356 136.343 101.794 138.494C102.014 139.575 102.288 140.554 102.608 141.387C102.927 142.193 103.329 142.935 103.868 143.438L105.276 141.909C105.075 141.726 104.81 141.323 104.535 140.618C104.27 139.941 104.024 139.08 103.823 138.073C103.412 136.068 103.156 133.587 103.092 131.106C103.028 128.625 103.165 126.18 103.512 124.249C103.686 123.278 103.905 122.463 104.161 121.85C104.426 121.209 104.682 120.898 104.855 120.779L103.686 119.067ZM132.285 121.96C132.458 120.934 132.458 120.934 132.458 120.934H132.449C132.44 120.934 132.422 120.934 132.403 120.925C132.367 120.916 132.303 120.907 132.23 120.898C132.074 120.87 131.846 120.834 131.554 120.788C130.969 120.687 130.128 120.559 129.096 120.394C127.031 120.074 124.198 119.671 121.128 119.314C118.067 118.957 114.76 118.655 111.763 118.536C108.784 118.417 106.016 118.481 104.06 118.911L104.499 120.944C106.18 120.577 108.72 120.495 111.681 120.614C114.614 120.733 117.857 121.026 120.891 121.383C123.924 121.731 126.729 122.134 128.785 122.445C129.808 122.601 130.649 122.738 131.225 122.83C131.517 122.875 131.736 122.912 131.892 122.939C131.965 122.949 132.029 122.958 132.065 122.967C132.084 122.967 132.102 122.976 132.111 122.976C132.12 122.976 132.12 122.976 132.12 122.976C132.111 122.976 132.111 122.976 132.285 121.96ZM131.362 142.239C131.919 142.12 132.275 141.561 132.148 141.003C132.029 140.444 131.471 140.087 130.914 140.215L131.362 142.239ZM104.581 142.669L103.878 143.429C103.942 143.484 104.005 143.539 104.079 143.575L104.581 142.669ZM104.27 119.927L104.051 118.911C103.923 118.939 103.795 118.994 103.686 119.076L104.27 119.927ZM132.111 122.976C132.678 123.077 133.217 122.692 133.308 122.134C133.399 121.575 133.025 121.026 132.467 120.934L132.111 122.976Z" fill="black"/>
<path d="M103.786 130.017L109.753 130.502L109.917 128.433L103.951 127.948L103.786 130.017ZM109.744 130.502C110.319 130.548 110.813 130.127 110.858 129.55C110.904 128.973 110.484 128.479 109.908 128.433L109.744 130.502ZM103.951 127.948C103.375 127.902 102.882 128.323 102.836 128.9C102.79 129.467 103.211 129.971 103.786 130.017L103.951 127.948Z" fill="black"/>
<path d="M103.238 138.97L109.588 138.797L109.533 136.718L103.183 136.892L103.238 138.97ZM109.588 138.797C110.164 138.778 110.612 138.302 110.593 137.725C110.575 137.149 110.1 136.7 109.524 136.718L109.588 138.797ZM103.183 136.892C102.608 136.911 102.16 137.387 102.178 137.963C102.196 138.54 102.671 138.989 103.247 138.97L103.183 136.892Z" fill="black"/>
<path d="M140.864 135.345L138.114 142.413L140.051 143.164L142.801 136.096L140.864 135.345ZM138.114 142.404C137.904 142.935 138.169 143.539 138.708 143.75C139.247 143.96 139.841 143.695 140.051 143.154L138.114 142.404ZM142.801 136.096C143.011 135.565 142.747 134.961 142.207 134.75C141.677 134.539 141.074 134.805 140.864 135.345L142.801 136.096Z" fill="black"/>
<path d="M239.215 85.0826C241.244 85.4762 243.135 86.3734 244.716 87.6918L246.041 86.0896C244.186 84.5424 241.975 83.4987 239.599 83.0409L239.215 85.0826ZM233.139 85.4579C235.104 84.8171 237.196 84.6889 239.215 85.0826L239.608 83.0409C237.242 82.5832 234.793 82.7388 232.5 83.4804L233.139 85.4579ZM254.821 98.2844C246.68 96.6365 241.792 94.2744 238.768 91.7659C235.771 89.2848 234.528 86.6115 233.815 84.1762L231.823 84.7621C232.618 87.4812 234.044 90.5574 237.443 93.3681C240.823 96.1604 246.068 98.6323 254.41 100.317L254.821 98.2844ZM239.206 131.875C248.974 128.378 254.675 122.94 257.096 116.87C259.518 110.809 258.604 104.29 255.516 98.788L253.707 99.8042C256.539 104.858 257.316 110.708 255.169 116.091C253.021 121.466 247.877 126.556 238.503 129.907L239.206 131.875ZM188.002 114.947C187.28 115.689 187.28 115.689 187.28 115.689C187.28 115.689 187.29 115.698 187.299 115.707C187.308 115.716 187.335 115.743 187.363 115.762C187.417 115.808 187.491 115.881 187.591 115.982C187.792 116.165 188.084 116.439 188.459 116.778C189.217 117.456 190.332 118.408 191.739 119.525C194.563 121.758 198.592 124.633 203.435 127.233C213.083 132.406 226.131 136.553 239.206 131.875L238.512 129.916C226.25 134.301 213.86 130.465 204.421 125.402C199.716 122.875 195.787 120.074 193.028 117.895C191.648 116.806 190.57 115.881 189.839 115.222C189.473 114.892 189.19 114.636 189.007 114.462C188.916 114.37 188.843 114.306 188.797 114.26C188.77 114.242 188.761 114.224 188.742 114.215C188.733 114.205 188.733 114.205 188.733 114.205C188.733 114.196 188.733 114.196 188.002 114.947ZM157.156 89.2482C164.484 92.2694 171.967 98.8063 177.677 104.675C180.519 107.595 182.895 110.324 184.558 112.319C185.389 113.317 186.047 114.132 186.485 114.7C186.705 114.984 186.878 115.203 186.988 115.35C187.043 115.423 187.089 115.478 187.116 115.515C187.134 115.533 187.143 115.551 187.143 115.56L187.153 115.57C187.153 115.57 187.152 115.57 187.984 114.947C188.815 114.324 188.815 114.324 188.815 114.324L188.806 114.315C188.797 114.306 188.788 114.288 188.77 114.269C188.742 114.233 188.697 114.169 188.633 114.096C188.514 113.94 188.34 113.711 188.112 113.427C187.655 112.85 186.988 112.017 186.147 111.001C184.457 108.969 182.045 106.204 179.158 103.237C173.41 97.3323 165.671 90.5299 157.932 87.3439L157.156 89.2482ZM118.351 88.6806C125.359 90.301 133.345 89.9715 140.426 89.4954C143.989 89.2573 147.306 88.9827 150.221 88.882C153.154 88.7813 155.557 88.8637 157.302 89.294L157.795 87.2798C155.749 86.7763 153.099 86.703 150.148 86.8037C147.187 86.9044 143.797 87.1883 140.28 87.4171C133.189 87.8932 125.487 88.1953 118.807 86.6481L118.351 88.6806ZM93.4065 78.7105C101.2 83.2057 109.597 86.5565 118.342 88.6714L118.826 86.6481C110.274 84.579 102.059 81.3014 94.439 76.9069L93.4065 78.7105ZM244.716 87.6918C245.154 88.058 245.812 87.9939 246.178 87.5545C246.543 87.115 246.479 86.4558 246.041 86.0896L244.716 87.6918ZM232.819 84.4691L232.5 83.4804C231.97 83.6543 231.668 84.222 231.823 84.7621L232.819 84.4691ZM254.62 99.3007L255.525 98.788C255.379 98.5225 255.123 98.3394 254.821 98.2753L254.62 99.3007ZM238.859 130.895L239.206 131.875L238.859 130.895ZM188.002 114.947L187.171 115.57C187.198 115.615 187.235 115.652 187.271 115.689L188.002 114.947ZM157.558 88.2869L157.951 87.3256C157.905 87.3073 157.85 87.289 157.804 87.2798L157.558 88.2869ZM118.588 87.6643L118.342 88.6714H118.351L118.588 87.6643ZM94.439 76.9069C93.9456 76.6231 93.306 76.7879 93.0228 77.2914C92.7395 77.795 92.904 78.4267 93.4065 78.7105L94.439 76.9069Z" fill="black"/>
</g>
<defs>
<clipPath id="clip0_66_3">
<rect width="264.133" height="144.781" fill="white" transform="translate(0.866669 0.415039)"/>
</clipPath>
</defs>
</svg>
