<svg width="170" height="23" viewBox="0 0 170 23" fill="none" xmlns="http://www.w3.org/2000/svg">
<path d="M0.212 22V2.12H12.308V5.984H4.272V10.1H10.572V13.964H4.272V22H0.212ZM16.7637 5.704C16.1104 5.704 15.5411 5.47067 15.0557 5.004C14.5704 4.51867 14.3277 3.94 14.3277 3.268C14.3277 2.596 14.5704 2.02667 15.0557 1.56C15.5411 1.07467 16.1104 0.831999 16.7637 0.831999C17.4544 0.831999 18.0331 1.07467 18.4997 1.56C18.9851 2.02667 19.2277 2.596 19.2277 3.268C19.2277 3.94 18.9851 4.51867 18.4997 5.004C18.0331 5.47067 17.4544 5.704 16.7637 5.704ZM14.8597 22V8H18.6957V22H14.8597ZM22.3792 22V8H26.2153V9.596C27.0739 8.32667 28.4086 7.692 30.2193 7.692C31.8993 7.692 33.2153 8.252 34.1673 9.372C35.1379 10.4733 35.6233 11.948 35.6233 13.796V22H31.7873V14.44C31.7873 13.4133 31.5726 12.62 31.1433 12.06C30.7139 11.4813 30.1073 11.192 29.3233 11.192C28.3899 11.192 27.6339 11.528 27.0553 12.2C26.4953 12.872 26.2153 13.8613 26.2153 15.168V22H22.3792ZM45.7529 22.168C44.1849 22.168 42.8969 21.7387 41.8889 20.88C40.8996 20.0027 40.4049 18.7427 40.4049 17.1V11.36H37.5769V8H40.4049V4.108H44.2409V8H48.1889V11.36H44.2409V16.344C44.2409 17.2027 44.4276 17.8187 44.8009 18.192C45.1742 18.5467 45.7809 18.724 46.6209 18.724C47.2182 18.724 47.7409 18.64 48.1889 18.472V21.86C47.5169 22.0653 46.7049 22.168 45.7529 22.168ZM57.2587 22.308C55.1307 22.308 53.3574 21.636 51.9387 20.292C50.5387 18.948 49.8387 17.184 49.8387 15C49.8387 12.9093 50.5387 11.1733 51.9387 9.792C53.3387 8.392 55.0934 7.692 57.2027 7.692C59.1441 7.692 60.7774 8.29867 62.1027 9.512C63.4281 10.7067 64.0907 12.396 64.0907 14.58C64.0907 15.196 64.0721 15.6347 64.0347 15.896H53.5627C53.6747 16.8107 54.0761 17.5293 54.7667 18.052C55.4761 18.556 56.3161 18.808 57.2867 18.808C58.9294 18.808 60.1334 18.22 60.8987 17.044L63.7547 19.172C62.3174 21.2627 60.1521 22.308 57.2587 22.308ZM53.7027 13.292H60.2547C60.0867 12.4893 59.7041 11.8827 59.1067 11.472C58.5281 11.0613 57.8561 10.856 57.0907 10.856C56.3067 10.856 55.5881 11.0613 54.9347 11.472C54.2814 11.8827 53.8707 12.4893 53.7027 13.292ZM73.4462 22.308C71.3556 22.308 69.5916 21.6173 68.1542 20.236C66.7356 18.836 66.0262 17.0907 66.0262 15C66.0262 12.9093 66.7356 11.1733 68.1542 9.792C69.5916 8.392 71.3556 7.692 73.4462 7.692C74.8836 7.692 76.1902 8.06533 77.3662 8.812C78.5609 9.54 79.4662 10.5107 80.0822 11.724L76.7502 13.516C76.4516 12.844 76.0129 12.3027 75.4342 11.892C74.8742 11.4813 74.2116 11.276 73.4462 11.276C72.4382 11.276 71.5889 11.6307 70.8982 12.34C70.2262 13.0493 69.8902 13.936 69.8902 15C69.8902 16.064 70.2262 16.9507 70.8982 17.66C71.5889 18.3693 72.4382 18.724 73.4462 18.724C74.2116 18.724 74.8742 18.5187 75.4342 18.108C76.0129 17.6973 76.4516 17.156 76.7502 16.484L80.0822 18.276C79.4662 19.4893 78.5609 20.4693 77.3662 21.216C76.1902 21.944 74.8836 22.308 73.4462 22.308ZM86.3715 22H82.5355V0.999998H86.3715V9.596C87.2302 8.32667 88.5648 7.692 90.3755 7.692C92.0555 7.692 93.3715 8.252 94.3235 9.372C95.2942 10.4733 95.7795 11.948 95.7795 13.796V22H91.9435V14.44C91.9435 13.4133 91.7288 12.62 91.2995 12.06C90.8702 11.4813 90.2635 11.192 89.4795 11.192C88.5462 11.192 87.7902 11.528 87.2115 12.2C86.6515 12.872 86.3715 13.8613 86.3715 15.168V22ZM106.032 22V2.12H118.128V5.984H110.092V10.1H116.392V13.964H110.092V22H106.032ZM125.161 22.308C123.313 22.308 121.754 21.5893 120.485 20.152C119.216 18.7147 118.581 16.9973 118.581 15C118.581 13.0027 119.216 11.2853 120.485 9.848C121.754 8.41067 123.313 7.692 125.161 7.692C126.057 7.692 126.86 7.87867 127.569 8.252C128.278 8.62533 128.82 9.064 129.193 9.568V8H133.029V22H129.193V20.432C128.82 20.936 128.278 21.3747 127.569 21.748C126.86 22.1213 126.057 22.308 125.161 22.308ZM123.397 17.744C124.05 18.4533 124.909 18.808 125.973 18.808C127.037 18.808 127.886 18.4533 128.521 17.744C129.174 17.0347 129.501 16.12 129.501 15C129.501 13.88 129.174 12.9653 128.521 12.256C127.886 11.5467 127.037 11.192 125.973 11.192C124.909 11.192 124.05 11.5467 123.397 12.256C122.762 12.9653 122.445 13.88 122.445 15C122.445 16.12 122.762 17.0347 123.397 17.744ZM136.758 22V8H140.594V10.24C140.837 9.54933 141.275 8.98 141.91 8.532C142.563 8.06533 143.282 7.832 144.066 7.832C144.551 7.832 144.981 7.888 145.354 8V11.892C144.738 11.6867 144.159 11.584 143.618 11.584C142.703 11.584 141.966 11.92 141.406 12.592C140.865 13.2453 140.594 14.1507 140.594 15.308V22H136.758ZM165.445 22V14.524C165.445 12.3027 164.717 11.192 163.261 11.192C162.421 11.192 161.749 11.5093 161.245 12.144C160.76 12.7787 160.498 13.7213 160.461 14.972V22H156.625V14.524C156.625 12.3027 155.897 11.192 154.441 11.192C153.582 11.192 152.901 11.528 152.397 12.2C151.893 12.872 151.641 13.8613 151.641 15.168V22H147.805V8H151.641V9.596C152.518 8.32667 153.76 7.692 155.365 7.692C157.325 7.692 158.772 8.55067 159.705 10.268C160.116 9.46533 160.732 8.84 161.553 8.392C162.374 7.92533 163.205 7.692 164.045 7.692C165.706 7.692 166.994 8.24267 167.909 9.344C168.824 10.4453 169.281 11.9573 169.281 13.88V22H165.445Z" fill="white"/>
</svg>
