<svg width="72" height="72" viewBox="0 0 72 72" fill="none" xmlns="http://www.w3.org/2000/svg">
<circle cx="36" cy="36" r="36" fill="url(#paint0_linear_7_236)"/>
<path fill-rule="evenodd" clip-rule="evenodd" d="M52.5 35.175C52.5 44.2877 45.1127 51.675 36 51.675C33.5047 51.675 31.1388 51.1211 29.0184 50.1295L18.7929 53.325L22.0991 44.0677C20.4539 41.5014 19.5 38.4496 19.5 35.175C19.5 26.0623 26.8873 18.675 36 18.675C45.1127 18.675 52.5 26.0623 52.5 35.175ZM33.2904 28.5354C33.3901 28.641 33.4962 28.7535 33.6146 28.8774C34.2595 29.5225 34.294 30.5787 33.6489 31.2236L32.5535 32.3273C31.2027 33.7037 37.9245 40.41 39.3488 39.0206L40.4442 37.9169C41.0893 37.272 42.1455 37.2375 42.7904 37.8826C43.0696 38.1748 43.299 38.4 43.5284 38.6251C43.7578 38.8502 43.9872 39.0754 44.2663 39.3676C44.9113 40.0127 45.1448 41.3373 44.4997 41.9822C39.023 47.5007 23.9954 32.8499 29.6063 27.2319C30.2514 26.587 31.4937 26.7473 32.1386 27.3924C32.6366 27.8427 32.9196 28.1425 33.2904 28.5354Z" fill="white"/>
<defs>
<linearGradient id="paint0_linear_7_236" x1="50" y1="3" x2="22.5" y2="72" gradientUnits="userSpaceOnUse">
<stop stop-color="#52CD5F"/>
<stop offset="1" stop-color="#2CB741"/>
</linearGradient>
</defs>
</svg>
