<svg width="153" height="193" viewBox="0 0 153 193" fill="none" xmlns="http://www.w3.org/2000/svg">
<g clip-path="url(#clip0_66_209)">
<path d="M3.4447 179.527C11.6885 174.179 24.3092 172.029 29.7266 171.283L29.0592 169.497L27.2731 153.461L27.7147 144.324L29.491 139.869L36.8417 124.274L41.2972 112.027L40.1883 111.585L34.8396 108.023L31.7188 101.791V89.7685L33.9466 78.8554L39.2952 72.172L36.1743 65.9402L34.8396 64.3797L28.1563 50.7972L27.9306 48.7951L29.0396 36.5473L32.1604 27.1946L36.8417 17.8418L44.4181 8.93074L51.7688 3.36622L55.3312 2.03151L65.3611 3.58212L68.6979 2.0217L76.2743 0.91272L86.3042 7.58623L95.2153 17.6063L101.447 29.6382L105.235 40.993L114.588 44.1139L105.903 67.9422L97.443 65.0471L92.0944 74.1741L96.55 79.297L105.903 93.1053C108.052 98.6698 112.007 111.055 110.584 116.041C109.161 121.026 103.753 121.536 101.231 121.163L94.5479 119.377L94.1063 147.887C96.8542 148.849 102.35 151.538 102.35 154.57C102.792 162.363 101.015 166.151 98.7876 170.165C106.806 171.725 110.594 179.517 110.594 186.642C96.1574 188.605 83.7918 187.457 79.4148 186.642V189.312C73.546 189.753 59.9046 190.735 52.2398 191.098C44.5751 191.451 34.7906 190.352 30.8552 189.763L23.5045 190.205L12.8171 189.763C10.128 189.331 -4.78923 184.876 3.4447 179.527Z" fill="white"/>
<path d="M54.7326 2.01181C54.7326 2.01181 28.1269 12.3165 27.803 49.4821C29.3929 55.3901 32.3174 60.8466 36.3314 65.4592C36.3314 65.4592 40.4434 74.0955 43.7704 74.5175C50.0611 80.7985 71.6519 94.1553 71.6519 94.1553C71.6519 94.1553 97.3743 73.1436 102.085 58.8152C106.796 44.4867 106.815 34.2704 97.7767 22.2973C91.4761 14.3185 84.2236 7.13471 76.1859 0.902832L65.1354 3.36614L54.7326 2.01181Z" fill="#B896D6"/>
<path d="M58.0693 2.73808C58.0693 2.73808 42.1609 11.5805 35.6836 45.1443C38.039 55.1644 59.826 77.2458 72.7805 85.7938C71.701 88.6399 70.219 91.3191 68.3838 93.7431C68.3838 93.7431 44.526 78.4235 40.6888 73.4184C38.5591 70.8079 36.9595 67.8048 35.9781 64.576C31.6795 60.5621 28.7942 55.2723 27.7539 49.4919C26.272 40.149 30.3841 24.5349 39.2167 14.2204C48.0591 3.91575 54.6835 2.01184 54.6835 2.01184L58.0693 2.73808Z" fill="#A67EC9"/>
<path d="M94.1848 82.3982L95.2153 80.4648C95.2153 80.4648 84.7143 75.0279 81.8683 73.7815C76.7748 78.8553 65.9598 96.334 64.3895 100.466L66.5094 101.987" fill="#78BF5E"/>
<path d="M66.5094 102.978C66.8234 102.978 67.1276 102.831 67.3239 102.566C67.6478 102.114 67.5398 101.496 67.0982 101.172L65.6261 100.112C67.8244 95.2937 77.1673 80.2587 82.094 74.9788C84.9008 76.2841 91.4663 79.6503 93.8609 80.8868L93.3015 81.9369C93.0464 82.4276 93.223 83.0263 93.7137 83.2814C94.2044 83.5366 94.8031 83.3599 95.0582 82.8692L96.0887 80.9359C96.2163 80.7003 96.2359 80.4256 96.1574 80.1704C96.0789 79.9152 95.9022 79.6993 95.6667 79.5816C95.2349 79.3558 85.097 74.1152 82.2608 72.8688C81.8879 72.702 81.4462 72.7903 81.1616 73.0749C75.8621 78.3548 65.0471 95.9415 63.4572 100.112C63.3002 100.534 63.4376 101.015 63.8105 101.28L65.9303 102.801C66.107 102.919 66.3033 102.978 66.5094 102.978Z" fill="black"/>
<path d="M94.7835 86.2257L95.8532 83.6348C95.8532 83.6348 86.3238 79.1989 83.4679 77.9329C78.3941 83.0067 67.5791 99.504 66.0089 103.636L68.2759 105.667" fill="#78BF5E"/>
<path d="M68.2661 106.649C68.5409 106.649 68.8156 106.541 69.0119 106.315C69.375 105.903 69.3456 105.275 68.9334 104.912L67.1963 103.361C69.3358 98.7287 78.7768 84.3512 83.6936 79.1203C86.4317 80.3471 92.3496 83.1048 94.5675 84.1353L93.8609 85.8429C93.6548 86.3533 93.8904 86.9323 94.4007 87.1482C94.911 87.3543 95.4901 87.1187 95.706 86.6084L96.7757 84.0175C96.9818 83.5268 96.7561 82.9576 96.2752 82.7319C96.177 82.6926 86.7065 78.2763 83.8703 77.0202C83.4974 76.8533 83.0557 76.9416 82.7613 77.2262C77.5108 82.4767 66.6566 99.1409 65.0765 103.282C64.9293 103.665 65.0373 104.107 65.3415 104.382L67.6085 106.413C67.795 106.57 68.0305 106.649 68.2661 106.649Z" fill="black"/>
<path d="M92.487 92.0846L96.9229 87.6487C96.9229 87.6487 87.4131 83.2128 84.5475 81.9468C79.4736 87.0206 69.6204 103.518 68.0502 107.65C69.6302 109.877 80.1115 113.989 80.1115 113.989L80.4158 112.174" fill="#78BF5E"/>
<path d="M80.1116 114.981C80.2784 114.981 80.455 114.941 80.6023 114.853C80.8672 114.706 81.0439 114.451 81.0929 114.156L81.3972 112.35C81.4855 111.811 81.1224 111.291 80.5826 111.202C80.033 111.114 79.5227 111.477 79.4344 112.017L79.3362 112.606C75.7149 111.124 70.7588 108.837 69.2082 107.453C71.2692 102.733 79.9938 88.3062 84.783 83.1441C87.3543 84.3021 92.7421 86.8047 95.2153 87.9529L91.7804 91.3878C91.3878 91.7804 91.3878 92.4085 91.7804 92.801C92.1729 93.1936 92.801 93.1936 93.1936 92.801L97.6295 88.3651C97.8552 88.1394 97.9632 87.8057 97.9043 87.4917C97.8454 87.1678 97.6393 86.9028 97.3449 86.7654C97.2468 86.7164 87.7959 82.3099 84.9597 81.0537C84.5769 80.8868 84.1451 80.9654 83.8507 81.2598C78.7376 86.3729 68.796 102.939 67.1276 107.316C67.0099 107.63 67.0491 107.973 67.2454 108.248C68.9138 110.604 77.9623 114.235 79.7582 114.941C79.8662 114.961 79.9938 114.981 80.1116 114.981Z" fill="black"/>
<path d="M44.8597 139.967L29.5695 139.329C29.5695 139.329 39.7172 119.407 40.9832 111.418C45.1149 111.722 55.2723 108.552 61.6122 90.1512C67.0491 92.0552 67.0491 94.2633 67.0491 94.2633L63.4965 101.27L65.0863 103.802L66.6762 107.296L71.1121 110.466L68.9236 146.945" fill="#2B3860"/>
<path d="M81.6131 172.059C79.1694 170.714 77.079 168.81 75.5088 166.504C73.9385 164.198 72.9277 161.558 72.5548 158.8C69.9148 162.932 69.0217 172.353 63.4965 174.414C72.3389 174.129 74.1152 175.297 75.5775 178.251C77.03 177.829 78.3548 177.034 79.4049 175.945C80.4747 174.866 81.2303 173.521 81.6131 172.059Z" fill="#E2DDE8"/>
<path d="M90.2199 147.023C90.2199 147.023 101.084 150.174 102.252 155.522C103.41 160.861 101.113 168.82 97.286 172.353C94.9307 177.064 94.6461 187.369 94.6461 187.369C94.6461 187.369 83.782 187.673 79.3264 186.495C78.8063 183.384 77.923 180.342 76.6865 177.437C76.6865 177.437 85.5289 172.422 86.7065 163.295C87.3935 157.779 88.5712 152.333 90.2199 147.023Z" fill="#E2DDE8"/>
<path d="M36.9104 140.448C36.9104 140.448 32.1997 166.749 38.8634 177.358C37.3029 183.247 50.0611 190.509 62.6328 190.313C43.3974 191.893 32.4058 190.911 29.8443 189.135C30.0406 185.798 30.4233 177.564 30.4233 177.564C30.4233 177.564 23.0138 151.175 29.5695 139.329C36.1351 127.484 36.9104 140.448 36.9104 140.448Z" fill="#E2DDE8"/>
<path d="M14.8976 182.952C20.5603 182.952 26.1739 181.657 31.2674 179.154C31.6992 178.938 31.9151 178.448 31.7875 177.986C31.7188 177.751 25.0944 154.266 29.9228 141.164C32.0721 137.347 34.5845 133.617 37.0183 130.026C41.3856 123.578 45.5074 117.483 47.4408 111.094C47.5978 110.564 47.3034 110.015 46.7734 109.848C46.2435 109.691 45.6939 109.985 45.5271 110.515C43.682 116.61 39.6387 122.587 35.3598 128.907C32.8867 132.558 30.3252 136.346 28.1367 140.261C28.1072 140.311 28.0876 140.35 28.068 140.399C23.426 152.843 28.4606 173.325 29.6284 177.721C24.3191 180.175 18.4601 181.264 12.6208 180.891C12.081 180.842 11.6001 181.274 11.5609 181.824C11.5216 182.373 11.9436 182.844 12.4932 182.884C13.298 182.923 14.1027 182.952 14.8976 182.952Z" fill="black"/>
<path d="M58.4128 99.0231C58.4128 99.0231 57.2351 111.703 48.1081 118.749C46.9305 129.054 51.0425 140.252 51.0425 140.252L29.5793 139.329C29.5793 139.329 39.4915 117.905 40.993 111.418C47.5095 110.8 56.0575 103.086 58.4128 99.0231Z" fill="#222E56"/>
<path d="M64.7527 174.453C65.0078 174.453 65.263 174.355 65.4593 174.159C70.7392 168.879 74.9985 157.004 73.5951 151.469C72.5057 147.17 61.1411 143.372 50.5616 140.144C48.9227 139.643 47.6273 139.251 47.0679 139.035C46.5477 138.829 45.9785 139.084 45.7724 139.604C45.5761 140.114 45.8215 140.693 46.3416 140.899C46.9697 141.145 48.2357 141.527 49.9728 142.067C55.6551 143.804 70.749 148.407 71.6519 151.97C72.7903 156.464 69.2278 167.564 64.0362 172.756C63.6437 173.148 63.6437 173.776 64.0362 174.169C64.2423 174.355 64.4975 174.453 64.7527 174.453Z" fill="black"/>
<path d="M48.5792 192.364C56.8033 192.364 66.8038 191.736 79.1203 190.47C79.5914 190.421 79.9643 190.048 80.0134 189.577C81.4266 175.131 69.375 172.55 69.2573 172.53C65.0078 171.863 49.4919 177.623 47.7352 178.281C47.2249 178.477 46.9599 179.046 47.1562 179.567C47.3525 180.077 47.9217 180.342 48.4418 180.146C53.074 178.408 65.8126 174.012 68.9138 174.493C69.2867 174.571 78.8455 176.681 78.0997 188.576C55.135 190.892 40.4042 190.97 30.4233 188.821C30.3252 188.801 30.2172 188.792 30.1191 188.801C17.7142 190.018 6.58518 188.635 3.05214 185.425C2.34553 184.788 2.00204 184.12 2.00204 183.404C2.00204 179.831 12.2282 175.572 28.6764 172.285C29.2162 172.177 29.5695 171.656 29.4616 171.117C29.3536 170.577 28.8335 170.224 28.2937 170.332C15.3981 172.913 0.0196082 177.28 0.0196082 183.404C0.0196082 184.699 0.588825 185.877 1.72725 186.907C5.6921 190.499 17.1156 192.06 30.178 190.804C35.0752 191.844 41.0813 192.364 48.5792 192.364Z" fill="black"/>
<path d="M99.347 96.5303C99.347 96.5303 91.2504 89.2876 86.2355 92.7127C81.2205 96.1378 75.3714 106.982 81.3775 112.144C87.3935 117.307 98.7483 120.673 101.987 120.967C106.413 108.297 99.347 96.5303 99.347 96.5303Z" fill="white"/>
<path d="M76.2154 178.35C76.235 178.35 76.2645 178.35 76.2939 178.35C84.3512 177.761 90.4359 157.407 90.1316 144.442C89.9353 136.513 90.8579 132.822 92.1337 127.729C92.7225 125.393 93.38 122.753 94.0376 119.299C94.1357 118.759 93.7824 118.239 93.2427 118.131C92.6931 118.023 92.1827 118.386 92.0748 118.926C91.4271 122.331 90.7695 124.942 90.1905 127.248C88.8754 132.499 87.9235 136.287 88.1296 144.491C88.4534 158.378 81.8388 175.955 76.1369 176.367C75.5873 176.406 75.1751 176.887 75.2144 177.437C75.2634 177.947 75.6953 178.35 76.2154 178.35Z" fill="black"/>
<path d="M101.997 116.394C101.997 116.394 86.0981 111.399 80.2588 104.038C78.7965 109.328 81.721 115.216 89.3171 117.876C93.1151 119.26 97.0112 120.388 100.966 121.242L101.997 116.394Z" fill="#E2DDE8"/>
<path d="M101.29 98.7188C102.429 100.947 105.422 105.383 100.986 121.252C113.989 121.89 110.191 110.132 108.229 100.927C106.276 91.7215 94.9307 76.657 92.0748 74.4489C91.7902 75.0868 91.6724 75.7836 91.7313 76.4705C91.7804 77.1673 92.0061 77.8347 92.3888 78.4137L95.2153 81.5836L94.911 83.7918L96.8149 85.3816L96.177 88.5515L93.4193 91.957C93.4095 91.9668 100.142 96.4911 101.29 98.7188Z" fill="#2B3860"/>
<path d="M101.977 122.272C105.422 122.272 107.856 121.37 109.416 119.515C112.566 115.776 111.114 109.308 109.711 103.057C109.534 102.272 109.357 101.486 109.2 100.721C107.198 91.3093 95.8335 76.0976 92.6734 73.654C92.4281 73.4675 92.114 73.3988 91.8196 73.4773C91.5252 73.5558 91.2798 73.7619 91.1523 74.0367C90.8088 74.8218 90.6518 75.6854 90.7205 76.5393C90.7892 77.3931 91.0639 78.2273 91.535 78.9437C91.5645 78.9829 91.5939 79.032 91.6332 79.0615L94.1553 81.8879L93.91 83.6446C93.8609 83.9881 93.9983 84.3218 94.2535 84.5475L95.706 85.7644L95.2349 88.1198L92.6342 91.3387C92.4575 91.5547 92.379 91.8393 92.4281 92.1141C92.4673 92.3888 92.6244 92.6342 92.8599 92.7912C95.3821 94.489 99.661 97.7178 100.407 99.1703L100.593 99.5236C101.742 101.712 104.146 106.266 100.034 120.987C99.9554 121.281 100.004 121.595 100.181 121.841C100.358 122.086 100.642 122.243 100.937 122.253C101.29 122.263 101.634 122.272 101.977 122.272ZM92.7127 76.4411C96.7168 80.7298 105.579 93.2917 107.247 101.143C107.414 101.918 107.591 102.703 107.767 103.498C109.004 109.014 110.407 115.255 107.885 118.239C106.766 119.564 104.931 120.231 102.272 120.28C106.119 105.765 103.577 100.947 102.34 98.5913L102.164 98.2674C101.163 96.3242 96.8051 93.1249 94.8521 91.7509L96.9327 89.1797C97.0308 89.0521 97.0995 88.9049 97.1388 88.7479L97.7767 85.5779C97.8454 85.2246 97.7178 84.8517 97.443 84.6162L95.9611 83.3796L96.1967 81.721C96.2359 81.4364 96.1476 81.142 95.9513 80.9163L93.1838 77.8053C92.9188 77.3931 92.7618 76.922 92.7127 76.4411Z" fill="black"/>
<path d="M74.6942 189.773C75.2438 189.773 75.6854 189.331 75.6854 188.782C75.6854 184.032 73.7128 182.354 73.4871 182.187C73.0553 181.843 72.4272 181.932 72.0935 182.354C71.7598 182.785 71.8285 183.404 72.2505 183.737C72.3094 183.786 73.6932 185.072 73.6932 188.782C73.703 189.331 74.1446 189.773 74.6942 189.773Z" fill="black"/>
<path d="M86.8832 179.036C86.9421 179.036 87.0108 179.027 87.0697 179.017C97.7375 176.995 104.234 167.515 103.233 155.444C102.88 151.204 98.1987 148.927 94.067 146.915C92.4281 146.111 90.8775 145.365 89.6998 144.55C89.2484 144.236 88.6301 144.354 88.316 144.805C88.002 145.257 88.1198 145.875 88.5712 146.189C89.8765 147.092 91.4859 147.877 93.2034 148.711C97.0407 150.576 100.996 152.509 101.261 155.62C102.173 166.622 96.3242 175.248 86.7065 177.074C86.1668 177.172 85.8135 177.702 85.9116 178.242C85.9999 178.703 86.4219 179.036 86.8832 179.036Z" fill="black"/>
<path d="M91.1032 188.899C100.76 188.899 109.926 187.84 110.456 187.771C110.918 187.712 111.281 187.349 111.33 186.878C112.743 172.412 100.672 169.851 100.554 169.831C100.014 169.733 99.4942 170.076 99.3862 170.616C99.2783 171.156 99.6316 171.676 100.171 171.784C100.603 171.872 110.162 173.972 109.416 185.887C105.755 186.269 90.5045 187.722 79.9545 186.269C79.4147 186.201 78.9044 186.574 78.8357 187.123C78.7572 187.663 79.14 188.173 79.6895 188.242C83.2128 188.723 87.1972 188.899 91.1032 188.899Z" fill="black"/>
<path d="M105.039 187.074C105.049 187.074 105.049 187.074 105.059 187.074C105.608 187.064 106.05 186.613 106.03 186.053C105.932 181.333 104.067 179.655 103.861 179.478C103.439 179.125 102.811 179.184 102.458 179.606C102.114 180.028 102.164 180.646 102.576 180.999C102.635 181.048 103.969 182.363 104.038 186.103C104.048 186.642 104.499 187.074 105.039 187.074Z" fill="black"/>
<path d="M87.5604 106.649C87.9529 106.649 88.316 106.423 88.4829 106.04C88.6988 105.53 88.4633 104.951 87.9529 104.735C85.4307 103.665 82.83 102.713 80.2195 101.908C79.6895 101.742 79.14 102.036 78.9731 102.566C78.8063 103.096 79.1007 103.645 79.6307 103.812C82.1823 104.597 84.7143 105.53 87.1776 106.57C87.2954 106.629 87.423 106.649 87.5604 106.649Z" fill="black"/>
<path d="M90.6321 99.5726C90.9952 99.5726 91.3387 99.3764 91.5154 99.0427C91.7706 98.552 91.5841 97.9533 91.0934 97.6982C88.8852 96.5401 84.0764 94.7638 83.8703 94.6951C83.3502 94.5086 82.7809 94.7736 82.5945 95.2839C82.408 95.8041 82.673 96.3733 83.1833 96.5598C83.2324 96.5794 88.0707 98.3655 90.1611 99.4549C90.3181 99.5334 90.4849 99.5726 90.6321 99.5726Z" fill="black"/>
<path d="M42.6025 75.6659C42.9754 75.6659 43.3385 75.45 43.5054 75.0869C43.7311 74.5863 43.5152 73.9975 43.0147 73.762C35.1831 70.17 36.4786 58.8643 37.1067 53.4274C37.1656 52.8778 36.773 52.3871 36.2332 52.3282C35.664 52.2497 35.1929 52.6619 35.1341 53.2017C34.4569 59.0999 33.0437 71.3772 42.1903 75.5776C42.3179 75.6364 42.4651 75.6659 42.6025 75.6659Z" fill="black"/>
<path d="M89.9157 77.9426C90.2003 77.9426 90.4849 77.8248 90.6812 77.5893C96.1476 71.0826 98.6894 65.42 98.925 59.2372C98.9446 58.6876 98.5128 58.2263 97.9632 58.2067C97.4136 58.1871 96.9523 58.6189 96.9327 59.1685C96.7168 64.8802 94.3222 70.1699 89.16 76.3135C88.8067 76.7355 88.8656 77.3636 89.2778 77.7169C89.4545 77.8641 89.6802 77.9426 89.9157 77.9426Z" fill="black"/>
<path d="M44.0255 32.1898C44.4181 32.1898 44.791 31.9543 44.948 31.5716C45.1541 31.0612 44.9088 30.4822 44.4083 30.2761C43.5545 29.9228 42.8577 29.2653 42.4651 28.4311C42.0726 27.5969 42.0039 26.6449 42.2885 25.7617C42.4062 25.2906 42.5927 24.898 42.8577 24.5644C43.1226 24.2209 43.4465 23.9461 43.8194 23.74C44.1924 23.5339 44.6046 23.4063 45.0364 23.3769C45.4682 23.3376 45.8902 23.3965 46.2926 23.5339C46.8127 23.7106 47.3819 23.4358 47.5586 22.9156C47.7352 22.3955 47.4604 21.8263 46.9403 21.6496C46.2729 21.4239 45.5663 21.3356 44.8695 21.3945C44.1629 21.4533 43.4956 21.6594 42.8675 21.9931C42.2492 22.3268 41.7094 22.788 41.2776 23.3474C40.8458 23.9068 40.5416 24.5447 40.3747 25.2317C39.9625 26.537 40.0607 27.9993 40.6692 29.2849C41.2776 30.5803 42.3375 31.5912 43.6624 32.131C43.7802 32.1604 43.9078 32.1898 44.0255 32.1898Z" fill="black"/>
<path d="M68.1385 69.5419C70.5233 71.2005 73.4086 71.9758 76.3037 71.7304C78.4235 71.6421 80.4648 70.9257 82.1725 69.6695C83.8801 68.4133 85.1756 66.6762 85.9018 64.684C85.9018 64.684 93.7039 59.8261 96.7659 47.0385C92.6833 26.2328 88.0805 17.1156 72.0543 16.6838C64.733 16.4581 57.5198 18.4307 51.3369 22.3367C48.3731 30.1388 46.2729 38.2549 45.0854 46.5183C45.8706 48.7068 46.8323 50.8267 47.9511 52.8581" fill="white"/>
<path d="M97.7375 65.1943C98.0221 65.1943 98.3067 65.0765 98.503 64.8312C103.783 58.4717 106.531 50.4144 106.236 42.1511C106.236 42.0922 106.227 42.0333 106.217 41.9744C102.654 25.8108 94.8423 15.3 88.9147 9.32328C82.4669 2.82643 76.9122 0.19628 76.6767 0.0883259C76.5393 0.029442 76.392 0 76.235 0C72.2702 0.0785119 68.4231 0.932328 64.8017 2.55164C64.3012 2.77736 64.0755 3.3662 64.3012 3.86671C64.5269 4.36722 65.1158 4.59294 65.6163 4.36722C68.9236 2.89513 72.4272 2.10019 76.0387 1.99224C78.2469 3.12085 97.9828 13.9653 104.254 42.3081C104.509 50.0513 101.928 57.5885 96.9818 63.5554C96.6285 63.9774 96.6874 64.6055 97.1094 64.9588C97.286 65.1158 97.5117 65.1943 97.7375 65.1943Z" fill="black"/>
<path d="M34.9967 65.8224C35.2126 65.8224 35.4285 65.7537 35.6149 65.6065C36.0468 65.263 36.1253 64.6349 35.7818 64.2031C32.3763 59.8849 29.9425 54.762 28.755 49.384C29.334 30.6294 36.4295 19.0097 42.2983 12.5619C48.0591 6.23188 53.7806 3.49378 54.8798 3.01289C56.5383 3.0914 67.1963 3.73913 71.8285 7.20346C72.2702 7.53714 72.8983 7.439 73.2221 6.99737C73.5558 6.55574 73.4577 5.93746 73.0258 5.60378C67.5104 1.48191 55.2527 1.02065 54.7326 1.00103C54.5952 0.991212 54.4578 1.02065 54.3302 1.06972C54.0652 1.17768 27.8619 12.0712 26.7725 49.4428C26.7725 49.5214 26.7725 49.6097 26.7922 49.6882C28.0385 55.3999 30.6098 60.8467 34.2312 65.4396C34.4078 65.6948 34.7022 65.8224 34.9967 65.8224Z" fill="black"/>
<path d="M81.7603 28.1858C81.7799 28.1858 81.8094 28.1858 81.829 28.1858L87.3543 27.803C87.9038 27.7638 88.316 27.2927 88.2768 26.7431C88.2375 26.1935 87.7664 25.7813 87.2169 25.8206L81.6916 26.2033C81.142 26.2426 80.7298 26.7137 80.7691 27.2632C80.7985 27.7834 81.2401 28.1858 81.7603 28.1858Z" fill="black"/>
<path d="M83.6642 34.2312C83.7525 34.2312 83.8409 34.2214 83.9292 34.1919L91.7019 32.0525C92.2318 31.9053 92.5459 31.3557 92.3986 30.8257C92.2514 30.2958 91.7019 29.9817 91.1719 30.129L83.3992 32.2684C82.8693 32.4156 82.5552 32.9652 82.7024 33.4952C82.8202 33.9466 83.2226 34.2312 83.6642 34.2312Z" fill="black"/>
<path d="M55.2822 34.5452H68.3544C68.8745 34.5452 69.3162 34.1428 69.3456 33.6128C69.3554 33.4853 69.5321 30.5018 67.2847 28.2446C65.5181 26.4584 62.8095 25.6635 59.2372 25.8696C58.6876 25.899 58.2656 26.3701 58.3049 26.9197C58.3343 27.4693 58.8054 27.9011 59.355 27.852C62.3188 27.6754 64.5073 28.274 65.8518 29.6185C66.8038 30.5705 67.1571 31.7384 67.2847 32.5431H55.2723C54.7228 32.5431 54.2811 32.9847 54.2811 33.5441C54.2811 34.1035 54.7326 34.5452 55.2822 34.5452Z" fill="black"/>
<path d="M53.7021 22.1698C53.7021 22.1698 48.6872 45.4289 53.7021 52.2006C58.7171 58.9821 66.0775 67.8146 66.0775 67.8146C66.0775 67.8146 49.7765 57.5983 45.1247 46.5183C46.6557 38.3236 48.746 30.2467 51.3762 22.3366L53.7021 22.1698Z" fill="#E2DDE8"/>
<path d="M85.1854 42.0038C85.2246 42.0038 85.2639 42.0038 85.3031 41.994C85.8527 41.9351 86.2453 41.4346 86.1766 40.8948C85.4994 34.9966 83.7623 29.3438 81.0144 24.0835C80.7593 23.5928 80.1606 23.4063 79.6699 23.6615C79.1792 23.9167 78.9927 24.5153 79.2479 25.006C81.8781 30.0504 83.5464 35.4775 84.1942 41.1206C84.253 41.6309 84.6849 42.0038 85.1854 42.0038Z" fill="black"/>
<path d="M42.6025 74.6648C46.9893 81.6523 53.2703 87.2365 60.7191 90.7891C71.6911 71.9267 67.8637 55.7336 57.8534 53.9769C47.8333 52.2202 44.2512 54.1928 44.2512 54.1928L44.7419 71.9267L42.6025 74.6648Z" fill="white"/>
<path d="M54.2811 21.2865C54.2811 21.2865 51.6412 43.6722 55.4588 52.495C53.0838 53.2997 50.6107 53.8002 48.1081 53.9769L45.1149 46.5183C45.1149 46.5183 49.8943 24.2896 51.3664 22.3366C52.8385 20.3738 54.2811 21.2865 54.2811 21.2865Z" fill="#E2DDE8"/>
<path d="M49.5704 54.2713C49.5704 54.2713 51.0327 71.0631 52.5244 75.4794C52.2202 79.0026 52.2202 82.5454 52.5244 86.0785L42.6025 74.6648L44.8695 69.8854L44.2218 54.2026L49.5704 54.2713Z" fill="#E2DDE8"/>
<path d="M75.2831 72.7707C75.656 72.7707 76.0289 72.7511 76.3921 72.7216C78.6787 72.6235 80.8967 71.8482 82.7711 70.4742C84.5573 69.1592 85.9214 67.3926 86.7262 65.3415C88.2277 64.2914 94.9209 59.0606 97.7473 47.2838C97.7767 47.1464 97.7865 46.9992 97.7571 46.8618C95.4116 34.9084 93.066 28.1858 89.69 23.6419C85.7742 18.3718 80.3471 15.9281 72.0739 15.7024C64.5466 15.4668 57.1763 17.4787 50.7972 21.5123C50.6107 21.63 50.4733 21.7969 50.3948 22.003C47.4015 29.864 45.2817 38.0783 44.0942 46.4005C44.0746 46.5576 44.0844 46.7244 44.1433 46.8814C44.948 49.1092 45.9294 51.2879 47.0679 53.3586C47.3328 53.8395 47.9413 54.0162 48.4222 53.7512C48.9031 53.4862 49.0797 52.8778 48.8148 52.3969C47.7647 50.493 46.852 48.4811 46.0963 46.43C47.2641 38.4512 49.2858 30.5804 52.1417 23.0236C58.1184 19.3237 64.9686 17.4787 72.015 17.7044C87.5113 18.1264 91.7313 26.7039 95.755 47.0482C92.801 59.0606 85.4504 63.7909 85.3817 63.84C85.1952 63.9577 85.048 64.1344 84.9695 64.3503C84.3119 66.1659 83.1441 67.7263 81.5935 68.8746C80.033 70.013 78.1978 70.6607 76.2645 70.749C73.5656 70.9747 70.8962 70.2583 68.7077 68.7372C68.2563 68.4231 67.638 68.5311 67.3239 68.9825C67.0099 69.434 67.1178 70.0522 67.5693 70.3663C69.8363 71.9267 72.5352 72.7707 75.2831 72.7707Z" fill="black"/>
<path d="M70.9257 42.2198C70.8373 42.2394 70.749 42.2786 70.6803 42.3375C70.6116 42.3964 70.5625 42.4847 70.5331 42.5731C70.5037 42.6614 70.5135 42.7595 70.5331 42.8478C70.5625 42.9362 70.6116 43.0147 70.6803 43.0736C72.7903 44.9088 75.548 45.8411 78.345 45.6448C81.142 45.4584 83.7427 44.1629 85.5878 42.0529C85.6565 41.9842 85.6957 41.9057 85.7153 41.8076C85.735 41.7192 85.7252 41.6211 85.6859 41.5328C85.6466 41.4444 85.5878 41.3758 85.5093 41.3267C85.4307 41.2776 85.3424 41.2482 85.2443 41.2482L70.9257 42.2198Z" fill="black"/>
<path d="M63.1726 40.7084C63.31 40.7084 63.4572 40.7084 63.5946 40.6986C64.4582 40.6397 65.2826 40.4042 66.0579 40.0116C66.8234 39.6092 67.4908 39.0695 68.0403 38.3923C68.5801 37.7249 68.9727 36.9595 69.2082 36.1155C69.4339 35.2813 69.4928 34.4274 69.3652 33.5638C69.2867 33.024 68.796 32.6413 68.2366 32.7198C67.6968 32.7983 67.3141 33.3087 67.3926 33.8484C67.4809 34.4373 67.4417 35.0163 67.2847 35.5855C67.1276 36.1547 66.8627 36.6749 66.4897 37.1361C66.1168 37.5974 65.6654 37.9605 65.1452 38.2353C64.6251 38.5101 64.0559 38.6671 63.467 38.7063C62.8782 38.7456 62.2992 38.6671 61.7398 38.461C61.1804 38.2647 60.6897 37.9605 60.2579 37.5483C59.826 37.1361 59.4924 36.665 59.2666 36.1253C59.0311 35.5855 58.9232 35.0065 58.9232 34.4176C58.933 33.868 58.4913 33.4166 57.9418 33.4166H57.9319C57.3824 33.4166 56.9407 33.8582 56.9407 34.4078C56.9309 35.2715 57.0978 36.1155 57.4412 36.9104C57.7847 37.7053 58.2754 38.4119 58.9035 39.0106C59.5316 39.6092 60.2677 40.0509 61.0822 40.3453C61.7496 40.5906 62.4562 40.7084 63.1726 40.7084Z" fill="black"/>
<path d="M86.9715 38.6377C87.4426 38.6377 87.9137 38.5788 88.3651 38.4512C89.9059 37.9703 91.1523 36.9497 91.9178 35.5757C92.6833 34.2017 92.8795 32.6021 92.4772 31.0809C92.3398 30.5509 91.7902 30.2369 91.2602 30.3743C90.7303 30.5117 90.4064 31.0613 90.5536 31.5912C90.8284 32.6119 90.691 33.6914 90.1807 34.6139C89.6704 35.5364 88.8264 36.2234 87.8155 36.5375C87.3837 36.6552 86.8832 36.6749 86.4023 36.5865C85.9214 36.4982 85.4602 36.3117 85.0578 36.037C84.6064 35.7229 83.9881 35.8309 83.674 36.2823C83.36 36.7338 83.4679 37.352 83.9194 37.6661C84.5573 38.1077 85.2933 38.4119 86.0588 38.5493C86.3532 38.6082 86.6575 38.6377 86.9715 38.6377Z" fill="black"/>
<path d="M62.2305 35.6738C62.1716 34.82 62.7702 34.0741 63.575 34.025C64.3699 33.9661 65.0667 34.6237 65.1256 35.4775C65.1845 36.3313 64.5858 37.0772 63.7811 37.1263C62.9861 37.1851 62.2893 36.5276 62.2305 35.6738Z" fill="black"/>
<path d="M59.0998 48.7461C59.0998 48.7461 65.5083 55.557 67.8343 56.1949C72.9964 56.8819 78.2076 56.9898 83.3894 56.5188C85.7055 55.9888 85.9999 51.0818 85.9999 51.0818L72.4468 51.6608L70.6312 54.2125L66.5192 50.2771L62.5838 49.5018" fill="#896B6F"/>
<path d="M86.1668 33.8681C86.1079 33.0143 86.7065 32.2684 87.5113 32.2194C88.3062 32.1605 89.003 32.818 89.0619 33.6718C89.1208 34.5256 88.5221 35.2715 87.7174 35.3206C86.9224 35.3795 86.2257 34.7219 86.1668 33.8681Z" fill="black"/>
<path d="M71.9071 52.0436C71.9267 52.0436 71.9463 52.0436 71.9659 52.0436C74.5863 51.8767 77.4323 48.5203 78.6394 46.9403C80.5335 48.0395 85.1363 50.4733 88.1885 50.0219C88.2964 50.0022 88.3945 49.9728 88.4927 49.9237C91.7019 48.2848 91.8883 42.8282 91.8981 42.2099C91.908 41.6604 91.4663 41.2089 90.9167 41.1991C90.3672 41.1795 89.9157 41.6309 89.9059 42.1805C89.8863 43.4956 89.4348 47.0384 87.7272 48.0787C85.1756 48.3241 80.5139 45.792 78.8946 44.7812C78.4432 44.4966 77.8445 44.6144 77.5403 45.056C76.2546 46.9108 73.6147 49.8845 71.8972 50.0611C67.4613 49.7078 63.0647 48.8344 58.825 47.4899C57.8927 46.9795 57.4707 45.9589 56.8917 44.5653C56.7739 44.2807 56.6561 43.9863 56.5285 43.6919C56.3126 43.1913 55.7238 42.9558 55.2135 43.1717C54.713 43.3876 54.4774 43.9765 54.6933 44.477C54.8209 44.7616 54.9387 45.0462 55.0466 45.321C55.714 46.9403 56.3519 48.4713 57.981 49.2956C58.0301 49.3153 58.0792 49.3349 58.1282 49.3545C62.5641 50.7677 67.1669 51.6706 71.8089 52.0436C71.858 52.0436 71.8776 52.0436 71.9071 52.0436Z" fill="black"/>
<path d="M77.0692 57.7946C79.2087 57.7946 81.3481 57.6964 83.4777 57.5001C83.517 57.5001 83.5661 57.4903 83.6053 57.4805C86.6575 56.7935 86.7556 52.5735 86.7556 52.3969C86.7654 51.8473 86.3238 51.3958 85.7742 51.386C85.2639 51.3566 84.7732 51.8178 84.7634 52.3674C84.7634 52.3969 84.6652 55.135 83.2226 55.5275C78.1684 55.979 73.0651 55.871 68.0403 55.2135C66.5781 54.7424 62.3777 50.7677 59.826 48.0591C59.4433 47.6567 58.8152 47.6371 58.4128 48.0198C58.0105 48.3928 57.9908 49.0307 58.3736 49.433C59.4727 50.6009 65.106 56.4795 67.5693 57.1567C67.6085 57.1665 67.6576 57.1763 67.6969 57.1861C70.8079 57.5885 73.9385 57.7946 77.0692 57.7946Z" fill="black"/>
<path d="M70.0031 55.3411C70.0031 55.3411 70.0129 55.3411 70.0228 55.3411C70.3466 55.3313 70.641 55.1742 70.8275 54.9093L72.2505 52.8679L84.8419 51.7001L86.5593 53.3881C86.7949 53.6236 87.1285 53.7218 87.4524 53.6531C87.7763 53.5942 88.0412 53.3685 88.1786 53.074L89.8077 49.3055C90.0237 48.805 89.7979 48.2161 89.2876 48.0002C88.7871 47.7843 88.1983 48.01 87.9823 48.5203L86.9323 50.9542L85.9214 49.963C85.7153 49.7569 85.4209 49.6588 85.1363 49.6784L71.6224 50.9248C71.328 50.9542 71.063 51.1112 70.8962 51.3468L70.0031 52.6324L68.4918 50.6009C68.1679 50.1593 67.5398 50.071 67.0982 50.3948C66.6566 50.7187 66.5682 51.3468 66.8921 51.7884L69.2278 54.9387C69.3947 55.184 69.6891 55.3411 70.0031 55.3411Z" fill="black"/>
<path d="M103.881 122.243C106.138 122.243 107.856 121.664 109.131 120.496C110.702 119.044 111.526 116.737 111.634 113.44C111.85 106.894 108.327 95.9906 105.805 90.956C102.379 84.0961 92.8992 74.7826 92.4968 74.39C92.1042 74.0073 91.4761 74.0171 91.0836 74.4097C90.7008 74.8022 90.7107 75.4303 91.1032 75.8229C91.2013 75.921 100.75 85.2934 104.018 91.8589C106.492 96.815 109.828 107.404 109.642 113.391C109.553 116.129 108.945 117.974 107.787 119.044C106.796 119.956 105.324 120.349 103.282 120.251C99.7886 120.084 92.7912 118.396 90.8971 117.051C90.6125 116.855 90.1513 116.629 89.4545 116.286C87.3641 115.265 83.4679 113.371 80.9359 110.476C79.7092 109.063 79.5522 106.492 80.4845 103.214C81.937 98.1399 85.4111 93.3605 87.3248 92.7716C90.7107 91.7313 93.9787 93.861 99.6021 98.7091C100.014 99.0722 100.642 99.0231 101.006 98.6011C101.369 98.1889 101.32 97.551 100.898 97.1977C95.5489 92.5852 91.4074 89.4251 86.736 90.8579C83.6446 91.8 79.9447 97.8356 78.5708 102.654C77.4225 106.658 77.7268 109.809 79.4344 111.771C82.2314 114.971 86.3631 116.983 88.581 118.062C89.1012 118.317 89.5919 118.553 89.7489 118.661C92.1631 120.388 99.6119 122.057 103.184 122.223C103.42 122.243 103.655 122.243 103.881 122.243Z" fill="black"/>
<path d="M60.3462 62.2894C60.3658 62.2894 60.3756 62.2894 60.3953 62.2894C60.9448 62.26 61.3668 61.7987 61.3472 61.2491L61.0626 55.0369C61.0332 54.4873 60.5523 54.0555 60.0223 54.0849C59.4727 54.1144 59.0507 54.5756 59.0704 55.1252L59.355 61.3375C59.3844 61.8772 59.826 62.2894 60.3462 62.2894Z" fill="black"/>
<path d="M52.2693 61.5337C52.3282 61.5337 52.3871 61.5239 52.4459 61.5141C52.9857 61.4159 53.3488 60.8958 53.2409 60.356L52.0828 54.0751C51.9847 53.5353 51.4645 53.1722 50.9248 53.2801C50.385 53.3783 50.0219 53.8984 50.1298 54.4382L51.2879 60.7191C51.386 61.2 51.7982 61.5337 52.2693 61.5337Z" fill="black"/>
<path d="M125.472 83.1538C133.804 80.0134 142.597 78.3057 151.498 78.1193C152.362 72.6921 152.107 67.1374 150.733 61.8182C150.733 61.8182 129.741 65.312 123.568 70.3662C123.862 74.6746 124.5 78.9535 125.472 83.1538Z" fill="#78BF5E"/>
<path d="M125.472 84.1549C125.59 84.1549 125.707 84.1353 125.825 84.0862C134.069 80.9752 142.715 79.3068 151.528 79.1105C152.009 79.1007 152.411 78.7474 152.49 78.2763C153.383 72.6824 153.118 67.059 151.714 61.5729C151.587 61.0724 151.096 60.7486 150.586 60.8369C149.722 60.9841 129.26 64.4386 122.95 69.6008C122.704 69.8069 122.567 70.1209 122.586 70.4448C122.891 74.7826 123.538 79.14 124.51 83.3894C124.579 83.674 124.755 83.9096 125.011 84.047C125.148 84.1157 125.305 84.1549 125.472 84.1549ZM150.635 77.1477C142.273 77.4127 134.059 78.9928 126.198 81.829C125.423 78.2076 124.883 74.5176 124.608 70.8275C130.202 66.7351 146.032 63.6731 149.997 62.9567C151.076 67.638 151.292 72.3978 150.635 77.1477Z" fill="black"/>
<path d="M105.795 67.8932L114.215 44.2022C114.215 44.2022 101.231 39.678 98.2576 39.678C96.5696 44.7714 92.2122 63.6437 92.2122 63.6437L105.795 67.8932Z" fill="#78BF5E"/>
<path d="M105.795 68.8844C106.207 68.8844 106.59 68.6292 106.737 68.217L115.157 44.5261C115.246 44.2807 115.236 44.0059 115.118 43.7606C115 43.525 114.794 43.3386 114.549 43.2502C113.204 42.7792 101.31 38.6671 98.2674 38.6671C97.8356 38.6671 97.4529 38.9419 97.3253 39.3541C95.6471 44.4279 91.4271 62.6329 91.2504 63.4082C91.1326 63.9185 91.4271 64.4288 91.9276 64.5858L105.5 68.8451C105.598 68.8746 105.697 68.8844 105.795 68.8844ZM112.939 44.8107L105.176 66.6468L93.3899 62.9567C94.2339 59.3354 97.4136 45.8215 98.974 40.728C101.85 41.1402 109.2 43.5348 112.939 44.8107Z" fill="black"/>
<path d="M138.073 125.217C138.073 125.217 146.68 136.905 148.78 148.329C144.158 150.929 139.349 153.196 134.402 155.1C134.402 155.1 128.357 138.328 124.549 133.676C127.935 129.869 138.073 125.217 138.073 125.217Z" fill="#78BF5E"/>
<path d="M134.402 156.101C134.52 156.101 134.648 156.082 134.766 156.033C139.741 154.109 144.629 151.813 149.28 149.202C149.653 148.996 149.85 148.574 149.771 148.152C147.651 136.63 139.241 125.109 138.887 124.628C138.603 124.245 138.102 124.117 137.671 124.314C137.249 124.51 127.297 129.103 123.813 133.019C123.489 133.382 123.48 133.931 123.784 134.314C127.435 138.789 133.411 155.287 133.47 155.454C133.558 155.709 133.755 155.905 133.99 156.023C134.118 156.072 134.255 156.101 134.402 156.101ZM147.661 147.808C143.579 150.066 139.319 152.078 134.982 153.805C133.686 150.321 129.191 138.495 125.855 133.755C128.897 130.86 135.521 127.543 137.749 126.473C139.516 129.034 145.738 138.495 147.661 147.808Z" fill="black"/>
<path d="M67.9913 93.753C68.3151 93.753 68.6292 93.596 68.8255 93.3114C69.1297 92.8502 69.0021 92.2319 68.5507 91.9276L62.8487 88.1198C62.3875 87.8156 61.7692 87.9431 61.465 88.3946C61.1607 88.846 61.2883 89.4741 61.7398 89.7784L67.4417 93.5862C67.6085 93.704 67.8048 93.753 67.9913 93.753Z" fill="black"/>
<path d="M58.1969 42.2983C59.934 43.211 61.8968 43.6035 63.84 43.4171C65.793 43.2404 67.6478 42.4945 69.1886 41.2776C72.1622 38.6475 72.81 33.5933 71.3477 32.3861C69.8854 31.1692 57.1861 31.444 55.0466 33.3479C52.9072 35.2518 54.6246 40.5023 58.1969 42.2983Z" fill="black"/>
<path d="M62.9076 44.4573C63.2511 44.4573 63.5946 44.4377 63.9381 44.4083C66.0874 44.212 68.1189 43.3974 69.8069 42.0627C72.1426 40.0018 73.1338 36.8319 73.0946 34.5943C73.0749 33.2302 72.6824 32.1997 71.9856 31.6207C70.6214 30.492 65.0765 30.6294 63.4082 30.708C60.7093 30.8257 55.9397 31.2183 54.3891 32.6119C53.3783 33.5049 52.9563 34.9378 53.1722 36.6454C53.4666 38.9026 54.9976 41.8076 57.7455 43.1913C59.3452 44.0255 61.1117 44.4573 62.9076 44.4573ZM65.6359 32.6708C68.1189 32.6708 70.2191 32.8474 70.7294 33.1713C70.8471 33.2694 71.0827 33.711 71.1023 34.6237C71.1318 36.351 70.3368 38.9321 68.531 40.5318C67.1865 41.5917 65.5182 42.259 63.7516 42.4259C61.9851 42.5927 60.2284 42.2394 58.6582 41.415C58.6582 41.415 58.6484 41.4052 58.6386 41.4052C56.5482 40.3551 55.3607 38.0684 55.135 36.3804C54.9976 35.3598 55.2037 34.5256 55.6944 34.0938C56.8132 33.1124 61.7103 32.6708 65.6359 32.6708Z" fill="black"/>
<path d="M94.5872 39.9233C93.5273 40.9734 92.1042 41.5524 90.6223 41.5524C89.1404 41.5524 87.7076 40.9636 86.6575 39.9233C84.3021 37.5483 83.3796 32.5922 84.3021 31.2674C85.2246 29.9425 94.3222 29.0985 96.0396 30.8159C97.7571 32.5334 96.972 37.8722 94.5872 39.9233Z" fill="black"/>
<path d="M90.6223 42.5534C92.3692 42.5534 94.018 41.8762 95.2643 40.6593C97.129 39.04 97.8749 36.1841 97.9534 34.2115C98.0221 32.4155 97.5902 30.9631 96.7364 30.1092C95.2251 28.5979 90.8971 28.7942 89.111 28.961C87.3543 29.118 84.2825 29.5498 83.4778 30.6981C82.2117 32.5039 83.2815 37.9408 85.9411 40.6298C87.1972 41.8664 88.8558 42.5534 90.6223 42.5534ZM91.4761 30.8453C93.2721 30.8453 94.862 31.0416 95.333 31.5126C95.7747 31.9543 96.0102 32.9357 95.9611 34.133C95.8826 36.1448 95.0484 38.2156 93.9394 39.1675C93.9198 39.1872 93.9002 39.197 93.8904 39.2166C93.0169 40.0802 91.8589 40.5611 90.6223 40.5611C89.3858 40.5611 88.2277 40.0802 87.3543 39.2166C85.2246 37.0674 84.5769 32.6118 85.1167 31.8365C85.7448 31.2673 88.8362 30.8453 91.4761 30.8453Z" fill="black"/>
<path d="M71.7795 36.3902C72.0641 36.3902 72.3487 36.2724 72.545 36.0271C73.8502 34.4568 75.6756 33.4558 77.6973 33.1908C79.719 32.9259 81.7505 33.4362 83.409 34.6139C83.8605 34.9279 84.4788 34.8298 84.8026 34.3783C85.1167 33.9269 85.0185 33.3086 84.5671 32.9848C82.4963 31.5127 79.9643 30.8846 77.4421 31.2084C74.9199 31.5421 72.6431 32.7983 71.014 34.7513C70.6607 35.1733 70.7196 35.8014 71.1416 36.1547C71.328 36.3117 71.5537 36.3902 71.7795 36.3902Z" fill="black"/>
<path d="M30.2761 190.794C30.3154 190.794 30.3448 190.794 30.3841 190.784C30.9337 190.725 31.3262 190.234 31.2673 189.685C30.8552 185.916 31.0514 182.128 31.866 178.428C31.9838 177.888 31.6403 177.358 31.1103 177.241C30.5706 177.123 30.0406 177.466 29.9228 177.996C29.069 181.912 28.8531 185.916 29.2849 189.891C29.3438 190.411 29.7756 190.794 30.2761 190.794Z" fill="black"/>
<path d="M84.783 115.854C84.783 115.854 84.783 138.063 84.4788 145.365C90.1807 149.182 93.9885 147.269 93.9885 147.269L94.2928 119.662L84.783 115.854Z" fill="#2B3860"/>
<path d="M91.3584 148.741C93.2328 148.741 94.3516 148.201 94.44 148.152C94.7736 147.985 94.9797 147.642 94.9895 147.279L95.2938 119.672C95.2938 119.26 95.0484 118.887 94.6657 118.739L85.1559 114.932C84.8517 114.804 84.4984 114.843 84.2236 115.03C83.9488 115.216 83.782 115.52 83.782 115.854C83.782 116.08 83.782 138.122 83.4777 145.316C83.4581 145.659 83.6348 145.993 83.9194 146.189C86.9519 148.221 89.5133 148.741 91.3584 148.741ZM92.9973 146.562C91.908 146.847 89.2091 147.161 85.4896 144.835C85.7251 138.279 85.7644 122.263 85.7742 117.326L93.2819 120.329L92.9973 146.562Z" fill="black"/>
<path d="M43.8489 75.9111C47.9217 82.3883 53.761 87.5701 60.6799 90.8382C54.3204 108.278 45.4486 114.382 38.1469 110.182C30.8453 105.981 29.0886 90.583 33.7405 78.9731C35.5659 76.9416 37.2931 74.812 38.9026 72.594L43.8489 75.9111Z" fill="#2B3860"/>
<path d="M64.4779 82.3393C64.8704 82.3393 65.2336 82.1136 65.4004 81.7309C65.6163 81.2205 65.3808 80.6415 64.8704 80.4256C64.733 80.3667 50.6696 74.4096 46.0963 70.435C45.6841 70.0718 45.056 70.1209 44.6929 70.5331C44.3298 70.9453 44.3788 71.5734 44.791 71.9365C49.5999 76.1271 63.5063 82.0155 64.0951 82.2608C64.2227 82.3197 64.3503 82.3393 64.4779 82.3393Z" fill="black"/>
<path d="M94.6166 119.387C94.9895 119.387 95.3428 119.181 95.5195 118.818C98.7483 112.066 100.142 97.8257 100.191 97.2173C100.24 96.6677 99.8377 96.1868 99.2979 96.1279C98.7581 96.069 98.2674 96.4714 98.2085 97.021C98.1987 97.1682 96.7953 111.526 93.7235 117.954C93.488 118.445 93.6941 119.044 94.1946 119.279C94.332 119.358 94.4792 119.387 94.6166 119.387Z" fill="black"/>
<path d="M68.3936 128.809C68.5212 128.809 68.6488 128.789 68.7764 128.73C69.2867 128.524 69.5321 127.935 69.3162 127.435L59.9144 104.588L63.2511 100.299C63.5259 99.9456 63.5357 99.4451 63.2609 99.0918L60.7289 95.706C60.3952 95.2644 59.777 95.176 59.3353 95.5097C58.8937 95.8434 58.8054 96.4617 59.1391 96.9033L61.2196 99.6807L57.9908 103.822C57.7749 104.107 57.716 104.48 57.8534 104.813L67.4711 128.2C67.6282 128.573 68.0011 128.809 68.3936 128.809Z" fill="black"/>
<path d="M85.7448 129.545C86.0784 129.545 86.4023 129.378 86.5888 129.083L91.9865 120.516C92.2809 120.054 92.1435 119.436 91.6724 119.142C91.2111 118.847 90.5929 118.985 90.2984 119.456L84.9008 128.023C84.6063 128.485 84.7437 129.103 85.2148 129.397C85.3816 129.496 85.5681 129.545 85.7448 129.545Z" fill="black"/>
<path d="M50.1691 107.267C50.1691 107.267 35.134 95.4901 37.2048 75.4794C32.7885 78.4138 29.5597 85.784 31.3164 97.2173C33.0731 108.641 39.5602 117.886 50.1691 107.267Z" fill="#222E56"/>
<path d="M66.2738 41.7487C66.4014 41.7487 66.5388 41.7193 66.6664 41.6702C67.1669 41.4543 67.4024 40.8655 67.1865 40.3649L63.8007 32.5236C63.5848 32.023 62.9959 31.7875 62.4954 32.0034C61.9949 32.2193 61.7594 32.8082 61.9753 33.3087L65.3611 41.1501C65.5181 41.523 65.8911 41.7487 66.2738 41.7487Z" fill="#51514C"/>
<path d="M61.2 41.3168C61.3178 41.3168 61.4355 41.2972 61.5533 41.2481C62.0636 41.0519 62.3286 40.4728 62.1225 39.9625L59.6985 33.6227C59.5022 33.1124 58.9232 32.8474 58.4128 33.0535C57.9025 33.2498 57.6375 33.8288 57.8436 34.3391L60.2677 40.6789C60.4247 41.0715 60.7976 41.3168 61.2 41.3168Z" fill="#51514C"/>
<path d="M94.3124 38.7849C94.44 38.7849 94.5774 38.7555 94.7049 38.7064C95.2153 38.4905 95.441 37.9017 95.2251 37.4011L92.7814 31.6992C92.5655 31.1987 91.9767 30.9632 91.4761 31.1791C90.9658 31.395 90.7401 31.9838 90.956 32.4843L93.3997 38.1863C93.5567 38.5592 93.9296 38.7849 94.3124 38.7849Z" fill="#51514C"/>
<path d="M90.4064 40.571C90.534 40.571 90.6714 40.5415 90.799 40.4924C91.2995 40.2765 91.535 39.6877 91.3191 39.1872L87.9333 31.3654C87.7174 30.8551 87.1285 30.6294 86.628 30.8453C86.1275 31.0612 85.892 31.65 86.1079 32.1506L89.4937 39.9723C89.6507 40.355 90.0139 40.571 90.4064 40.571Z" fill="#51514C"/>
<path d="M68.9334 147.956C69.4536 147.956 69.8952 147.543 69.9246 147.013L72.1132 110.535C72.1328 110.191 71.9758 109.868 71.701 109.661L67.481 106.649L65.999 103.39C65.9794 103.351 65.9598 103.312 65.9402 103.273L64.6447 101.212L67.9422 94.7049C68.0109 94.5676 68.0502 94.4105 68.0502 94.2535C68.0502 93.7628 67.7558 91.2308 61.9459 89.1993C61.7005 89.111 61.4159 89.1306 61.1804 89.2386C60.9448 89.3563 60.7584 89.5624 60.6701 89.8078C53.3488 111.055 41.5622 110.437 41.0519 110.407C40.5318 110.368 40.0705 110.731 39.992 111.242C38.7652 118.985 28.7746 138.662 28.6765 138.858C28.5194 139.162 28.5293 139.525 28.7059 139.82C28.8826 140.114 29.1868 140.301 29.5303 140.311C29.6284 140.311 39.04 140.625 46.8716 140.948C47.4114 140.958 47.8824 140.546 47.9119 139.996C47.9315 139.447 47.5095 138.986 46.9599 138.956C41.0126 138.711 34.1625 138.475 31.1496 138.377C33.397 133.853 40.2864 119.652 41.7978 112.419C47.0384 112.272 56.293 107.758 62.201 91.4271C65.0373 92.5753 65.7831 93.6941 65.9794 94.1259L62.5936 100.809C62.4366 101.123 62.4562 101.496 62.6427 101.791L64.2031 104.274L65.7733 107.708C65.842 107.865 65.9598 108.003 66.0972 108.111L70.0915 110.957L67.9324 146.886C67.903 147.435 68.3151 147.907 68.8647 147.936C68.8942 147.956 68.9138 147.956 68.9334 147.956Z" fill="black"/>
<path d="M42.3081 112.871C42.681 112.871 43.0441 112.851 43.4171 112.802C49.1092 112.135 53.8297 106.452 56.7837 101.81C61.8674 93.4389 65.6457 84.4003 68.06 74.9298C69.0806 70.2681 68.9138 65.42 67.5987 60.8761C67.5791 60.8172 67.5595 60.7584 67.53 60.7093C61.1019 47.8432 44.0746 53.1918 43.9078 53.2507C43.4858 53.3881 43.211 53.7806 43.2208 54.2223L43.7017 71.7402L37.8231 85.6172C37.6072 86.1275 37.8427 86.7065 38.3531 86.9224C38.8536 87.1384 39.4424 86.9028 39.6583 86.3925L45.6154 72.3192C45.6743 72.1917 45.6939 72.0444 45.6939 71.907L45.2228 54.9485C46.5674 54.5952 49.6588 53.9278 53.1329 54.0849C59.1096 54.3596 63.3296 56.8622 65.6948 61.5239C66.8921 65.7242 67.0393 70.1994 66.107 74.4783C63.7615 83.7231 60.0518 92.5753 55.0859 100.76C52.3674 105.019 48.0885 110.25 43.1815 110.829C40.6593 111.124 38.1666 110.113 35.7916 107.807C28.9414 101.182 34.0545 81.5444 34.6434 79.3951L39.6779 73.1829C40.0214 72.7511 39.9625 72.1328 39.5307 71.7795C39.0989 71.436 38.4806 71.4949 38.1273 71.9267L32.9652 78.3058C32.8867 78.4137 32.818 78.5315 32.7787 78.6591C32.5137 79.5816 26.3309 101.437 34.398 109.249C36.9006 111.654 39.5602 112.871 42.3081 112.871Z" fill="black"/>
<path d="M61.6907 92.0748C62.0931 92.0748 62.466 91.8295 62.623 91.4369C62.8193 90.9266 62.5739 90.3476 62.0538 90.1513C61.936 90.1022 49.9924 85.3523 44.7714 75.4009C44.5162 74.9102 43.9176 74.7237 43.4269 74.9789C42.9362 75.234 42.7497 75.8327 43.0049 76.3234C48.589 86.9421 60.8172 91.8 61.3276 92.0061C61.4453 92.0454 61.5729 92.0748 61.6907 92.0748Z" fill="black"/>
</g>
<defs>
<clipPath id="clip0_66_209">
<rect width="153" height="192.364" fill="white" transform="matrix(-1 0 0 1 153 0)"/>
</clipPath>
</defs>
</svg>
