<svg width="80" height="80" viewBox="0 0 80 80" fill="none" xmlns="http://www.w3.org/2000/svg">
<path fill-rule="evenodd" clip-rule="evenodd" d="M40 0C17.9086 0 0 17.9086 0 40C0 62.0914 17.9086 80 40 80C62.0914 80 80 62.0914 80 40C80 17.9086 62.0914 0 40 0ZM39.9997 22C32.5899 22 26.583 28.0068 26.583 35.4167V48H22.583V51H57.4163V48H53.4163V35.4167C53.4163 28.0068 47.4095 22 39.9997 22ZM29.583 35.4167C29.583 29.6637 34.2467 25 39.9997 25C45.7526 25 50.4163 29.6637 50.4163 35.4167V47.6667H29.583V35.4167ZM34.4997 58.3333V55.3333H45.4997V58.3333H34.4997Z" fill="black"/>
</svg>
