<svg width="80" height="80" viewBox="0 0 80 80" fill="none" xmlns="http://www.w3.org/2000/svg">
<path fill-rule="evenodd" clip-rule="evenodd" d="M40 0C17.9086 0 0 17.9086 0 40C0 62.0914 17.9086 80 40 80C62.0914 80 80 62.0914 80 40C80 17.9086 62.0914 0 40 0ZM22.3325 26.333H23.9992H55.9992H57.6659V27.9997V51.9997V53.6663H55.9992H23.9992H22.3325V51.9997V27.9997V26.333ZM25.6659 50.333V31.4508L39.0122 43.1289L40 43.9932L40.9878 43.1289L54.3325 31.4522V50.333H25.6659ZM40 40.0069L28.1822 29.6663H51.8178L40 40.0069Z" fill="black"/>
</svg>
