<svg width="377" height="237" viewBox="0 0 377 237" fill="none" xmlns="http://www.w3.org/2000/svg">
<rect width="377" height="237" rx="24" fill="black"/>
<path d="M332.576 181.722H312.522V213.625H332.576V181.722Z" fill="#FF5F00"/>
<path d="M314.587 197.677C314.585 194.605 315.3 191.573 316.678 188.81C318.056 186.047 320.062 183.625 322.543 181.729C319.47 179.376 315.78 177.914 311.894 177.508C308.008 177.102 304.083 177.769 300.568 179.433C297.053 181.096 294.089 183.69 292.016 186.917C289.942 190.143 288.843 193.873 288.843 197.68C288.843 201.486 289.942 205.216 292.016 208.443C294.089 211.67 297.053 214.263 300.568 215.927C304.083 217.591 308.008 218.258 311.894 217.852C315.78 217.446 319.47 215.983 322.543 213.631C320.061 211.734 318.055 209.311 316.677 206.547C315.298 203.783 314.584 200.75 314.587 197.677V197.677Z" fill="#EB001B"/>
<path d="M356.246 197.676C356.246 201.483 355.146 205.213 353.072 208.44C350.998 211.667 348.034 214.26 344.519 215.924C341.003 217.587 337.078 218.254 333.192 217.848C329.306 217.441 325.616 215.978 322.543 213.625C325.023 211.726 327.028 209.304 328.407 206.541C329.785 203.778 330.502 200.746 330.502 197.673C330.502 194.601 329.785 191.569 328.407 188.806C327.028 186.043 325.023 183.621 322.543 181.722C325.616 179.369 329.306 177.906 333.192 177.499C337.078 177.093 341.003 177.759 344.519 179.423C348.034 181.087 350.998 183.68 353.072 186.907C355.146 190.134 356.246 193.864 356.246 197.671V197.676Z" fill="#F79E1B"/>
<path d="M25.1333 46.9026H28.4924V38.1627H35.3827V34.9716H28.4924V29.7104H37.2488V26.4904H25.1333V46.9026Z" fill="white"/>
<path d="M43.7431 27.2667C43.7431 26.1167 42.8244 25.168 41.6473 25.168C40.4989 25.168 39.5227 26.1167 39.5227 27.2667C39.5227 28.4454 40.4989 29.3941 41.6473 29.3941C42.8244 29.3941 43.7431 28.4454 43.7431 27.2667ZM40.0682 46.9026H43.2263V32.5278H40.0682V46.9026Z" fill="white"/>
<path d="M50.628 44.9764C51.4319 46.1264 53.1832 47.1901 55.2503 47.1901C59.1835 47.1901 62.1693 43.8264 62.1693 39.7152C62.1693 35.604 59.1835 32.2403 55.2503 32.2403C53.1832 32.2403 51.4319 33.3041 50.628 34.4541V25.3405H47.47V46.9026H50.628V44.9764ZM58.9539 39.7152C58.9539 42.3027 57.2026 44.3151 54.6761 44.3151C52.1209 44.3151 50.3696 42.3027 50.3696 39.7152C50.3696 37.1278 52.1209 35.1153 54.6761 35.1153C57.2026 35.1153 58.9539 37.1278 58.9539 39.7152Z" fill="white"/>
<path d="M79.3959 39.7152C79.3959 35.5465 76.123 32.2403 71.8739 32.2403C67.6249 32.2403 64.352 35.5465 64.352 39.7152C64.352 43.8839 67.6249 47.1901 71.8739 47.1901C76.123 47.1901 79.3959 43.8839 79.3959 39.7152ZM67.5387 39.7152C67.5387 37.1565 69.3187 35.1728 71.8739 35.1728C74.4004 35.1728 76.1804 37.1565 76.1804 39.7152C76.1804 42.2739 74.4004 44.2576 71.8739 44.2576C69.3187 44.2576 67.5387 42.2739 67.5387 39.7152Z" fill="white"/>
</svg>
