<svg width="60" height="24" viewBox="0 0 60 24" fill="none" xmlns="http://www.w3.org/2000/svg">
<path d="M0 23.6867H3.6658V14.1619H11.1854V10.6841H3.6658V4.95039H13.2219V1.44125H0V23.6867Z" fill="black"/>
<path d="M20.3092 2.28721C20.3092 1.03394 19.3066 0 18.022 0C16.7688 0 15.7035 1.03394 15.7035 2.28721C15.7035 3.5718 16.7688 4.60574 18.022 4.60574C19.3066 4.60574 20.3092 3.5718 20.3092 2.28721ZM16.2988 23.6867H19.7453V8.02089H16.2988V23.6867Z" fill="black"/>
<path d="M27.8229 21.5875C28.7002 22.8407 30.6115 24 32.8673 24C37.1598 24 40.4182 20.3342 40.4182 15.8538C40.4182 11.3734 37.1598 7.70757 32.8673 7.70757C30.6115 7.70757 28.7002 8.86684 27.8229 10.1201V0.187989H24.3765V23.6867H27.8229V21.5875ZM36.9091 15.8538C36.9091 18.6736 34.9979 20.8668 32.2407 20.8668C29.4522 20.8668 27.541 18.6736 27.541 15.8538C27.541 13.0339 29.4522 10.8407 32.2407 10.8407C34.9979 10.8407 36.9091 13.0339 36.9091 15.8538Z" fill="black"/>
<path d="M59.2179 15.8538C59.2179 11.3107 55.6461 7.70757 51.009 7.70757C46.372 7.70757 42.8002 11.3107 42.8002 15.8538C42.8002 20.3969 46.372 24 51.009 24C55.6461 24 59.2179 20.3969 59.2179 15.8538ZM46.278 15.8538C46.278 13.0653 48.2205 10.9034 51.009 10.9034C53.7662 10.9034 55.7088 13.0653 55.7088 15.8538C55.7088 18.6423 53.7662 20.8042 51.009 20.8042C48.2205 20.8042 46.278 18.6423 46.278 15.8538Z" fill="black"/>
</svg>
